<svg width="31" height="43" viewBox="0 0 31 43" fill="none" xmlns="http://www.w3.org/2000/svg">
<g clip-path="url(#clip0_2248_589)">
<path d="M15.5 30.3347C15.5918 30.3347 15.6835 30.3156 15.7689 30.2741L30.6393 23.2015C30.8608 23.0963 31 22.8729 31 22.6273C31 22.3817 30.8576 22.1584 30.6393 22.0531L20.4927 17.2296C20.1794 17.0796 19.8029 17.2168 19.6542 17.5326C19.5055 17.8517 19.6416 18.2281 19.9548 18.378L28.896 22.6273L15.5032 28.998L2.11033 22.6273L11.659 18.0877C11.9722 17.9378 12.1083 17.5582 11.9596 17.2423C11.8109 16.9233 11.4375 16.7893 11.1211 16.9393L0.363852 22.0531C0.142378 22.1584 0.0031662 22.3817 0.0031662 22.6273C0.0031662 22.8729 0.145542 23.0963 0.363852 23.2015L15.2342 30.2741C15.3197 30.3156 15.4114 30.3347 15.5032 30.3347H15.5Z" fill="black"/>
<path d="M15.5 36.6672C15.5918 36.6672 15.6835 36.6481 15.7689 36.6066L30.6393 29.534C30.8608 29.4288 31 29.2054 31 28.9598C31 28.7142 30.8576 28.4909 30.6393 28.3856L23.9856 25.2209C23.8148 25.1412 23.6186 25.1412 23.4477 25.2209L15.5032 28.9981L7.55859 25.2209C7.38774 25.1412 7.19157 25.1412 7.02072 25.2209L0.367016 28.3856C0.145542 28.4909 0.00633049 28.7142 0.00633049 28.9598C0.00633049 29.2054 0.148706 29.4288 0.367016 29.534L15.2374 36.6066C15.3228 36.6481 15.4146 36.6672 15.5063 36.6672H15.5ZM28.8928 28.9566L15.5 35.3273L2.10717 28.9566L7.28333 26.497L15.2311 30.2741C15.4019 30.3539 15.5981 30.3539 15.7689 30.2741L23.7167 26.497L28.8928 28.9566Z" fill="black"/>
<path d="M15.5 42.9992C15.5918 42.9992 15.6835 42.9801 15.7689 42.9386L30.6393 35.8692C30.8608 35.764 31 35.5407 31 35.295C31 35.0494 30.8576 34.8261 30.6393 34.7208L23.9793 31.553C23.8084 31.4732 23.6123 31.4732 23.4414 31.553L15.5032 35.3301L7.56491 31.553C7.39406 31.4732 7.1979 31.4732 7.02705 31.553L0.367016 34.7208C0.145542 34.8261 0.00633049 35.0494 0.00633049 35.295C0.00633049 35.5407 0.148706 35.764 0.367016 35.8692L15.2374 42.9354C15.3228 42.9769 15.4146 42.996 15.5063 42.996L15.5 42.9992ZM28.8928 35.295L15.5 41.6594L2.10717 35.295L7.28965 32.829L15.2279 36.6062C15.3988 36.6859 15.5949 36.6859 15.7658 36.6062L23.704 32.829L28.8865 35.295H28.8928Z" fill="black"/>
<path d="M15.9144 21.8203C16.4396 21.8203 16.9648 21.6607 17.411 21.3449C18.6544 20.4644 19.7649 19.4085 20.7141 18.1962C25.403 12.2115 24.8461 4.38291 24.8208 4.05113C24.8018 3.82144 24.6626 3.62046 24.457 3.52476L17.7115 0.39522C16.5694 -0.134344 15.2595 -0.134344 14.1205 0.39522L7.37503 3.52157C7.16621 3.61727 7.027 3.81825 7.01118 4.04794C6.98586 4.36695 6.44484 11.9467 10.887 17.8932C11.8836 19.2299 13.0732 20.3879 14.4179 21.3417C14.8672 21.6576 15.3924 21.8171 15.9144 21.8171V21.8203ZM23.5806 4.51689C23.6249 6.10559 23.5521 12.5242 19.7269 17.4083C18.8569 18.5216 17.8349 19.4946 16.6896 20.3017C16.2276 20.6271 15.6044 20.6271 15.1424 20.3017C13.9053 19.4276 12.8106 18.3589 11.8931 17.1307C8.26725 12.2753 8.20397 6.07049 8.24826 4.51689L14.6457 1.55005C15.4525 1.17681 16.3764 1.17681 17.1831 1.55005L23.5806 4.51689Z" fill="black"/>
<path d="M15.8828 13.561C16.0948 13.561 16.2941 13.4525 16.4112 13.2738L18.357 10.2623C18.5468 9.96885 18.4645 9.57328 18.1735 9.38187C17.8824 9.19046 17.4932 9.2734 17.3002 9.5669L15.9461 11.666L13.7851 7.45183C13.6238 7.13919 13.2441 7.01797 12.9372 7.18067C12.6271 7.34336 12.5069 7.72618 12.6683 8.03563L15.3259 13.2196C15.4304 13.4206 15.6297 13.5514 15.8543 13.561C15.8638 13.561 15.8765 13.561 15.886 13.561H15.8828Z" fill="#2A21D9"/>
</g>
<defs>
<clipPath id="clip0_2248_589">
<rect width="31" height="43" fill="white" transform="matrix(-1 0 0 1 31 0)"/>
</clipPath>
</defs>
</svg>
