<svg viewBox="0 0 39 48" fill="none" xmlns="http://www.w3.org/2000/svg">
<g clip-path="url(#clip0_2248_288)">
<path d="M26.7436 45.1686H21.6504C21.2685 45.1686 20.9561 44.8612 20.9561 44.4779C20.9561 44.0946 21.265 43.7873 21.6504 43.7873H26.7436C27.1255 43.7873 27.438 44.0946 27.438 44.4779C27.438 44.8612 27.129 45.1686 26.7436 45.1686Z" fill="black"/>
<path d="M16.026 44.5571C15.7274 44.5571 15.4531 44.3637 15.3629 44.0668L6.48886 14.7902C6.0896 13.4711 4.88834 12.5836 3.50308 12.5836H0.694367C0.312465 12.5836 0 12.2763 0 11.8964C0 11.5165 0.308993 11.2057 0.694367 11.2057H3.50308C5.50633 11.2057 7.23878 12.4869 7.81857 14.3931L16.6926 43.6696C16.8037 44.0357 16.5954 44.419 16.2308 44.5295C16.1649 44.5502 16.0954 44.5571 16.0295 44.5571H16.026Z" fill="black"/>
<path d="M29.8092 39.4912H14.4914C14.1095 39.4912 13.7971 39.1839 13.7971 38.8006C13.7971 38.4173 14.1061 38.1099 14.4914 38.1099H29.8092C31.3784 38.1099 32.7811 37.1189 33.2949 35.6443L36.739 25.7784C36.8848 25.3606 36.8188 24.9186 36.5619 24.5594C36.305 24.2003 35.9023 23.9931 35.4613 23.9931H9.79404C9.41214 23.9931 9.10315 23.6858 9.10315 23.3025C9.10315 22.9192 9.41214 22.6118 9.79404 22.6118H35.4613C36.3605 22.6118 37.1729 23.0297 37.6937 23.7583C38.2145 24.4869 38.3429 25.3882 38.0478 26.2308L34.6038 36.0967C33.8955 38.1238 31.9687 39.4878 29.8092 39.4878V39.4912Z" fill="black"/>
<path d="M29.5905 48C27.6393 48 26.0527 46.4218 26.0527 44.4811C26.0527 42.5404 27.6393 40.9623 29.5905 40.9623C31.5416 40.9623 33.1283 42.5404 33.1283 44.4811C33.1283 46.4218 31.5416 48 29.5905 48ZM29.5905 42.3367C28.4031 42.3367 27.4379 43.2967 27.4379 44.4777C27.4379 45.6587 28.4031 46.6187 29.5905 46.6187C30.7778 46.6187 31.743 45.6587 31.743 44.4777C31.743 43.2967 30.7778 42.3367 29.5905 42.3367Z" fill="black"/>
<path d="M18.8035 48C16.8523 48 15.2657 46.4218 15.2657 44.4811C15.2657 42.5404 16.8523 40.9623 18.8035 40.9623C20.7546 40.9623 22.3413 42.5404 22.3413 44.4811C22.3413 46.4218 20.7546 48 18.8035 48ZM18.8035 42.3367C17.6161 42.3367 16.6509 43.2967 16.6509 44.4777C16.6509 45.6587 17.6161 46.6187 18.8035 46.6187C19.9908 46.6187 20.956 45.6587 20.956 44.4777C20.956 43.2967 19.9908 42.3367 18.8035 42.3367Z" fill="black"/>
<path d="M23.0599 14.1479C22.8273 14.1479 22.6086 14.0305 22.4802 13.8371L19.5221 9.33411C19.3138 9.01642 19.4041 8.58821 19.7235 8.38102C20.0429 8.17383 20.4734 8.26361 20.6817 8.58131L23.0252 12.1554L26.7193 5.89814C26.9137 5.57008 27.3372 5.45958 27.6671 5.65296C27.9969 5.84634 28.108 6.26764 27.9136 6.5957L23.6536 13.8095C23.5321 14.0167 23.3134 14.1445 23.0738 14.1514H23.0565L23.0599 14.1479Z" fill="#003CC9"/>
<path d="M23.421 19.5384C18.0049 19.5384 13.5992 15.1563 13.5992 9.76921C13.5992 4.38216 18.0049 0 23.421 0C28.8371 0 33.2428 4.38216 33.2428 9.76921C33.2428 15.1563 28.8371 19.5384 23.421 19.5384ZM23.421 1.37784C18.7687 1.37784 14.9844 5.14187 14.9844 9.76921C14.9844 14.3965 18.7687 18.1606 23.421 18.1606C28.0733 18.1606 31.8576 14.3965 31.8576 9.76921C31.8576 5.14187 28.0733 1.37784 23.421 1.37784Z" fill="#003CC9"/>
</g>
<defs>
<clipPath id="clip0_2248_288">
<rect width="38.2041" height="48" fill="white"/>
</clipPath>
</defs>
</svg>
