<svg width="34" height="48" viewBox="0 0 34 48" fill="none" xmlns="http://www.w3.org/2000/svg">
<g clip-path="url(#clip0_2248_756)">
<path d="M29.7216 48H4.27835C1.91933 48 0 46.0833 0 43.7276V4.2724C0 1.91665 1.91933 0 4.27835 0H29.7182C32.0772 0 33.9965 1.91665 33.9965 4.2724V43.7241C33.9965 46.0799 32.0772 47.9965 29.7182 47.9965L29.7216 48ZM4.27835 1.39045C2.68706 1.39045 1.39238 2.68332 1.39238 4.2724V43.7241C1.39238 45.3132 2.68706 46.6061 4.27835 46.6061H29.7182C31.3095 46.6061 32.6041 45.3132 32.6041 43.7241V4.2724C32.6041 2.68332 31.3095 1.39045 29.7182 1.39045H4.27835Z" fill="#E2E2E2"/>
<path d="M29.4913 15.8245H4.14575C3.76189 15.8245 3.44781 15.5144 3.44781 15.1276V4.53022C3.44781 4.14689 3.7584 3.83325 4.14575 3.83325H29.4913C29.8752 3.83325 30.1858 4.1434 30.1858 4.53022V15.1276C30.1858 15.5109 29.8752 15.8245 29.4913 15.8245ZM4.84369 14.4341H28.7969V5.22718H4.84369V14.4341Z" fill="#E2E2E2"/>
<path d="M10.2946 25.5264H4.14575C3.76189 25.5264 3.44781 25.2162 3.44781 24.8294V18.6892C3.44781 18.3058 3.7584 17.9922 4.14575 17.9922H10.2946C10.6784 17.9922 10.9925 18.3023 10.9925 18.6892V24.8294C10.9925 25.2127 10.6819 25.5264 10.2946 25.5264ZM4.84369 24.1359H9.60013V19.3861H4.84369V24.1359Z" fill="#E2E2E2"/>
<path d="M19.8947 25.5264H13.7459C13.362 25.5264 13.0479 25.2162 13.0479 24.8294V18.6892C13.0479 18.3058 13.3585 17.9922 13.7459 17.9922H19.8947C20.2786 17.9922 20.5926 18.3023 20.5926 18.6892V24.8294C20.5926 25.2127 20.282 25.5264 19.8947 25.5264ZM14.4403 24.1359H19.1968V19.3861H14.4403V24.1359Z" fill="#E2E2E2"/>
<path d="M10.2946 35.2316H4.14575C3.76189 35.2316 3.44781 34.9214 3.44781 34.5346V28.3944C3.44781 28.011 3.7584 27.6974 4.14575 27.6974H10.2946C10.6784 27.6974 10.9925 28.0075 10.9925 28.3944V34.5346C10.9925 34.9179 10.6819 35.2316 10.2946 35.2316ZM4.84369 33.8411H9.60013V29.0913H4.84369V33.8411Z" fill="#E2E2E2"/>
<path d="M19.8947 35.2316H13.7459C13.362 35.2316 13.0479 34.9214 13.0479 34.5346V28.3944C13.0479 28.011 13.3585 27.6974 13.7459 27.6974H19.8947C20.2786 27.6974 20.5926 28.0075 20.5926 28.3944V34.5346C20.5926 34.9179 20.282 35.2316 19.8947 35.2316ZM14.4403 33.8411H19.1968V29.0913H14.4403V33.8411Z" fill="#E2E2E2"/>
<path d="M10.2946 44.9334H4.14575C3.76189 44.9334 3.44781 44.6232 3.44781 44.2364V38.0961C3.44781 37.7128 3.7584 37.3992 4.14575 37.3992H10.2946C10.6784 37.3992 10.9925 37.7093 10.9925 38.0961V44.2364C10.9925 44.6197 10.6819 44.9334 10.2946 44.9334ZM4.84369 43.5429H9.60013V38.7931H4.84369V43.5429Z" fill="#E2E2E2"/>
<path d="M19.8947 44.9334H13.7459C13.362 44.9334 13.0479 44.6232 13.0479 44.2364V38.0961C13.0479 37.7128 13.3585 37.3992 13.7459 37.3992H19.8947C20.2786 37.3992 20.5926 37.7093 20.5926 38.0961V44.2364C20.5926 44.6197 20.282 44.9334 19.8947 44.9334ZM14.4403 43.5429H19.1968V38.7931H14.4403V43.5429Z" fill="#E2E2E2"/>
<path d="M29.4913 25.5264H23.3425C22.9586 25.5264 22.6446 25.2162 22.6446 24.8294V18.6892C22.6446 18.3058 22.9551 17.9922 23.3425 17.9922H29.4913C29.8752 17.9922 30.1858 18.3023 30.1858 18.6892V24.8294C30.1858 25.2127 29.8752 25.5264 29.4913 25.5264ZM24.0404 24.1359H28.7969V19.3861H24.0404V24.1359Z" fill="#E2E2E2"/>
<path d="M29.4913 44.9334H23.3425C22.9586 44.9334 22.6446 44.6233 22.6446 44.2364V28.3909C22.6446 28.0076 22.9551 27.694 23.3425 27.694H29.4913C29.8752 27.694 30.1858 28.0041 30.1858 28.3909V44.2364C30.1858 44.6198 29.8752 44.9334 29.4913 44.9334ZM24.0404 43.543H28.7969V29.0879H24.0404V43.543Z" fill="#78C9FF"/>
</g>
<defs>
<clipPath id="clip0_2248_756">
<rect width="34" height="48" fill="white"/>
</clipPath>
</defs>
</svg>
