<svg viewBox="0 0 222 259" fill="none" xmlns="http://www.w3.org/2000/svg">
<g filter="url(#filter0_b_3001_3)">
<rect width="222" height="259" rx="20" fill="white" fill-opacity="0.6"/>
</g>
<path d="M193.4 174.3H28.5001C23.419 174.3 19.3 178.419 19.3 183.5V230C19.3 235.081 23.419 239.2 28.5001 239.2H193.4C198.481 239.2 202.6 235.081 202.6 230V183.5C202.6 178.419 198.481 174.3 193.4 174.3Z" fill="white"/>
<path d="M39.0001 18.7998H23.5001C21.1805 18.7998 19.3 20.6802 19.3 22.9998V38.4998C19.3 40.8194 21.1805 42.6998 23.5001 42.6998H39.0001C41.3196 42.6998 43.2001 40.8194 43.2001 38.4998V22.9998C43.2001 20.6802 41.3196 18.7998 39.0001 18.7998Z" fill="white"/>
<path d="M30.2 33.3996V32.8996C30.3 32.8996 30.4 32.8996 30.5 32.8996C30.7 32.8996 30.9 32.6996 31 32.4996C31.1 32.2996 31.2 32.0996 31.2 31.7996C31.2 31.4996 31.2 31.2996 31 31.0996C30.9 30.8996 30.8 30.7996 30.6 30.7996C30.4 30.7996 30.2 30.6996 30 30.5996C29.8 30.5996 29.7 30.5996 29.6 30.5996C29.6 30.5996 29.4 30.5996 29.4 30.3996C29.4 30.1996 29.4 30.1996 29.4 30.0996C29.4 29.9996 29.4 29.7996 29.6 29.7996C29.7 29.7996 29.9 29.6996 30.1 29.6996C30.3 29.6996 30.4 29.6996 30.5 29.6996C30.7 29.6996 30.8 29.7996 30.9 29.9996L31.2 29.3996C31.1 29.3996 31 29.1996 30.8 29.1996C30.7 29.1996 30.5 29.0996 30.4 29.0996C30.4 29.0996 30.4 29.0996 30.3 29.0996V28.5996H29.5V29.0996C29.4 29.0996 29.3 29.0996 29.2 29.0996C29 29.0996 28.8 29.2996 28.7 29.4996C28.6 29.6996 28.5 29.8996 28.5 30.1996C28.5 30.4996 28.5 30.6996 28.7 30.8996C28.9 31.0996 29 31.1996 29.1 31.1996C29.3 31.1996 29.5 31.2996 29.7 31.3996C29.8 31.3996 29.9 31.3996 30 31.3996C30 31.3996 30.2 31.3996 30.2 31.4996C30.2 31.4996 30.2 31.5996 30.2 31.7996C30.2 31.9996 30.2 32.0996 30 32.1996C29.9 32.1996 29.7 32.2996 29.5 32.2996C29.3 32.2996 29.1 32.2996 28.9 32.1996C28.7 32.0996 28.6 31.9996 28.4 31.8996L28 32.4996C28 32.4996 28.2 32.6996 28.3 32.6996C28.5 32.6996 28.6 32.7996 28.8 32.8996C28.8 32.8996 29 32.8996 29.1 32.8996V33.3996H29.9H30.2Z" fill="#878787"/>
<path d="M37.4 28.5992C37.2 28.3992 36.9 28.3992 36.6 28.5992C36.4 28.7992 36.4 29.0992 36.6 29.2992L37.2 29.8992H33.4C33.1 29.8992 32.8 30.1992 32.8 30.4992C32.8 30.7992 33.1 31.0992 33.4 31.0992H37.3L36.6 31.7992C36.4 31.9992 36.4 32.2992 36.6 32.3992C36.8 32.6992 37.2 32.5992 37.4 32.3992L38.9 30.7992C39.1 30.5992 39.1 30.3992 38.9 30.1992L37.4 28.5992Z" fill="#878787"/>
<path d="M34.7999 32.2998H33.4999C33.1999 32.2998 32.8999 32.5998 32.8999 32.8998C32.8999 33.1998 33.1999 33.4998 33.4999 33.4998H34.7999C35.0999 33.4998 35.3999 33.1998 35.3999 32.8998C35.3999 32.5998 35.0999 32.2998 34.7999 32.2998Z" fill="#878787"/>
<path d="M34.3 34.4994H27.5C26.7 34.4994 26.1 33.8994 26.1 33.0994V28.7994C26.1 27.9994 26.7 27.3994 27.5 27.3994H35.8C36.1 27.3994 36.3 27.1994 36.3 26.8994C36.3 26.5994 36.1 26.3994 35.8 26.3994H27.5C26.1 26.3994 25 27.4994 25 28.8994V33.1994C25 34.5994 26.1 35.6994 27.5 35.6994H34.3C34.6 35.6994 34.8 35.4994 34.8 35.1994C34.8 34.8994 34.6 34.6994 34.3 34.6994V34.4994Z" fill="#878787"/>
<path d="M70.5999 18.7998H55.0999C52.7803 18.7998 50.8999 20.6802 50.8999 22.9998V38.4998C50.8999 40.8194 52.7803 42.6998 55.0999 42.6998H70.5999C72.9195 42.6998 74.7999 40.8194 74.7999 38.4998V22.9998C74.7999 20.6802 72.9195 18.7998 70.5999 18.7998Z" fill="white"/>
<path d="M66.5999 25.3994H59.1999C58.5999 25.3994 58.0999 25.8994 58.0999 26.4994V35.5994C58.0999 36.1994 58.5999 36.6994 59.1999 36.6994H66.5999C67.1999 36.6994 67.6999 36.1994 67.6999 35.5994V26.4994C67.6999 25.8994 67.1999 25.3994 66.5999 25.3994ZM66.7999 35.3994C66.7999 35.5994 66.6999 35.6994 66.4999 35.6994H65.7999C65.7999 35.3994 65.4999 35.0994 65.1999 35.0994C64.8999 35.0994 64.5999 35.3994 64.5999 35.6994H63.8999C63.8999 35.3994 63.5999 35.0994 63.2999 35.0994C62.9999 35.0994 62.6999 35.3994 62.6999 35.6994H61.8999C61.8999 35.3994 61.5999 35.0994 61.2999 35.0994C60.9999 35.0994 60.6999 35.3994 60.6999 35.6994H59.6999C59.4999 35.6994 59.2999 35.4994 59.2999 35.2994V26.6994C59.2999 26.4994 59.4999 26.3994 59.5999 26.3994H60.3999C60.3999 26.6994 60.6999 26.9994 60.9999 26.9994C61.2999 26.9994 61.5999 26.6994 61.5999 26.3994H62.3999C62.3999 26.6994 62.6999 26.9994 62.9999 26.9994C63.2999 26.9994 63.5999 26.6994 63.5999 26.3994H64.2999C64.2999 26.6994 64.5999 26.9994 64.8999 26.9994C65.1999 26.9994 65.4999 26.6994 65.4999 26.3994H66.4999C66.5999 26.3994 66.6999 26.4994 66.6999 26.5994V35.3994H66.7999Z" fill="#878787"/>
<path d="M65.5998 29.8996H65.1998C64.9998 29.8996 64.7998 29.6996 64.7998 29.4996C64.7998 29.2996 64.9998 29.0996 65.1998 29.0996H65.5998C65.7998 29.0996 65.9998 29.2996 65.9998 29.4996C65.9998 29.6996 65.7998 29.8996 65.5998 29.8996Z" fill="#878787"/>
<path d="M65.5997 31.4992H64.8997C64.6997 31.4992 64.4998 31.2992 64.4998 31.0992C64.4998 30.8992 64.6997 30.6992 64.8997 30.6992H65.5997C65.7997 30.6992 65.9998 30.8992 65.9998 31.0992C65.9998 31.2992 65.7997 31.4992 65.5997 31.4992Z" fill="#878787"/>
<path d="M65.5998 32.9992H65.1998C64.9998 32.9992 64.7998 32.7992 64.7998 32.5992C64.7998 32.3992 64.9998 32.1992 65.1998 32.1992H65.5998C65.7998 32.1992 65.9998 32.3992 65.9998 32.5992C65.9998 32.7992 65.7998 32.9992 65.5998 32.9992Z" fill="#878787"/>
<path d="M62.3999 29.8996H60.4999C60.2999 29.8996 60.0999 29.6996 60.0999 29.4996C60.0999 29.2996 60.2999 29.0996 60.4999 29.0996H62.3999C62.5999 29.0996 62.7999 29.2996 62.7999 29.4996C62.7999 29.6996 62.5999 29.8996 62.3999 29.8996Z" fill="#878787"/>
<path d="M62.8997 31.4992H60.3997C60.1997 31.4992 59.9998 31.2992 59.9998 31.0992C59.9998 30.8992 60.1997 30.6992 60.3997 30.6992H62.8997C63.0997 30.6992 63.2998 30.8992 63.2998 31.0992C63.2998 31.2992 63.0997 31.4992 62.8997 31.4992Z" fill="#878787"/>
<path d="M62.3999 32.9992H60.4999C60.2999 32.9992 60.0999 32.7992 60.0999 32.5992C60.0999 32.3992 60.2999 32.1992 60.4999 32.1992H62.3999C62.5999 32.1992 62.7999 32.3992 62.7999 32.5992C62.7999 32.7992 62.5999 32.9992 62.3999 32.9992Z" fill="#878787"/>
<g opacity="0.5">
<path d="M101.3 18.7998H85.8001C83.4805 18.7998 81.6001 20.6802 81.6001 22.9998V38.4998C81.6001 40.8194 83.4805 42.6998 85.8001 42.6998H101.3C103.62 42.6998 105.5 40.8194 105.5 38.4998V22.9998C105.5 20.6802 103.62 18.7998 101.3 18.7998Z" fill="white"/>
<path d="M98.4 26.0996H89.9C88.8 26.0996 88 26.9996 88 27.9996V34.3996C88 35.4996 88.9 36.2996 89.9 36.2996H98.4C99.5 36.2996 100.3 35.3996 100.3 34.3996V27.9996C100.3 26.8996 99.4 26.0996 98.4 26.0996ZM99.3 34.3996C99.3 34.8996 98.9 35.2996 98.4 35.2996H89.9C89.4 35.2996 89 34.8996 89 34.3996V29.4996H94.9C95.2 29.4996 95.5 29.1996 95.5 28.8996C95.5 28.5996 95.2 28.2996 94.9 28.2996H89V27.9996C89 27.4996 89.4 27.0996 89.9 27.0996H98.4C98.9 27.0996 99.3 27.4996 99.3 27.9996V34.3996Z" fill="#9B9B9B"/>
</g>
<path d="M192.9 53.5H29.0001C23.6429 53.5 19.3 57.8429 19.3 63.2V152.9C19.3 158.257 23.6429 162.6 29.0001 162.6H192.9C198.257 162.6 202.6 158.257 202.6 152.9V63.2C202.6 57.8429 198.257 53.5 192.9 53.5Z" fill="#44B4FF"/>
<path d="M53.7 71.0996H42C39.4 71.0996 37.1 72.7996 36.3 75.0996C36.1 75.4996 36 75.9996 36 76.4996C36 76.6996 36 76.8996 36 77.1996V87.7996C36 87.9996 36 88.2996 36 88.4996C36 88.9996 36.2 89.4996 36.3 89.8996C37.2 92.1996 39.4 93.8996 42 93.8996H53.7C56.5 93.8996 58.8 91.9996 59.5 89.4996C59.6 89.0996 59.7 88.5996 59.7 88.0996C59.7 87.9996 59.7 87.8996 59.7 87.7996V77.1996C59.7 73.7996 57 71.0996 53.6 71.0996H53.7Z" fill="url(#paint0_linear_3001_3)"/>
<g opacity="0.4">
<path d="M52.5001 80.5992H59.8001V79.1992H51.9001H51.1001V93.9992H52.5001V89.5992H59.6001C59.7001 89.1992 59.8001 88.6992 59.8001 88.1992H52.5001V84.7992H59.8001V83.3992H52.5001V80.5992Z" fill="#C6934F"/>
<path d="M44.7 71.0996V75.0996H36.3C36.1 75.4996 36 75.9996 36 76.4996H44.7V79.4996H36V80.8996H44.7V83.6996H36V85.0996H44.7V88.4996H36C36 88.9996 36.2 89.4996 36.3 89.8996H44.6V93.8996H46V71.0996H44.6H44.7Z" fill="#C6934F"/>
</g>
<path d="M38.1001 139H39.1001V142.6C39.1001 143.6 38.5002 144.2 37.5002 144.2C36.5002 144.2 35.9001 143.6 35.9001 142.6H36.9001C36.9001 143 37.1002 143.3 37.5002 143.3C37.9002 143.3 38.1001 143 38.1001 142.6V139Z" fill="#F7F7F7"/>
<path d="M42.2001 144.2C41.0001 144.2 40.1001 143.4 40.1001 142.1C40.1001 140.8 41.0001 140 42.2001 140C43.4001 140 44.3001 140.8 44.3001 142.1C44.3001 143.4 43.4001 144.2 42.2001 144.2ZM42.2001 143.3C42.7001 143.3 43.3001 142.9 43.3001 142.1C43.3001 141.3 42.8001 140.9 42.3001 140.9C41.8001 140.9 41.3001 141.3 41.3001 142.1C41.3001 142.9 41.8001 143.3 42.3001 143.3H42.2001Z" fill="#F7F7F7"/>
<path d="M45.2002 138.7H46.2002V140.6C46.5002 140.3 46.9002 140 47.5002 140C48.4002 140 49.1002 140.6 49.1002 141.7V144.1H48.1002V141.9C48.1002 141.3 47.7002 140.9 47.2002 140.9C46.7002 140.9 46.3002 141.3 46.3002 141.9V144.1H45.3002V138.7H45.2002Z" fill="#F7F7F7"/>
<path d="M52.9001 141.9C52.9001 141.3 52.5001 140.9 52.0001 140.9C51.5001 140.9 51.1001 141.3 51.1001 141.9V144.1H50.1001V140.1H51.1001V140.6C51.4001 140.3 51.8001 140 52.3001 140C53.2001 140 53.9001 140.6 53.9001 141.7V144.1H52.9001V141.9Z" fill="#F7F7F7"/>
<path d="M61.3 141.6C61.3 143.1 60.2 144.1 58.6 144.1H56.8V139H58.6C60.2 139 61.3 140 61.3 141.6ZM58.6 143.2C59.7 143.2 60.3 142.6 60.3 141.5C60.3 140.4 59.7 139.8 58.6 139.8H57.9V143.2H58.6Z" fill="#F7F7F7"/>
<path d="M64.0002 144.2C62.8002 144.2 61.9001 143.4 61.9001 142.1C61.9001 140.8 62.8002 140 64.0002 140C65.2002 140 66.1001 140.8 66.1001 142.1C66.1001 143.4 65.2002 144.2 64.0002 144.2ZM64.0002 143.3C64.5002 143.3 65.1001 142.9 65.1001 142.1C65.1001 141.3 64.6001 140.9 64.1001 140.9C63.6001 140.9 63.1001 141.3 63.1001 142.1C63.1001 142.9 63.6001 143.3 64.1001 143.3H64.0002Z" fill="#F7F7F7"/>
<path d="M68.7002 144.2C67.5002 144.2 66.7002 143.4 66.7002 142.1C66.7002 140.8 67.5002 140 68.7002 140C69.9002 140 70.7002 140.8 70.7002 142C70.7002 143.2 70.7002 142.3 70.7002 142.4H67.7002C67.7002 143 68.2002 143.3 68.7002 143.3C69.2002 143.3 69.4002 143.1 69.5002 142.8H70.6002C70.4002 143.5 69.7002 144.1 68.7002 144.1V144.2ZM67.7002 141.7H69.6002C69.6002 141.2 69.2002 140.8 68.6002 140.8C68.0002 140.8 67.7002 141.1 67.6002 141.7H67.7002Z" fill="#F7F7F7"/>
<path d="M36.4001 114.4V112.6C37.2001 112.6 38.5002 112.4 38.5002 110.9H40.5002V120.5H38.5002V113.6C38.5002 113.3 38.5001 112.9 38.6001 112.6C38.6001 112.9 38.5002 113.3 38.3002 113.6C37.9002 114.2 37.1001 114.3 36.4001 114.3V114.4Z" fill="#F8F8F8"/>
<path d="M49.6001 118.8V120.6H41.6001V120.3C41.6001 115.5 47.5001 115.7 47.5001 114C47.5001 112.3 46.6001 112.6 45.7001 112.6C44.8001 112.6 43.8001 113.2 43.8001 114.3H41.8001C41.9001 111.8 43.2001 110.8 45.8001 110.8C48.4001 110.8 49.6001 111.7 49.6001 113.6C49.6001 115.5 48.8001 115.7 47.8001 116.3C47.1001 116.6 46.6001 116.9 46.1001 117.2C45.9001 117.3 45.5001 117.6 45.0001 117.9C44.5001 118.2 44.1001 118.5 43.9001 118.8C44.5001 118.8 45.0001 118.8 45.5001 118.8H49.6001Z" fill="#F8F8F8"/>
<path d="M55.0002 114.7C55.3002 114.7 55.6002 114.7 55.8002 114.7C56.3002 114.7 57.2002 114.7 58.0002 115.3C58.8002 115.9 59.4002 116.6 59.4002 117.7C59.4002 119.9 57.3002 120.8 55.1002 120.8C52.9002 120.8 50.7002 119.4 50.7002 116.4C50.7002 113.4 52.2002 111 55.3002 111C58.4002 111 59.2002 112.7 59.3002 114H57.2002C57.0002 113.5 56.6002 112.7 55.4002 112.7C54.2002 112.7 52.9002 113.5 52.7002 115.9C52.7002 116.2 52.7002 116.6 52.5002 116.9C52.5002 116.6 52.7002 116.2 52.9002 115.9C53.3002 115.2 54.3002 114.8 55.0002 114.7ZM57.4002 117.5C57.4002 116.6 56.7002 115.9 55.2002 115.9C54.1002 115.9 52.9002 116.5 52.9002 117.5C52.9002 118.5 53.8002 119.1 55.2002 119.1C56.6002 119.1 57.5002 118.5 57.5002 117.5H57.4002Z" fill="#F8F8F8"/>
<path d="M60.5002 112.8V111H68.9002V112.2L64.0002 120.7H61.7002L66.0002 113.3C66.2002 113 66.5002 112.8 66.7002 112.6C66.4002 112.7 66.1002 112.8 65.7002 112.8H60.5002Z" fill="#F8F8F8"/>
<path d="M80.3001 116.8C79.9001 117 79.5001 117.2 79.2001 117.2C78.9001 117.2 78.7001 117.2 78.5001 117.2C77.8001 117.2 76.9001 117 76.0001 116.4C75.2001 115.8 74.6001 115 74.6001 113.9C74.6001 111.6 76.7001 110.8 79.1001 110.8C81.5001 110.8 83.4001 112 83.4001 115.2C83.4001 118.4 81.9001 120.6 78.6001 120.6C75.3001 120.6 74.7001 119.3 74.6001 117.8H76.7001C76.9001 118.6 77.5001 118.9 78.8001 118.9C80.0001 118.9 81.1001 117.6 81.3001 115.8C81.3001 115.5 81.4001 115.1 81.5001 114.8C81.5001 115.1 81.3001 115.5 81.2001 115.8C81.0001 116.2 80.6001 116.6 80.2001 116.8H80.3001ZM81.5001 114C81.5001 113.3 80.7001 112.3 79.3001 112.3C77.9001 112.3 76.8001 112.7 76.8001 114C76.8001 115.3 78.1001 115.7 79.3001 115.7C80.5001 115.7 81.5001 114.9 81.5001 114Z" fill="#F8F8F8"/>
<path d="M90.2002 116.8C89.8002 117 89.4002 117.2 89.1002 117.2C88.8002 117.2 88.6002 117.2 88.4002 117.2C87.7002 117.2 86.8002 117 85.9002 116.4C85.1002 115.8 84.5002 115 84.5002 113.9C84.5002 111.6 86.6002 110.8 89.0002 110.8C91.4002 110.8 93.3002 112 93.3002 115.2C93.3002 118.4 91.8002 120.6 88.5002 120.6C85.2002 120.6 84.6002 119.3 84.5002 117.8H86.6002C86.8002 118.6 87.4002 118.9 88.7002 118.9C89.9002 118.9 91.0002 117.6 91.2002 115.8C91.2002 115.5 91.3002 115.1 91.4002 114.8C91.4002 115.1 91.2002 115.5 91.1002 115.8C90.9002 116.2 90.5002 116.6 90.1002 116.8H90.2002ZM91.4002 114C91.4002 113.3 90.6002 112.3 89.2002 112.3C87.8002 112.3 86.7002 112.7 86.7002 114C86.7002 115.3 88.0002 115.7 89.2002 115.7C90.4002 115.7 91.4002 114.9 91.4002 114Z" fill="#F8F8F8"/>
<path d="M103.3 117.8C103.3 119.7 101.4 120.6 98.9002 120.6C96.4002 120.6 94.5002 119.7 94.5002 117.8C94.5002 115.9 95.1002 116.1 96.0002 115.6C96.3002 115.5 96.7002 115.4 97.0002 115.4C96.7002 115.4 96.3002 115.4 96.0002 115.1C95.4002 114.7 95.0002 114.1 95.0002 113.3C95.0002 111.6 96.7002 110.7 98.9002 110.7C101.1 110.7 102.8 111.6 102.8 113.3C102.8 115 102.4 114.7 101.7 115.1C101.4 115.3 101 115.3 100.7 115.3H100.9C101.1 115.3 101.5 115.3 101.7 115.5C102.7 115.9 103.2 116.6 103.2 117.6L103.3 117.8ZM101.3 117.6C101.3 116.5 100.2 116.2 98.9002 116.2H98.7002C97.6002 116.2 96.5002 116.5 96.5002 117.6C96.5002 118.7 97.5002 119.1 98.9002 119.1C100.3 119.1 101.3 118.7 101.3 117.6ZM96.9002 113.7C96.9002 114.7 97.7002 115 98.9002 115C100.1 115 100.9 114.6 100.9 113.7C100.9 112.8 100 112.3 98.9002 112.3C97.8002 112.3 96.9002 112.6 96.9002 113.7Z" fill="#F8F8F8"/>
<path d="M112.4 118.8V120.6H104.4V120.3C104.4 115.5 110.3 115.7 110.3 114C110.3 112.3 109.4 112.6 108.5 112.6C107.6 112.6 106.6 113.2 106.6 114.3H104.6C104.7 111.8 106 110.8 108.6 110.8C111.2 110.8 112.4 111.7 112.4 113.6C112.4 115.5 111.6 115.7 110.6 116.3C109.9 116.6 109.4 116.9 108.9 117.2C108.7 117.3 108.3 117.6 107.8 117.9C107.3 118.2 106.9 118.5 106.7 118.8C107.3 118.8 107.8 118.8 108.3 118.8H112.4Z" fill="#F8F8F8"/>
<path d="M122.3 111.6L121 113.3L123.1 113.1V114L121 113.8L122.3 115.5L121.4 116L120.6 114.1L119.7 116L118.9 115.5L120.2 113.8L118.2 114V113.1L120.2 113.4L118.9 111.7L119.7 111.2L120.6 113.1L121.4 111.2L122.2 111.7L122.3 111.6Z" fill="#F8F8F8"/>
<path d="M128.3 111.6L127 113.3L129.1 113.1V114L127 113.8L128.3 115.5L127.4 116L126.6 114.1L125.7 116L124.9 115.5L126.2 113.8L124.2 114V113.1L126.2 113.4L124.9 111.7L125.7 111.2L126.6 113.1L127.4 111.2L128.2 111.7L128.3 111.6Z" fill="#F8F8F8"/>
<path d="M134.3 111.6L133 113.3L135.1 113.1V114L133 113.8L134.3 115.5L133.4 116L132.6 114.1L131.7 116L130.9 115.5L132.2 113.8L130.2 114V113.1L132.2 113.4L130.9 111.7L131.7 111.2L132.6 113.1L133.4 111.2L134.2 111.7L134.3 111.6Z" fill="#F8F8F8"/>
<path d="M140.3 111.6L139 113.3L141.1 113.1V114L139 113.8L140.3 115.5L139.4 116L138.6 114.1L137.7 116L136.9 115.5L138.2 113.8L136.2 114V113.1L138.2 113.4L136.9 111.7L137.7 111.2L138.6 113.1L139.4 111.2L140.2 111.7L140.3 111.6Z" fill="#F8F8F8"/>
<path d="M149.5 111.6L148.2 113.3L150.3 113.1V114L148.2 113.8L149.5 115.5L148.6 116L147.8 114.1L146.9 116L146.1 115.5L147.4 113.8L145.4 114V113.1L147.4 113.4L146.1 111.7L146.9 111.2L147.8 113.1L148.6 111.2L149.4 111.7L149.5 111.6Z" fill="#F8F8F8"/>
<path d="M155.5 111.6L154.2 113.3L156.3 113.1V114L154.2 113.8L155.5 115.5L154.6 116L153.8 114.1L152.9 116L152.1 115.5L153.4 113.8L151.4 114V113.1L153.4 113.4L152.1 111.7L152.9 111.2L153.8 113.1L154.6 111.2L155.4 111.7L155.5 111.6Z" fill="#F8F8F8"/>
<path d="M161.5 111.6L160.2 113.3L162.3 113.1V114L160.2 113.8L161.5 115.5L160.6 116L159.8 114.1L158.9 116L158.1 115.5L159.4 113.8L157.4 114V113.1L159.4 113.4L158.1 111.7L158.9 111.2L159.8 113.1L160.6 111.2L161.4 111.7L161.5 111.6Z" fill="#F8F8F8"/>
<path d="M167.5 111.6L166.2 113.3L168.3 113.1V114L166.2 113.8L167.5 115.5L166.6 116L165.8 114.1L164.9 116L164.1 115.5L165.4 113.8L163.4 114V113.1L165.4 113.4L164.1 111.7L164.9 111.2L165.8 113.1L166.6 111.2L167.4 111.7L167.5 111.6Z" fill="#F8F8F8"/>
<path d="M167.8 63.7002H158.2C156.764 63.7002 155.6 64.8642 155.6 66.3002V75.9002C155.6 77.3361 156.764 78.5002 158.2 78.5002H167.8C169.236 78.5002 170.4 77.3361 170.4 75.9002V66.3002C170.4 64.8642 169.236 63.7002 167.8 63.7002Z" stroke="white" stroke-width="0.5" stroke-miterlimit="10"/>
<path d="M163.1 67.7002V74.6002" stroke="white" stroke-width="0.5" stroke-miterlimit="10"/>
<path d="M166.5 71.1006H159.6" stroke="white" stroke-width="0.5" stroke-miterlimit="10"/>
<path d="M189.1 63.7002H179.5C178.064 63.7002 176.9 64.8642 176.9 66.3002V75.9002C176.9 77.3361 178.064 78.5002 179.5 78.5002H189.1C190.536 78.5002 191.7 77.3361 191.7 75.9002V66.3002C191.7 64.8642 190.536 63.7002 189.1 63.7002Z" stroke="white" stroke-width="0.5" stroke-miterlimit="10"/>
<path d="M186.8 68.7002L181.9 73.6002" stroke="white" stroke-width="0.5" stroke-miterlimit="10"/>
<path d="M186.8 73.6002L181.9 68.7002" stroke="white" stroke-width="0.5" stroke-miterlimit="10"/>
<path d="M42.9 185L40.6 192H39.2L37.5 186.8L35.7 192H34.3L32 185H33.4L35.1 190.3L36.9 185H38.1L39.9 190.3L41.7 185H42.9Z" fill="black"/>
<path d="M44 185.6C43.8 185.5 43.8 185.3 43.8 185.1C43.8 184.9 43.8 184.7 44 184.6C44.2 184.5 44.3 184.4 44.6 184.4C44.9 184.4 45 184.4 45.2 184.6C45.4 184.8 45.4 184.9 45.4 185.1C45.4 185.3 45.4 185.5 45.2 185.7C45.1 185.9 44.9 185.9 44.6 185.9C44.3 185.9 44.2 185.9 44 185.7V185.6ZM43.9 186.7H45.1V192H43.9V186.7Z" fill="black"/>
<path d="M50 191.7C49.9 191.8 49.7 191.9 49.5 192C49.3 192 49.1 192 48.8 192C48.2 192 47.8 191.8 47.4 191.5C47.1 191.2 46.9 190.7 46.9 190.2V187.6H46V186.6H46.9V185.4H48.1V186.6H49.5V187.6H48.1V190.1C48.1 190.4 48.1 190.6 48.3 190.7C48.4 190.8 48.6 190.9 48.8 190.9C49 190.9 49.3 190.9 49.5 190.7L49.8 191.6L50 191.7Z" fill="black"/>
<path d="M55.7 187.201C56.1 187.601 56.3 188.201 56.3 189.001V192.101H55.0999V189.201C55.0999 188.701 55 188.401 54.8 188.101C54.6 187.801 54.2999 187.701 53.8999 187.701C53.4999 187.701 53.1 187.801 52.8 188.101C52.5 188.401 52.3999 188.801 52.3999 189.301V192.001H51.2V184.601H52.3999V187.301C52.5999 187.101 52.9 186.901 53.2 186.801C53.5 186.701 53.8 186.601 54.2 186.601C54.9 186.601 55.4 186.801 55.8 187.201H55.7Z" fill="black"/>
<path d="M63.1999 184.601V192.001H61.9999V191.301C61.7999 191.601 61.4999 191.701 61.1999 191.901C60.8999 192.001 60.5999 192.101 60.1999 192.101C59.7999 192.101 59.1999 192.001 58.7999 191.801C58.3999 191.601 58.0999 191.301 57.7999 190.801C57.5999 190.401 57.3999 189.901 57.3999 189.401C57.3999 188.901 57.4999 188.401 57.7999 188.001C57.9999 187.601 58.3999 187.301 58.7999 187.001C59.1999 186.701 59.6999 186.701 60.1999 186.701C60.6999 186.701 60.8999 186.701 61.1999 186.901C61.4999 187.001 61.6999 187.201 61.9999 187.401V184.701H63.1999V184.601ZM61.1999 190.801C61.3999 190.701 61.5999 190.501 61.7999 190.201C61.8999 189.901 61.9999 189.701 61.9999 189.301C61.9999 188.901 61.9999 188.701 61.7999 188.401C61.6999 188.101 61.4999 188.001 61.1999 187.801C60.8999 187.601 60.6999 187.601 60.3999 187.601C60.0999 187.601 59.7999 187.601 59.5999 187.801C59.3999 188.001 59.1999 188.101 58.9999 188.401C58.8999 188.701 58.7999 188.901 58.7999 189.301C58.7999 189.701 58.7999 189.901 58.9999 190.201C59.0999 190.501 59.2999 190.601 59.5999 190.801C59.8999 191.001 60.0999 191.001 60.3999 191.001C60.6999 191.001 60.9999 191.001 61.1999 190.801Z" fill="black"/>
<path d="M67.8999 186.601V187.801C67.7999 187.801 67.6999 187.801 67.5999 187.801C67.0999 187.801 66.6999 187.901 66.4999 188.201C66.1999 188.501 66.0999 188.901 66.0999 189.401V192.001H64.8999V186.701H66.0999V187.501C66.4999 186.901 67.0999 186.701 67.9999 186.701L67.8999 186.601Z" fill="black"/>
<path d="M72.8001 187.2C73.2001 187.6 73.4001 188.1 73.4001 188.9V192H72.2001V191.3C72.0001 191.5 71.8001 191.7 71.5001 191.8C71.2001 191.9 70.9001 192 70.5001 192C70.1001 192 69.7001 192 69.5001 191.8C69.3001 191.6 69.0001 191.5 68.8001 191.2C68.6001 191 68.6001 190.7 68.6001 190.4C68.6001 189.9 68.8001 189.5 69.1001 189.2C69.5001 188.9 70.0001 188.8 70.8001 188.8H72.2001C72.2001 188.3 72.1001 188.1 71.9001 187.9C71.7001 187.7 71.3001 187.6 70.9001 187.6C70.5001 187.6 70.3001 187.6 70.0001 187.7C69.7001 187.7 69.5001 187.9 69.3001 188.1L68.8001 187.2C69.1001 187 69.4001 186.8 69.8001 186.7C70.2001 186.6 70.6001 186.5 71.0001 186.5C71.8001 186.5 72.4001 186.7 72.8001 187.1V187.2ZM71.7001 191C71.9001 190.9 72.1001 190.7 72.2001 190.4V189.8H70.9001C70.2001 189.8 69.8001 190 69.8001 190.5C69.8001 191 69.8001 190.9 70.1001 191C70.3001 191.1 70.5001 191.2 70.9001 191.2C71.3001 191.2 71.5001 191.2 71.7001 191Z" fill="black"/>
<path d="M83.3001 186.7L81.3001 192H80.1001L78.7001 188.3L77.3001 192H76.1001L74.1001 186.7H75.3001L76.7001 190.6L78.2001 186.7H79.3001L80.7001 190.7L82.2001 186.7H83.3001Z" fill="black"/>
<path d="M84.3999 191.9C83.9999 191.8 83.6999 191.6 83.3999 191.5L83.8999 190.5C84.0999 190.7 84.3999 190.8 84.7999 190.9C85.0999 190.9 85.4999 191 85.7999 191C86.4999 191 86.8999 190.8 86.8999 190.4C86.8999 190 86.8999 190.1 86.5999 190C86.3999 190 86.0999 189.9 85.6999 189.8C85.2999 189.8 84.8999 189.7 84.5999 189.6C84.2999 189.6 84.0999 189.4 83.8999 189.1C83.6999 188.8 83.5999 188.6 83.5999 188.2C83.5999 187.8 83.7999 187.3 84.1999 187C84.5999 186.7 85.1999 186.5 85.8999 186.5C86.5999 186.5 86.5999 186.5 86.9999 186.6C87.3999 186.6 87.6999 186.8 87.8999 186.9L87.3999 187.9C86.8999 187.6 86.3999 187.5 85.8999 187.5C85.3999 187.5 85.2999 187.5 85.0999 187.7C84.8999 187.8 84.7999 188 84.7999 188.1C84.7999 188.2 84.8999 188.4 85.0999 188.5C85.2999 188.5 85.5999 188.7 85.9999 188.7C86.3999 188.7 86.7999 188.8 86.9999 188.9C87.2999 188.9 87.4999 189.1 87.6999 189.3C87.8999 189.5 87.9999 189.8 87.9999 190.2C87.9999 190.6 87.7999 191.1 87.3999 191.4C86.9999 191.7 86.3999 191.9 85.5999 191.9C84.7999 191.9 84.6999 191.9 84.2999 191.7L84.3999 191.9Z" fill="black"/>
<path d="M189.9 203.5H32.1C29.7252 203.5 27.8 205.425 27.8 207.8V225.5C27.8 227.875 29.7252 229.8 32.1 229.8H189.9C192.275 229.8 194.2 227.875 194.2 225.5V207.8C194.2 205.425 192.275 203.5 189.9 203.5Z" fill="#F2F2F2"/>
<path d="M67.3999 210.3H37C36.0058 210.3 35.2 211.106 35.2 212.1C35.2 213.094 36.0058 213.9 37 213.9H67.3999C68.3941 213.9 69.2 213.094 69.2 212.1C69.2 211.106 68.3941 210.3 67.3999 210.3Z" fill="#808080"/>
<path d="M169.6 216.7H38.5C36.6774 216.7 35.2 218.155 35.2 219.95C35.2 221.745 36.6774 223.2 38.5 223.2H169.6C171.422 223.2 172.9 221.745 172.9 219.95C172.9 218.155 171.422 216.7 169.6 216.7Z" fill="#CCCCCC"/>
<defs>
<filter id="filter0_b_3001_3" x="-5" y="-5" width="232" height="269" filterUnits="userSpaceOnUse" color-interpolation-filters="sRGB">
<feFlood flood-opacity="0" result="BackgroundImageFix"/>
<feGaussianBlur in="BackgroundImageFix" stdDeviation="2.5"/>
<feComposite in2="SourceAlpha" operator="in" result="effect1_backgroundBlur_3001_3"/>
<feBlend mode="normal" in="SourceGraphic" in2="effect1_backgroundBlur_3001_3" result="shape"/>
</filter>
<linearGradient id="paint0_linear_3001_3" x1="36" y1="82.5996" x2="59.8" y2="82.5996" gradientUnits="userSpaceOnUse">
<stop stop-color="#FFE0A9"/>
<stop offset="1" stop-color="#E8B121"/>
</linearGradient>
</defs>
</svg>
