<svg viewBox="0 0 222 259" fill="none" xmlns="http://www.w3.org/2000/svg">
<rect width="222" height="259" rx="20" fill="white" fill-opacity="0.6"/>
<path d="M193.4 174.3H28.5C23.419 174.3 19.3 178.419 19.3 183.5V230C19.3 235.081 23.419 239.2 28.5 239.2H193.4C198.481 239.2 202.6 235.081 202.6 230V183.5C202.6 178.419 198.481 174.3 193.4 174.3Z" fill="white"/>
<path d="M39 18.8H23.5C21.1804 18.8 19.3 20.6804 19.3 23V38.5C19.3 40.8196 21.1804 42.7001 23.5 42.7001H39C41.3196 42.7001 43.2 40.8196 43.2 38.5V23C43.2 20.6804 41.3196 18.8 39 18.8Z" fill="white"/>
<path d="M30.2 33.3996V32.8996C30.3 32.8996 30.4 32.8996 30.5 32.8996C30.7 32.8996 30.9 32.6996 31 32.4996C31.1 32.2996 31.2 32.0996 31.2 31.7996C31.2 31.4996 31.2 31.2996 31 31.0996C30.9 30.8996 30.8 30.7996 30.6 30.7996C30.4 30.7996 30.2 30.6996 30 30.5996C29.8 30.5996 29.7 30.5996 29.6 30.5996C29.6 30.5996 29.4 30.5996 29.4 30.3996C29.4 30.1996 29.4 30.1996 29.4 30.0996C29.4 29.9996 29.4 29.7996 29.6 29.7996C29.7 29.7996 29.9 29.6996 30.1 29.6996C30.3 29.6996 30.4 29.6996 30.5 29.6996C30.7 29.6996 30.8 29.7996 30.9 29.9996L31.2 29.3996C31.1 29.3996 31 29.1996 30.8 29.1996C30.7 29.1996 30.5 29.0996 30.4 29.0996C30.4 29.0996 30.4 29.0996 30.3 29.0996V28.5996H29.5V29.0996C29.4 29.0996 29.3 29.0996 29.2 29.0996C29 29.0996 28.8 29.2996 28.7 29.4996C28.6 29.6996 28.5 29.8996 28.5 30.1996C28.5 30.4996 28.5 30.6996 28.7 30.8996C28.9 31.0996 29 31.1996 29.1 31.1996C29.3 31.1996 29.5 31.2996 29.7 31.3996C29.8 31.3996 29.9 31.3996 30 31.3996C30 31.3996 30.2 31.3996 30.2 31.4996C30.2 31.4996 30.2 31.5996 30.2 31.7996C30.2 31.9996 30.2 32.0996 30 32.1996C29.9 32.1996 29.7 32.2996 29.5 32.2996C29.3 32.2996 29.1 32.2996 28.9 32.1996C28.7 32.0996 28.6 31.9996 28.4 31.8996L28 32.4996C28 32.4996 28.2 32.6996 28.3 32.6996C28.5 32.6996 28.6 32.7996 28.8 32.8996C28.8 32.8996 29 32.8996 29.1 32.8996V33.3996H29.9H30.2Z" fill="#878787"/>
<path d="M37.4 28.5997C37.2 28.3997 36.9 28.3997 36.6 28.5997C36.4 28.7997 36.4 29.0997 36.6 29.2997L37.2 29.8997H33.4C33.1 29.8997 32.8 30.1997 32.8 30.4997C32.8 30.7997 33.1 31.0997 33.4 31.0997H37.3L36.6 31.7997C36.4 31.9997 36.4 32.2997 36.6 32.3997C36.8 32.6997 37.2 32.5997 37.4 32.3997L38.9 30.7997C39.1 30.5997 39.1 30.3997 38.9 30.1997L37.4 28.5997Z" fill="#878787"/>
<path d="M34.8 32.3H33.5C33.2 32.3 32.9 32.6 32.9 32.9C32.9 33.2 33.2 33.5 33.5 33.5H34.8C35.1 33.5 35.4 33.2 35.4 32.9C35.4 32.6 35.1 32.3 34.8 32.3Z" fill="#878787"/>
<path d="M34.3 34.4997H27.5C26.7 34.4997 26.1 33.8997 26.1 33.0997V28.7997C26.1 27.9997 26.7 27.3997 27.5 27.3997H35.8C36.1 27.3997 36.3 27.1997 36.3 26.8997C36.3 26.5997 36.1 26.3997 35.8 26.3997H27.5C26.1 26.3997 25 27.4997 25 28.8997V33.1997C25 34.5997 26.1 35.6997 27.5 35.6997H34.3C34.6 35.6997 34.8 35.4997 34.8 35.1997C34.8 34.8997 34.6 34.6997 34.3 34.6997V34.4997Z" fill="#878787"/>
<path d="M70.6 18.8H55.1C52.7804 18.8 50.9 20.6804 50.9 23V38.5C50.9 40.8196 52.7804 42.7001 55.1 42.7001H70.6C72.9196 42.7001 74.8 40.8196 74.8 38.5V23C74.8 20.6804 72.9196 18.8 70.6 18.8Z" fill="white"/>
<path d="M66.6 25.3997H59.2C58.6 25.3997 58.1 25.8997 58.1 26.4997V35.5997C58.1 36.1997 58.6 36.6997 59.2 36.6997H66.6C67.2 36.6997 67.7 36.1997 67.7 35.5997V26.4997C67.7 25.8997 67.2 25.3997 66.6 25.3997ZM66.8 35.3997C66.8 35.5997 66.7 35.6997 66.5 35.6997H65.8C65.8 35.3997 65.5 35.0997 65.2 35.0997C64.9 35.0997 64.6 35.3997 64.6 35.6997H63.9C63.9 35.3997 63.6 35.0997 63.3 35.0997C63 35.0997 62.7 35.3997 62.7 35.6997H61.9C61.9 35.3997 61.6 35.0997 61.3 35.0997C61 35.0997 60.7 35.3997 60.7 35.6997H59.7C59.5 35.6997 59.3 35.4997 59.3 35.2997V26.6997C59.3 26.4997 59.5 26.3997 59.6 26.3997H60.4C60.4 26.6997 60.7 26.9997 61 26.9997C61.3 26.9997 61.6 26.6997 61.6 26.3997H62.4C62.4 26.6997 62.7 26.9997 63 26.9997C63.3 26.9997 63.6 26.6997 63.6 26.3997H64.3C64.3 26.6997 64.6 26.9997 64.9 26.9997C65.2 26.9997 65.5 26.6997 65.5 26.3997H66.5C66.6 26.3997 66.7 26.4997 66.7 26.5997V35.3997H66.8Z" fill="#878787"/>
<path d="M65.6 29.8996H65.2C65 29.8996 64.8 29.6996 64.8 29.4996C64.8 29.2996 65 29.0996 65.2 29.0996H65.6C65.8 29.0996 66 29.2996 66 29.4996C66 29.6996 65.8 29.8996 65.6 29.8996Z" fill="#878787"/>
<path d="M65.6001 31.4997H64.9001C64.7001 31.4997 64.5001 31.2997 64.5001 31.0997C64.5001 30.8997 64.7001 30.6997 64.9001 30.6997H65.6001C65.8001 30.6997 66.0001 30.8997 66.0001 31.0997C66.0001 31.2997 65.8001 31.4997 65.6001 31.4997Z" fill="#878787"/>
<path d="M65.6 32.9997H65.2C65 32.9997 64.8 32.7997 64.8 32.5997C64.8 32.3997 65 32.1997 65.2 32.1997H65.6C65.8 32.1997 66 32.3997 66 32.5997C66 32.7997 65.8 32.9997 65.6 32.9997Z" fill="#878787"/>
<path d="M62.4 29.8996H60.5C60.3 29.8996 60.1 29.6996 60.1 29.4996C60.1 29.2996 60.3 29.0996 60.5 29.0996H62.4C62.6 29.0996 62.8 29.2996 62.8 29.4996C62.8 29.6996 62.6 29.8996 62.4 29.8996Z" fill="#878787"/>
<path d="M62.9001 31.4997H60.4001C60.2001 31.4997 60.0001 31.2997 60.0001 31.0997C60.0001 30.8997 60.2001 30.6997 60.4001 30.6997H62.9001C63.1001 30.6997 63.3001 30.8997 63.3001 31.0997C63.3001 31.2997 63.1001 31.4997 62.9001 31.4997Z" fill="#878787"/>
<path d="M62.4 32.9997H60.5C60.3 32.9997 60.1 32.7997 60.1 32.5997C60.1 32.3997 60.3 32.1997 60.5 32.1997H62.4C62.6 32.1997 62.8 32.3997 62.8 32.5997C62.8 32.7997 62.6 32.9997 62.4 32.9997Z" fill="#878787"/>
<g opacity="0.5">
<path d="M101.3 18.8H85.8C83.4804 18.8 81.6 20.6804 81.6 23V38.5C81.6 40.8196 83.4804 42.7001 85.8 42.7001H101.3C103.62 42.7001 105.5 40.8196 105.5 38.5V23C105.5 20.6804 103.62 18.8 101.3 18.8Z" fill="white"/>
<path d="M98.4 26.1001H89.9C88.8 26.1001 88 27.0001 88 28.0001V34.4001C88 35.5001 88.9 36.3001 89.9 36.3001H98.4C99.5 36.3001 100.3 35.4001 100.3 34.4001V28.0001C100.3 26.9001 99.4 26.1001 98.4 26.1001ZM99.3 34.4001C99.3 34.9001 98.9 35.3001 98.4 35.3001H89.9C89.4 35.3001 89 34.9001 89 34.4001V29.5001H94.9C95.2 29.5001 95.5 29.2001 95.5 28.9001C95.5 28.6001 95.2 28.3001 94.9 28.3001H89V28.0001C89 27.5001 89.4 27.1001 89.9 27.1001H98.4C98.9 27.1001 99.3 27.5001 99.3 28.0001V34.4001Z" fill="#9B9B9B"/>
</g>
<path d="M192.9 53.5H29C23.6428 53.5 19.3 57.8429 19.3 63.2V152.9C19.3 158.257 23.6428 162.6 29 162.6H192.9C198.257 162.6 202.6 158.257 202.6 152.9V63.2C202.6 57.8429 198.257 53.5 192.9 53.5Z" fill="#44B4FF"/>
<path d="M53.7 71.0996H42C39.4 71.0996 37.1 72.7996 36.3 75.0996C36.1 75.4996 36 75.9996 36 76.4996C36 76.6996 36 76.8996 36 77.1996V87.7996C36 87.9996 36 88.2996 36 88.4996C36 88.9996 36.2 89.4996 36.3 89.8996C37.2 92.1996 39.4 93.8996 42 93.8996H53.7C56.5 93.8996 58.8 91.9996 59.5 89.4996C59.6 89.0996 59.7 88.5996 59.7 88.0996C59.7 87.9996 59.7 87.8996 59.7 87.7996V77.1996C59.7 73.7996 57 71.0996 53.6 71.0996H53.7Z" fill="url(#paint0_linear_2445_782)"/>
<g opacity="0.4">
<path d="M52.5 80.5992H59.8V79.1992H51.9H51.1V93.9992H52.5V89.5992H59.6C59.7 89.1992 59.8 88.6992 59.8 88.1992H52.5V84.7992H59.8V83.3992H52.5V80.5992Z" fill="#C6934F"/>
<path d="M44.7 71.0996V75.0996H36.3C36.1 75.4996 36 75.9996 36 76.4996H44.7V79.4996H36V80.8996H44.7V83.6996H36V85.0996H44.7V88.4996H36C36 88.9996 36.2 89.4996 36.3 89.8996H44.6V93.8996H46V71.0996H44.6H44.7Z" fill="#C6934F"/>
</g>
<path d="M38.1 139H39.1V142.6C39.1 143.6 38.5 144.2 37.5 144.2C36.5 144.2 35.9 143.6 35.9 142.6H36.9C36.9 143 37.1 143.3 37.5 143.3C37.9 143.3 38.1 143 38.1 142.6V139Z" fill="#F7F7F7"/>
<path d="M42.2 144.2C41 144.2 40.1 143.4 40.1 142.1C40.1 140.8 41 140 42.2 140C43.4 140 44.3 140.8 44.3 142.1C44.3 143.4 43.4 144.2 42.2 144.2ZM42.2 143.3C42.7 143.3 43.3 142.9 43.3 142.1C43.3 141.3 42.8 140.9 42.3 140.9C41.8 140.9 41.3 141.3 41.3 142.1C41.3 142.9 41.8 143.3 42.3 143.3H42.2Z" fill="#F7F7F7"/>
<path d="M45.2 138.7H46.2V140.6C46.5 140.3 46.9 140 47.5 140C48.4 140 49.0999 140.6 49.0999 141.7V144.1H48.0999V141.9C48.0999 141.3 47.7 140.9 47.2 140.9C46.7 140.9 46.3 141.3 46.3 141.9V144.1H45.3V138.7H45.2Z" fill="#F7F7F7"/>
<path d="M52.9 141.9C52.9 141.3 52.5 140.9 52 140.9C51.5 140.9 51.1 141.3 51.1 141.9V144.1H50.1V140.1H51.1V140.6C51.4 140.3 51.8 140 52.3 140C53.2 140 53.9 140.6 53.9 141.7V144.1H52.9V141.9Z" fill="#F7F7F7"/>
<path d="M61.3 141.6C61.3 143.1 60.2 144.1 58.6 144.1H56.8V139H58.6C60.2 139 61.3 140 61.3 141.6ZM58.6 143.2C59.7 143.2 60.3 142.6 60.3 141.5C60.3 140.4 59.7 139.8 58.6 139.8H57.9V143.2H58.6Z" fill="#F7F7F7"/>
<path d="M64 144.2C62.8 144.2 61.9 143.4 61.9 142.1C61.9 140.8 62.8 140 64 140C65.2 140 66.1 140.8 66.1 142.1C66.1 143.4 65.2 144.2 64 144.2ZM64 143.3C64.5 143.3 65.1 142.9 65.1 142.1C65.1 141.3 64.6 140.9 64.1 140.9C63.6 140.9 63.1 141.3 63.1 142.1C63.1 142.9 63.6 143.3 64.1 143.3H64Z" fill="#F7F7F7"/>
<path d="M68.7 144.2C67.5 144.2 66.7 143.4 66.7 142.1C66.7 140.8 67.5 140 68.7 140C69.9 140 70.7 140.8 70.7 142C70.7 143.2 70.7 142.3 70.7 142.4H67.7C67.7 143 68.2 143.3 68.7 143.3C69.2 143.3 69.4 143.1 69.5 142.8H70.5999C70.3999 143.5 69.7 144.1 68.7 144.1V144.2ZM67.7 141.7H69.5999C69.5999 141.2 69.1999 140.8 68.5999 140.8C67.9999 140.8 67.6999 141.1 67.5999 141.7H67.7Z" fill="#F7F7F7"/>
<path d="M36.4 114.4V112.6C37.2 112.6 38.5 112.4 38.5 110.9H40.5V120.5H38.5V113.6C38.5 113.3 38.5 112.9 38.6 112.6C38.6 112.9 38.5 113.3 38.3 113.6C37.9 114.2 37.1 114.3 36.4 114.3V114.4Z" fill="#F8F8F8"/>
<path d="M49.6 118.8V120.6H41.6V120.3C41.6 115.5 47.5 115.7 47.5 114C47.5 112.3 46.6 112.6 45.7 112.6C44.8 112.6 43.8 113.2 43.8 114.3H41.8C41.9 111.8 43.2 110.8 45.8 110.8C48.4 110.8 49.6 111.7 49.6 113.6C49.6 115.5 48.8 115.7 47.8 116.3C47.1 116.6 46.6 116.9 46.1 117.2C45.9 117.3 45.5 117.6 45 117.9C44.5 118.2 44.1 118.5 43.9 118.8C44.5 118.8 45 118.8 45.5 118.8H49.6Z" fill="#F8F8F8"/>
<path d="M55 114.7C55.3 114.7 55.6 114.7 55.8 114.7C56.3 114.7 57.2 114.7 58 115.3C58.8 115.9 59.3999 116.6 59.3999 117.7C59.3999 119.9 57.2999 120.8 55.0999 120.8C52.8999 120.8 50.7 119.4 50.7 116.4C50.7 113.4 52.2 111 55.3 111C58.4 111 59.2 112.7 59.3 114H57.2C57 113.5 56.5999 112.7 55.3999 112.7C54.1999 112.7 52.9 113.5 52.7 115.9C52.7 116.2 52.7 116.6 52.5 116.9C52.5 116.6 52.6999 116.2 52.8999 115.9C53.2999 115.2 54.3 114.8 55 114.7ZM57.3999 117.5C57.3999 116.6 56.7 115.9 55.2 115.9C54.1 115.9 52.8999 116.5 52.8999 117.5C52.8999 118.5 53.8 119.1 55.2 119.1C56.6 119.1 57.5 118.5 57.5 117.5H57.3999Z" fill="#F8F8F8"/>
<path d="M60.5 112.8V111H68.9V112.2L64 120.7H61.7L66 113.3C66.2 113 66.5 112.8 66.7 112.6C66.4 112.7 66.1 112.8 65.7 112.8H60.5Z" fill="#F8F8F8"/>
<path d="M80.3 116.8C79.9 117 79.5 117.2 79.2 117.2C78.9 117.2 78.7 117.2 78.5 117.2C77.8 117.2 76.9 117 76 116.4C75.2 115.8 74.6 115 74.6 113.9C74.6 111.6 76.7 110.8 79.1 110.8C81.5 110.8 83.4 112 83.4 115.2C83.4 118.4 81.9 120.6 78.6 120.6C75.3 120.6 74.7 119.3 74.6 117.8H76.7C76.9 118.6 77.5 118.9 78.8 118.9C80 118.9 81.1 117.6 81.3 115.8C81.3 115.5 81.4 115.1 81.5 114.8C81.5 115.1 81.3 115.5 81.2 115.8C81 116.2 80.6 116.6 80.2 116.8H80.3ZM81.5 114C81.5 113.3 80.7 112.3 79.3 112.3C77.9 112.3 76.8 112.7 76.8 114C76.8 115.3 78.1 115.7 79.3 115.7C80.5 115.7 81.5 114.9 81.5 114Z" fill="#F8F8F8"/>
<path d="M90.2 116.8C89.8 117 89.4 117.2 89.1 117.2C88.8 117.2 88.6 117.2 88.4 117.2C87.7 117.2 86.8 117 85.9 116.4C85.1 115.8 84.5 115 84.5 113.9C84.5 111.6 86.6 110.8 89 110.8C91.4 110.8 93.3 112 93.3 115.2C93.3 118.4 91.8 120.6 88.5 120.6C85.2 120.6 84.6 119.3 84.5 117.8H86.6C86.8 118.6 87.4 118.9 88.7 118.9C89.9 118.9 91 117.6 91.2 115.8C91.2 115.5 91.3 115.1 91.4 114.8C91.4 115.1 91.2 115.5 91.1 115.8C90.9 116.2 90.5 116.6 90.1 116.8H90.2ZM91.4 114C91.4 113.3 90.6 112.3 89.2 112.3C87.8 112.3 86.7 112.7 86.7 114C86.7 115.3 88 115.7 89.2 115.7C90.4 115.7 91.4 114.9 91.4 114Z" fill="#F8F8F8"/>
<path d="M103.3 117.8C103.3 119.7 101.4 120.6 98.9 120.6C96.4 120.6 94.5 119.7 94.5 117.8C94.5 115.9 95.1 116.1 96 115.6C96.3 115.5 96.7 115.4 97 115.4C96.7 115.4 96.3 115.4 96 115.1C95.4 114.7 95 114.1 95 113.3C95 111.6 96.7 110.7 98.9 110.7C101.1 110.7 102.8 111.6 102.8 113.3C102.8 115 102.4 114.7 101.7 115.1C101.4 115.3 101 115.3 100.7 115.3H100.9C101.1 115.3 101.5 115.3 101.7 115.5C102.7 115.9 103.2 116.6 103.2 117.6L103.3 117.8ZM101.3 117.6C101.3 116.5 100.2 116.2 98.9 116.2H98.7C97.6 116.2 96.5 116.5 96.5 117.6C96.5 118.7 97.5 119.1 98.9 119.1C100.3 119.1 101.3 118.7 101.3 117.6ZM96.9 113.7C96.9 114.7 97.7 115 98.9 115C100.1 115 100.9 114.6 100.9 113.7C100.9 112.8 100 112.3 98.9 112.3C97.8 112.3 96.9 112.6 96.9 113.7Z" fill="#F8F8F8"/>
<path d="M112.4 118.8V120.6H104.4V120.3C104.4 115.5 110.3 115.7 110.3 114C110.3 112.3 109.4 112.6 108.5 112.6C107.6 112.6 106.6 113.2 106.6 114.3H104.6C104.7 111.8 106 110.8 108.6 110.8C111.2 110.8 112.4 111.7 112.4 113.6C112.4 115.5 111.6 115.7 110.6 116.3C109.9 116.6 109.4 116.9 108.9 117.2C108.7 117.3 108.3 117.6 107.8 117.9C107.3 118.2 106.9 118.5 106.7 118.8C107.3 118.8 107.8 118.8 108.3 118.8H112.4Z" fill="#F8F8F8"/>
<path d="M122.3 111.6L121 113.3L123.1 113.1V114L121 113.8L122.3 115.5L121.4 116L120.6 114.1L119.7 116L118.9 115.5L120.2 113.8L118.2 114V113.1L120.2 113.4L118.9 111.7L119.7 111.2L120.6 113.1L121.4 111.2L122.2 111.7L122.3 111.6Z" fill="#F8F8F8"/>
<path d="M128.3 111.6L127 113.3L129.1 113.1V114L127 113.8L128.3 115.5L127.4 116L126.6 114.1L125.7 116L124.9 115.5L126.2 113.8L124.2 114V113.1L126.2 113.4L124.9 111.7L125.7 111.2L126.6 113.1L127.4 111.2L128.2 111.7L128.3 111.6Z" fill="#F8F8F8"/>
<path d="M134.3 111.6L133 113.3L135.1 113.1V114L133 113.8L134.3 115.5L133.4 116L132.6 114.1L131.7 116L130.9 115.5L132.2 113.8L130.2 114V113.1L132.2 113.4L130.9 111.7L131.7 111.2L132.6 113.1L133.4 111.2L134.2 111.7L134.3 111.6Z" fill="#F8F8F8"/>
<path d="M140.3 111.6L139 113.3L141.1 113.1V114L139 113.8L140.3 115.5L139.4 116L138.6 114.1L137.7 116L136.9 115.5L138.2 113.8L136.2 114V113.1L138.2 113.4L136.9 111.7L137.7 111.2L138.6 113.1L139.4 111.2L140.2 111.7L140.3 111.6Z" fill="#F8F8F8"/>
<path d="M149.5 111.6L148.2 113.3L150.3 113.1V114L148.2 113.8L149.5 115.5L148.6 116L147.8 114.1L146.9 116L146.1 115.5L147.4 113.8L145.4 114V113.1L147.4 113.4L146.1 111.7L146.9 111.2L147.8 113.1L148.6 111.2L149.4 111.7L149.5 111.6Z" fill="#F8F8F8"/>
<path d="M155.5 111.6L154.2 113.3L156.3 113.1V114L154.2 113.8L155.5 115.5L154.6 116L153.8 114.1L152.9 116L152.1 115.5L153.4 113.8L151.4 114V113.1L153.4 113.4L152.1 111.7L152.9 111.2L153.8 113.1L154.6 111.2L155.4 111.7L155.5 111.6Z" fill="#F8F8F8"/>
<path d="M161.5 111.6L160.2 113.3L162.3 113.1V114L160.2 113.8L161.5 115.5L160.6 116L159.8 114.1L158.9 116L158.1 115.5L159.4 113.8L157.4 114V113.1L159.4 113.4L158.1 111.7L158.9 111.2L159.8 113.1L160.6 111.2L161.4 111.7L161.5 111.6Z" fill="#F8F8F8"/>
<path d="M167.5 111.6L166.2 113.3L168.3 113.1V114L166.2 113.8L167.5 115.5L166.6 116L165.8 114.1L164.9 116L164.1 115.5L165.4 113.8L163.4 114V113.1L165.4 113.4L164.1 111.7L164.9 111.2L165.8 113.1L166.6 111.2L167.4 111.7L167.5 111.6Z" fill="#F8F8F8"/>
<path d="M167.8 63.7H158.2C156.764 63.7 155.6 64.864 155.6 66.2999V75.8999C155.6 77.3359 156.764 78.4999 158.2 78.4999H167.8C169.236 78.4999 170.4 77.3359 170.4 75.8999V66.2999C170.4 64.864 169.236 63.7 167.8 63.7Z" stroke="white" stroke-width="0.5" stroke-miterlimit="10"/>
<path d="M163.1 67.7V74.5999" stroke="white" stroke-width="0.5" stroke-miterlimit="10"/>
<path d="M166.5 71.1003H159.6" stroke="white" stroke-width="0.5" stroke-miterlimit="10"/>
<path d="M189.1 63.7H179.5C178.064 63.7 176.9 64.864 176.9 66.2999V75.8999C176.9 77.3359 178.064 78.4999 179.5 78.4999H189.1C190.536 78.4999 191.7 77.3359 191.7 75.8999V66.2999C191.7 64.864 190.536 63.7 189.1 63.7Z" stroke="white" stroke-width="0.5" stroke-miterlimit="10"/>
<path d="M186.8 68.7L181.9 73.5999" stroke="white" stroke-width="0.5" stroke-miterlimit="10"/>
<path d="M186.8 73.5999L181.9 68.7" stroke="white" stroke-width="0.5" stroke-miterlimit="10"/>
<path d="M42.9 185L40.6 192H39.2L37.5 186.8L35.7 192H34.3L32 185H33.4L35.1 190.3L36.9 185H38.1L39.9 190.3L41.7 185H42.9Z" fill="black"/>
<path d="M44 185.6C43.8 185.5 43.8 185.3 43.8 185.1C43.8 184.9 43.8 184.7 44 184.6C44.2 184.5 44.3 184.4 44.6 184.4C44.9 184.4 45 184.4 45.2 184.6C45.4 184.8 45.4 184.9 45.4 185.1C45.4 185.3 45.4 185.5 45.2 185.7C45.1 185.9 44.9 185.9 44.6 185.9C44.3 185.9 44.2 185.9 44 185.7V185.6ZM43.9 186.7H45.1V192H43.9V186.7Z" fill="black"/>
<path d="M50 191.7C49.9 191.8 49.7 191.9 49.5 192C49.3 192 49.1 192 48.8 192C48.2 192 47.8 191.8 47.4 191.5C47.1 191.2 46.9 190.7 46.9 190.2V187.6H46V186.6H46.9V185.4H48.1V186.6H49.5V187.6H48.1V190.1C48.1 190.4 48.1 190.6 48.3 190.7C48.4 190.8 48.6 190.9 48.8 190.9C49 190.9 49.3 190.9 49.5 190.7L49.8 191.6L50 191.7Z" fill="black"/>
<path d="M55.7 187.2C56.1 187.6 56.3 188.2 56.3 189V192.1H55.1V189.2C55.1 188.7 55 188.4 54.8 188.1C54.6 187.8 54.3 187.7 53.9 187.7C53.5 187.7 53.1 187.8 52.8 188.1C52.5 188.4 52.4 188.8 52.4 189.3V192H51.2V184.6H52.4V187.3C52.6 187.1 52.9 186.9 53.2 186.8C53.5 186.7 53.8 186.6 54.2 186.6C54.9 186.6 55.4 186.8 55.8 187.2H55.7Z" fill="black"/>
<path d="M63.2 184.6V192H62V191.3C61.8 191.6 61.5 191.7 61.2 191.9C60.9 192 60.6 192.1 60.2 192.1C59.8 192.1 59.2 192 58.8 191.8C58.4 191.6 58.1 191.3 57.8 190.8C57.6 190.4 57.4 189.9 57.4 189.4C57.4 188.9 57.5 188.4 57.8 188C58 187.6 58.4 187.3 58.8 187C59.2 186.7 59.7 186.7 60.2 186.7C60.7 186.7 60.9 186.7 61.2 186.9C61.5 187 61.7 187.2 62 187.4V184.7H63.2V184.6ZM61.2 190.8C61.4 190.7 61.6 190.5 61.8 190.2C61.9 189.9 62 189.7 62 189.3C62 188.9 62 188.7 61.8 188.4C61.7 188.1 61.5 188 61.2 187.8C60.9 187.6 60.7 187.6 60.4 187.6C60.1 187.6 59.8 187.6 59.6 187.8C59.4 188 59.2 188.1 59 188.4C58.9 188.7 58.8 188.9 58.8 189.3C58.8 189.7 58.8 189.9 59 190.2C59.1 190.5 59.3 190.6 59.6 190.8C59.9 191 60.1 191 60.4 191C60.7 191 61 191 61.2 190.8Z" fill="black"/>
<path d="M67.9 186.6V187.8C67.8 187.8 67.7 187.8 67.6 187.8C67.1 187.8 66.7 187.9 66.5 188.2C66.2 188.5 66.1 188.9 66.1 189.4V192H64.9V186.7H66.1V187.5C66.5 186.9 67.1 186.7 68 186.7L67.9 186.6Z" fill="black"/>
<path d="M72.8 187.2C73.2 187.6 73.4 188.1 73.4 188.9V192H72.2V191.3C72 191.5 71.8 191.7 71.5 191.8C71.2 191.9 70.9 192 70.5 192C70.1 192 69.7 192 69.5 191.8C69.3 191.6 69 191.5 68.8 191.2C68.6 191 68.6 190.7 68.6 190.4C68.6 189.9 68.8 189.5 69.1 189.2C69.5 188.9 70 188.8 70.8 188.8H72.2C72.2 188.3 72.1 188.1 71.9 187.9C71.7 187.7 71.3 187.6 70.9 187.6C70.5 187.6 70.3 187.6 70 187.7C69.7 187.7 69.5 187.9 69.3 188.1L68.8 187.2C69.1 187 69.4 186.8 69.8 186.7C70.2 186.6 70.6 186.5 71 186.5C71.8 186.5 72.4 186.7 72.8 187.1V187.2ZM71.7 191C71.9 190.9 72.1 190.7 72.2 190.4V189.8H70.9C70.2 189.8 69.8 190 69.8 190.5C69.8 191 69.8 190.9 70.1 191C70.3 191.1 70.5 191.2 70.9 191.2C71.3 191.2 71.5 191.2 71.7 191Z" fill="black"/>
<path d="M83.3 186.7L81.3 192H80.1L78.7 188.3L77.3 192H76.1L74.1 186.7H75.3L76.7 190.6L78.2 186.7H79.3L80.7 190.7L82.2 186.7H83.3Z" fill="black"/>
<path d="M84.4 191.9C84 191.8 83.7 191.6 83.4 191.5L83.9 190.5C84.1 190.7 84.4 190.8 84.8 190.9C85.1 190.9 85.5 191 85.8 191C86.5 191 86.9 190.8 86.9 190.4C86.9 190 86.9 190.1 86.6 190C86.4 190 86.1 189.9 85.7 189.8C85.3 189.8 84.9 189.7 84.6 189.6C84.3 189.6 84.1 189.4 83.9 189.1C83.7 188.8 83.6 188.6 83.6 188.2C83.6 187.8 83.8 187.3 84.2 187C84.6 186.7 85.2 186.5 85.9 186.5C86.6 186.5 86.6 186.5 87 186.6C87.4 186.6 87.7 186.8 87.9 186.9L87.4 187.9C86.9 187.6 86.4 187.5 85.9 187.5C85.4 187.5 85.3 187.5 85.1 187.7C84.9 187.8 84.8 188 84.8 188.1C84.8 188.2 84.9 188.4 85.1 188.5C85.3 188.5 85.6 188.7 86 188.7C86.4 188.7 86.8 188.8 87 188.9C87.3 188.9 87.5 189.1 87.7 189.3C87.9 189.5 88 189.8 88 190.2C88 190.6 87.8 191.1 87.4 191.4C87 191.7 86.4 191.9 85.6 191.9C84.8 191.9 84.7 191.9 84.3 191.7L84.4 191.9Z" fill="black"/>
<path d="M189.9 203.5H32.1C29.7252 203.5 27.8 205.425 27.8 207.8V225.5C27.8 227.875 29.7252 229.8 32.1 229.8H189.9C192.275 229.8 194.2 227.875 194.2 225.5V207.8C194.2 205.425 192.275 203.5 189.9 203.5Z" fill="#F2F2F2"/>
<path d="M67.4 210.3H37C36.0059 210.3 35.2 211.106 35.2 212.1C35.2 213.094 36.0059 213.9 37 213.9H67.4C68.3941 213.9 69.2 213.094 69.2 212.1C69.2 211.106 68.3941 210.3 67.4 210.3Z" fill="#808080"/>
<path d="M169.6 216.7H38.5C36.6775 216.7 35.2 218.155 35.2 219.95C35.2 221.745 36.6775 223.2 38.5 223.2H169.6C171.423 223.2 172.9 221.745 172.9 219.95C172.9 218.155 171.423 216.7 169.6 216.7Z" fill="#CCCCCC"/>
<defs>
<linearGradient id="paint0_linear_2445_782" x1="36" y1="82.5996" x2="59.8" y2="82.5996" gradientUnits="userSpaceOnUse">
<stop stop-color="#FFE0A9"/>
<stop offset="1" stop-color="#E8B121"/>
</linearGradient>
</defs>
</svg>
