<svg viewBox="0 0 46 42" fill="none" xmlns="http://www.w3.org/2000/svg">
  <g clip-path="url(#clip0_2248_262)">
  <path d="M35.4204 33.455C34.0593 33.455 32.7016 33.129 31.4899 32.517C30.4144 31.9748 29.4749 31.2197 28.7015 30.2751C27.4201 28.7251 26.713 26.756 26.713 24.7303C26.713 19.9206 30.6202 16.0057 35.4204 16.0057C40.2205 16.0057 44.1277 19.9206 44.1277 24.7303C44.1277 26.7593 43.414 28.7351 42.1227 30.2984C41.3426 31.2364 40.4031 31.9881 39.3276 32.5269C38.1093 33.1423 36.7947 33.455 35.4204 33.455ZM35.4204 17.3295C31.3505 17.3295 28.0375 20.6491 28.0375 24.7303C28.0375 26.4466 28.6351 28.1164 29.7239 29.4302C30.3745 30.2219 31.1912 30.8805 32.0875 31.3328C33.1132 31.855 34.2651 32.1311 35.4204 32.1311C36.5756 32.1311 37.7009 31.865 38.7333 31.3428C39.6462 30.8838 40.443 30.2485 41.1069 29.4502C42.2024 28.1264 42.8065 26.45 42.8065 24.7303C42.8065 20.6491 39.4935 17.3295 35.4237 17.3295H35.4204Z" fill="#003CC9"/>
  <path d="M35.3124 28.9941C34.6537 28.9941 33.954 28.8345 33.3392 28.5479C33.0464 28.412 32.9176 28.0604 33.0552 27.7649C33.1899 27.4695 33.5383 27.3395 33.831 27.4783C34.2936 27.694 34.8206 27.8152 35.3124 27.8152C36.0473 27.8152 36.8319 27.499 36.8319 26.6097C36.8319 25.9419 36.4571 25.5578 35.4032 25.15C34.3961 24.7896 33.0406 24.1218 33.0406 22.5322C33.0406 21.0637 34.279 20 35.9858 20C36.6035 20 37.1568 20.0975 37.6253 20.2866C37.9239 20.4077 38.0703 20.7534 37.9502 21.0548C37.8302 21.3562 37.4906 21.5039 37.189 21.3828C36.9636 21.2912 36.5713 21.1819 35.9858 21.1819C34.923 21.1819 34.2087 21.7255 34.2087 22.5351C34.2087 22.999 34.399 23.5427 35.8072 24.045C36.4747 24.302 38 24.8959 38 26.6126C38 28.0161 36.8963 29 35.3124 29V28.9941Z" fill="#003CC9"/>
  <path d="M35.5 21C35.225 21 35 20.7947 35 20.5386V19.4614C35 19.2076 35.2225 19 35.5 19C35.7775 19 36 19.2053 36 19.4614V20.5386C36 20.7924 35.7775 21 35.5 21Z" fill="#003CC9"/>
  <path d="M35.5 30C35.225 30 35 29.8002 35 29.5511V28.4489C35 28.202 35.2225 28 35.5 28C35.7775 28 36 28.1998 36 28.4489V29.5511C36 29.798 35.7775 30 35.5 30Z" fill="#003CC9"/>
  <path d="M7.96046 42C7.7812 42 7.60526 41.9268 7.47579 41.7904L0.179262 33.9439C-0.06307 33.6845 -0.0564308 33.2787 0.192541 33.0259L20.1534 12.8624C21.395 11.6084 23.1212 10.8867 24.8839 10.8867H42.7866C44.5593 10.8867 46 12.3302 46 14.1064C46 15.8826 44.5593 17.3262 42.7866 17.3262H30.919C28.7612 17.3262 26.7329 18.3806 25.4914 20.1468L22.1983 24.8268C21.5344 25.7714 21.6473 27.0454 22.4672 27.8536L24.7976 30.1554C26.0823 31.426 27.7852 32.1245 29.5878 32.1245H36.2802C38.003 32.1245 39.4039 33.5281 39.4039 35.2544C39.4039 36.9807 38.003 38.3844 36.2802 38.3844H19.7484C18.487 38.3844 17.262 38.1316 16.1068 37.6294C15.3134 37.2868 14.3872 37.3932 13.6934 37.9088L8.35549 41.8669C8.23598 41.9534 8.09988 41.9967 7.96046 41.9967V42ZM1.58014 33.5082L8.04345 40.45L12.9067 36.8444C13.9789 36.0494 15.4064 35.8831 16.6346 36.4153C17.6239 36.8444 18.6729 37.0606 19.7518 37.0606H36.2835C37.276 37.0606 38.0827 36.2523 38.0827 35.2578C38.0827 34.2632 37.276 33.455 36.2835 33.455H29.5911C27.4367 33.455 25.4051 32.6201 23.8714 31.1033L21.541 28.8016C20.2563 27.5343 20.0804 25.5419 21.1194 24.0651L24.4125 19.3851C25.903 17.2696 28.3363 16.0024 30.9223 16.0024H42.7899C43.8323 16.0024 44.6788 15.1542 44.6788 14.1098C44.6788 13.0653 43.8323 12.2171 42.7899 12.2171H24.8872C23.473 12.2171 22.0921 12.7926 21.0962 13.8004L1.58014 33.5082Z" fill="black"/>
  <path d="M15.5723 19.0924C15.4495 19.0924 15.3234 19.0592 15.2105 18.986C14.9051 18.7864 14.8188 18.374 15.018 18.068L21.8099 7.64697C22.3676 6.79214 23.2672 6.23666 24.2764 6.12024L37.0536 4.64341C38.4877 4.48043 39.7956 5.51155 39.9682 6.94514C40.1309 8.26897 39.2744 9.50965 37.9798 9.82896L28.3197 12.2005C27.9612 12.2837 27.606 12.0708 27.5197 11.7149C27.4334 11.359 27.6491 10.9998 28.0043 10.9133L37.6644 8.54172C38.3084 8.38539 38.7333 7.76672 38.6537 7.10813C38.5674 6.39299 37.9134 5.87411 37.203 5.96391L24.4258 7.44075C23.805 7.5106 23.2573 7.8532 22.9153 8.37541L16.1234 18.7964C15.9973 18.9927 15.7848 19.0958 15.569 19.0958L15.5723 19.0924Z" fill="black"/>
  <path d="M11.7647 22.9408C11.6983 22.9408 11.6286 22.9309 11.5622 22.9076C11.2137 22.7945 11.0211 22.4219 11.134 22.0727C11.1705 21.9596 14.7922 10.6572 15.8014 7.18792C16.1002 6.1568 16.7807 5.29531 17.7168 4.76644L25.6076 0.306C26.6698 -0.292718 27.9944 0.00996719 28.6882 1.01448C29.3488 1.97243 29.2027 3.28961 28.3496 4.07792L24.9204 7.25112C24.6515 7.50058 24.2332 7.48395 23.9843 7.21453C23.7353 6.94511 23.7519 6.526 24.0208 6.27654L27.45 3.10334C27.8217 2.76074 27.8848 2.18531 27.596 1.76953C27.2939 1.3338 26.7163 1.19742 26.2549 1.46019L18.3641 5.92063C17.7334 6.27987 17.272 6.85862 17.0695 7.55713C16.057 11.0463 12.4287 22.3621 12.3921 22.4785C12.3025 22.7612 12.0403 22.9375 11.7614 22.9375L11.7647 22.9408Z" fill="black"/>
  </g>
  <defs>
  <clipPath id="clip0_2248_262">
  <rect width="46" height="42" fill="white"/>
  </clipPath>
  </defs>
</svg>
