<svg width="33" height="40" viewBox="0 0 33 40" fill="none" xmlns="http://www.w3.org/2000/svg">
<g clip-path="url(#clip0_2248_580)">
<path d="M5.84772 32.6716C4.3496 32.6716 2.85148 32.1069 1.7109 30.9776C0.570315 29.8483 -0.00292969 28.4293 -0.00292969 26.8816C-0.00292969 25.3339 0.605774 23.8799 1.7109 22.7857L11.8166 12.7798C12.0382 12.5604 12.4282 12.5604 12.6498 12.7798L20.0872 20.1438C20.3177 20.372 20.3177 20.7406 20.0872 20.9688L9.98158 30.9747C8.841 32.104 7.34288 32.6686 5.84476 32.6686L5.84772 32.6716ZM12.2361 14.0203L2.54712 23.6136C1.66657 24.4884 1.17902 25.647 1.17902 26.8816C1.17902 28.1163 1.66362 29.2778 2.54712 30.1496C4.36732 31.9518 7.33106 31.9518 9.15126 30.1496L18.8403 20.5563L12.2361 14.0174V14.0203Z" fill="black"/>
<path d="M24.9835 11.5246C24.8328 11.5246 24.6821 11.466 24.5668 11.3549C24.3364 11.1267 24.3364 10.758 24.5668 10.5298C24.951 10.1495 25.1637 9.64042 25.1637 9.10209C25.1637 8.56376 24.951 8.05469 24.5668 7.67435C24.1827 7.29401 23.6686 7.08336 23.1249 7.08336C22.5812 7.08336 22.067 7.29401 21.6829 7.67435C21.4524 7.90256 21.0801 7.90256 20.8496 7.67435C20.6191 7.44615 20.6191 7.07751 20.8496 6.84931C21.4583 6.24662 22.265 5.91602 23.1249 5.91602C23.9847 5.91602 24.7944 6.24662 25.4001 6.84931C26.0059 7.452 26.3427 8.25071 26.3427 9.10209C26.3427 9.95346 26.0088 10.7551 25.4001 11.3549C25.2849 11.469 25.1342 11.5246 24.9835 11.5246Z" fill="#2A21D9"/>
<path d="M18.9703 32.8174C18.8137 32.8174 18.663 32.756 18.5536 32.6478L16.63 30.7431C16.3995 30.5149 16.3995 30.1463 16.63 29.9181L17.5903 28.9643C18.3497 28.2124 19.5878 28.2124 20.3472 28.9643C21.1066 29.7162 21.1066 30.9421 20.3472 31.694L19.3869 32.6448C19.2776 32.7531 19.1269 32.8145 18.9703 32.8145V32.8174ZM17.8829 30.3306L18.9732 31.4102L19.5169 30.8719C19.8183 30.5734 19.8183 30.0907 19.5169 29.7923C19.2155 29.4939 18.728 29.4939 18.4266 29.7923L17.8829 30.3306Z" fill="#2A21D9"/>
<path d="M19.6027 21.074C19.4461 21.074 19.2954 21.0126 19.186 20.9044L11.8904 13.6779C11.7663 13.555 11.7043 13.3824 11.7191 13.2098L12.8478 1.22325C12.8981 0.696629 13.2408 0.257775 13.7431 0.0793084C14.2455 -0.0991586 14.7921 0.0207946 15.1704 0.395283L32.6011 17.6539C32.9794 18.0284 33.1005 18.5697 32.9203 19.067C32.74 19.5644 32.2968 19.9038 31.7649 19.9535L19.6588 21.0711C19.6411 21.0711 19.6233 21.0711 19.6027 21.0711V21.074ZM12.9187 13.046L19.8243 19.8833L31.6526 18.792C31.7501 18.7832 31.7915 18.7218 31.8092 18.6721C31.827 18.6223 31.8329 18.5492 31.7649 18.4819L14.3341 1.22325C14.2632 1.15304 14.1834 1.16766 14.1421 1.18229C14.0918 1.19985 14.0298 1.24081 14.0209 1.33735L12.9187 13.0489V13.046Z" fill="black"/>
<path d="M19.8124 40.0004C18.9466 40.0004 18.1311 39.6668 17.5165 39.0583L9.25172 30.8752C9.02124 30.647 9.02124 30.2783 9.25172 30.0501L13.0074 26.3316C13.229 26.1121 13.619 26.1121 13.8406 26.3316L22.1054 34.5147C22.7171 35.1203 23.0569 35.9278 23.0569 36.788C23.0569 37.6481 22.72 38.4527 22.1054 39.0612C21.4908 39.6698 20.6782 40.0033 19.8095 40.0033L19.8124 40.0004ZM10.5046 30.4626L18.3527 38.2333C18.7428 38.6194 19.2628 38.833 19.8154 38.833C20.3679 38.833 20.885 38.6194 21.278 38.2333C21.6681 37.8471 21.8838 37.3321 21.8838 36.785C21.8838 36.2379 21.6681 35.7259 21.278 35.3368L13.4299 27.5662L10.5075 30.4597L10.5046 30.4626Z" fill="black"/>
</g>
<defs>
<clipPath id="clip0_2248_580">
<rect width="33" height="40" fill="white"/>
</clipPath>
</defs>
</svg>
