<svg width="326" height="331" viewBox="0 0 326 331" fill="none" xmlns="http://www.w3.org/2000/svg">
<g clip-path="url(#clip0_2364_3446)">
<g filter="url(#filter0_bd_2364_3446)">
<path d="M210.852 25.2305H49.5559C42.5762 25.2305 36.9181 30.8886 36.9181 37.8683V167.716C36.9181 174.695 42.5762 180.353 49.5559 180.353H210.852C217.832 180.353 223.49 174.695 223.49 167.716V37.8683C223.49 30.8886 217.832 25.2305 210.852 25.2305Z" fill="#F7F7F7"/>
</g>
<path d="M190.5 45.7607H131.102C128.834 45.7607 126.995 47.5996 126.995 49.868C126.995 52.1364 128.834 53.9753 131.102 53.9753H190.5C192.768 53.9753 194.607 52.1364 194.607 49.868C194.607 47.5996 192.768 45.7607 190.5 45.7607Z" fill="#666666"/>
<path d="M204.717 59.0303H132.05C129.258 59.0303 126.994 61.2935 126.994 64.0854V77.3551C126.994 80.147 129.258 82.4102 132.05 82.4102H204.717C207.509 82.4102 209.772 80.147 209.772 77.3551V64.0854C209.772 61.2935 207.509 59.0303 204.717 59.0303Z" fill="#CCCCCC"/>
<path d="M79.1093 88.3562C65.9533 88.3562 55.2554 77.652 55.2554 64.5023C55.2554 51.3527 65.9596 40.6484 79.1093 40.6484C92.2589 40.6484 102.963 51.3527 102.963 64.5023C102.963 77.652 92.2589 88.3562 79.1093 88.3562ZM79.1093 43.195C67.3624 43.195 57.8019 52.7555 57.8019 64.5023C57.8019 76.2492 67.3624 85.8097 79.1093 85.8097C90.8561 85.8097 100.417 76.2492 100.417 64.5023C100.417 52.7555 90.8561 43.195 79.1093 43.195Z" fill="#E8E8E8"/>
<path d="M99.5383 58.4619C100.334 61.1411 100.619 64.0352 100.265 67.0366C99.077 77.1595 90.6665 85.1151 80.4994 85.7596C68.127 86.5494 57.8018 76.7046 57.8018 64.4964C57.8018 54.9486 64.1208 46.8477 72.7903 44.1495C73.3148 43.9852 73.6623 43.4924 73.6623 42.9426C73.6623 42.0896 72.8345 41.4703 72.0194 41.7231C61.8965 44.8762 54.6487 54.601 55.2932 65.8866C55.9946 78.1263 66.0923 87.9522 78.3446 88.3377C91.8481 88.7611 102.963 77.9052 102.963 64.4964C102.963 62.1268 102.609 59.8457 101.965 57.6847C101.807 57.1539 101.308 56.8 100.751 56.8C99.8921 56.8 99.2918 57.6341 99.5383 58.4619Z" fill="#003CC9"/>
<path d="M96.4105 64.5024C96.4105 74.0439 88.6508 81.8035 79.1093 81.8035C69.5677 81.8035 61.8081 74.0439 61.8081 64.5024C61.8081 54.9608 69.5677 47.2012 79.1093 47.2012C88.6508 47.2012 96.4105 54.9608 96.4105 64.5024ZM63.6532 64.5024C63.6532 73.0202 70.5851 79.9521 79.103 79.9521C87.6209 79.9521 94.5527 73.0202 94.5527 64.5024C94.5527 55.9845 87.6209 49.0526 79.103 49.0526C70.5851 49.0526 63.6532 55.9845 63.6532 64.5024Z" fill="#E8E8E8"/>
<path d="M74.724 49.685C76.6639 49.1099 78.7681 48.9014 80.9418 49.1542C88.2781 50.0199 94.0535 56.1113 94.5211 63.4855C95.0962 72.4583 87.9558 79.9462 79.103 79.9462C72.1775 79.9462 66.3009 75.365 64.3483 69.0777C64.2283 68.6986 63.8681 68.4458 63.4763 68.4458C62.8571 68.4458 62.4084 69.0461 62.5917 69.6338C64.8791 76.9763 71.931 82.2337 80.114 81.7661C88.9921 81.2606 96.1198 73.9369 96.3979 65.0526C96.7075 55.2646 88.8278 47.1953 79.1093 47.1953C77.3906 47.1953 75.735 47.4481 74.1679 47.922C73.7825 48.0357 73.5234 48.4022 73.5234 48.8003C73.5234 49.4259 74.13 49.8556 74.724 49.6786V49.685Z" fill="#44B4FF"/>
<path d="M201.716 100.065H63.3125C58.8629 100.065 55.2559 103.672 55.2559 108.122V155.596C55.2559 160.046 58.8629 163.653 63.3125 163.653H201.716C206.165 163.653 209.772 160.046 209.772 155.596V108.122C209.772 103.672 206.165 100.065 201.716 100.065Z" fill="#44B4FF"/>
<path d="M65.9475 154.144C65.4356 154.144 65.0249 153.726 65.0249 153.215V144.223C65.0249 143.711 65.4356 143.294 65.9475 143.294C66.4593 143.294 66.87 143.711 66.87 144.223V153.215C66.87 153.726 66.4593 154.144 65.9475 154.144Z" fill="#003CC9"/>
<path d="M77.6628 154.143C77.151 154.143 76.7402 153.726 76.7402 153.214V141.777C76.7402 141.265 77.151 140.848 77.6628 140.848C78.1746 140.848 78.5854 141.265 78.5854 141.777V153.214C78.5854 153.726 78.1746 154.143 77.6628 154.143Z" fill="#003CC9"/>
<path d="M89.3845 154.144C88.8726 154.144 88.4619 153.726 88.4619 153.215V144.223C88.4619 143.711 88.8726 143.294 89.3845 143.294C89.8963 143.294 90.307 143.711 90.307 144.223V153.215C90.307 153.726 89.8963 154.144 89.3845 154.144Z" fill="#003CC9"/>
<path d="M101.106 154.144C100.594 154.144 100.184 153.727 100.184 153.215V139.332C100.184 138.82 100.594 138.403 101.106 138.403C101.618 138.403 102.029 138.82 102.029 139.332V153.215C102.029 153.727 101.618 154.144 101.106 154.144Z" fill="#003CC9"/>
<path d="M112.827 154.143C112.316 154.143 111.905 153.726 111.905 153.214V136.886C111.905 136.374 112.316 135.957 112.827 135.957C113.339 135.957 113.75 136.374 113.75 136.886V153.214C113.75 153.726 113.339 154.143 112.827 154.143Z" fill="#003CC9"/>
<path d="M136.271 154.144C135.759 154.144 135.348 153.727 135.348 153.215V139.332C135.348 138.82 135.759 138.403 136.271 138.403C136.783 138.403 137.193 138.82 137.193 139.332V153.215C137.193 153.727 136.783 154.144 136.271 154.144Z" fill="#003CC9"/>
<path d="M71.8049 154.144C71.2931 154.144 70.8823 153.726 70.8823 153.215V144.223C70.8823 143.711 71.2931 143.294 71.8049 143.294C72.3167 143.294 72.7274 143.711 72.7274 144.223V153.215C72.7274 153.726 72.3167 154.144 71.8049 154.144Z" fill="#003CC9"/>
<path d="M83.5266 154.143C83.0147 154.143 82.604 153.726 82.604 153.214V141.777C82.604 141.265 83.0147 140.848 83.5266 140.848C84.0384 140.848 84.4491 141.265 84.4491 141.777V153.214C84.4491 153.726 84.0384 154.143 83.5266 154.143Z" fill="#003CC9"/>
<path d="M95.2482 154.144C94.7364 154.144 94.3257 153.726 94.3257 153.215V144.223C94.3257 143.711 94.7364 143.294 95.2482 143.294C95.7601 143.294 96.1708 143.711 96.1708 144.223V153.215C96.1708 153.726 95.7601 154.144 95.2482 154.144Z" fill="#003CC9"/>
<path d="M106.97 154.144C106.458 154.144 106.047 153.727 106.047 153.215V139.332C106.047 138.82 106.458 138.403 106.97 138.403C107.482 138.403 107.892 138.82 107.892 139.332V153.215C107.892 153.727 107.482 154.144 106.97 154.144Z" fill="#003CC9"/>
<path d="M118.691 154.143C118.18 154.143 117.769 153.555 117.769 152.829V140.128C117.769 139.401 118.18 138.813 118.691 138.813C119.203 138.813 119.614 139.401 119.614 140.128V152.829C119.614 153.555 119.203 154.143 118.691 154.143Z" fill="#003CC9"/>
<path d="M130.407 154.144C129.895 154.144 129.484 153.556 129.484 152.829V136.672C129.484 135.945 129.895 135.357 130.407 135.357C130.919 135.357 131.329 135.945 131.329 136.672V152.829C131.329 153.556 130.919 154.144 130.407 154.144Z" fill="#003CC9"/>
<path d="M142.128 154.143C141.616 154.143 141.206 153.555 141.206 152.829V140.128C141.206 139.401 141.616 138.813 142.128 138.813C142.64 138.813 143.051 139.401 143.051 140.128V152.829C143.051 153.555 142.64 154.143 142.128 154.143Z" fill="#003CC9"/>
<path d="M153.85 154.143C153.338 154.143 152.927 153.555 152.927 152.829V133.215C152.927 132.488 153.338 131.9 153.85 131.9C154.362 131.9 154.772 132.488 154.772 133.215V152.829C154.772 153.555 154.362 154.143 153.85 154.143Z" fill="#003CC9"/>
<path d="M165.571 154.143C165.06 154.143 164.649 153.555 164.649 152.829V129.765C164.649 129.038 165.06 128.45 165.571 128.45C166.083 128.45 166.494 129.038 166.494 129.765V152.829C166.494 153.555 166.083 154.143 165.571 154.143Z" fill="#003CC9"/>
<path d="M177.293 154.143C176.781 154.143 176.37 153.556 176.37 152.829V126.308C176.37 125.582 176.781 124.994 177.293 124.994C177.805 124.994 178.216 125.582 178.216 126.308V152.829C178.216 153.556 177.805 154.143 177.293 154.143Z" fill="#003CC9"/>
<path d="M189.014 154.143C188.503 154.143 188.092 153.555 188.092 152.829V133.215C188.092 132.488 188.503 131.9 189.014 131.9C189.526 131.9 189.937 132.488 189.937 133.215V152.829C189.937 153.555 189.526 154.143 189.014 154.143Z" fill="#003CC9"/>
<path d="M200.736 154.143C200.224 154.143 199.814 153.555 199.814 152.829V140.128C199.814 139.401 200.224 138.813 200.736 138.813C201.248 138.813 201.659 139.401 201.659 140.128V152.829C201.659 153.555 201.248 154.143 200.736 154.143Z" fill="#003CC9"/>
<path d="M124.549 154.143C124.037 154.143 123.626 153.555 123.626 152.829V140.128C123.626 139.401 124.037 138.813 124.549 138.813C125.061 138.813 125.472 139.401 125.472 140.128V152.829C125.472 153.555 125.061 154.143 124.549 154.143Z" fill="#003CC9"/>
<path d="M147.992 154.144C147.48 154.144 147.07 153.556 147.07 152.829V136.672C147.07 135.945 147.48 135.357 147.992 135.357C148.504 135.357 148.915 135.945 148.915 136.672V152.829C148.915 153.556 148.504 154.144 147.992 154.144Z" fill="#003CC9"/>
<path d="M159.714 154.143C159.202 154.143 158.791 153.555 158.791 152.829V133.215C158.791 132.488 159.202 131.9 159.714 131.9C160.226 131.9 160.636 132.488 160.636 133.215V152.829C160.636 153.555 160.226 154.143 159.714 154.143Z" fill="#003CC9"/>
<path d="M171.435 154.143C170.924 154.143 170.513 153.555 170.513 152.829V129.765C170.513 129.038 170.924 128.45 171.435 128.45C171.947 128.45 172.358 129.038 172.358 129.765V152.829C172.358 153.555 171.947 154.143 171.435 154.143Z" fill="#003CC9"/>
<path d="M183.151 154.143C182.639 154.143 182.228 153.556 182.228 152.829V126.308C182.228 125.582 182.639 124.994 183.151 124.994C183.662 124.994 184.073 125.582 184.073 126.308V152.829C184.073 153.556 183.662 154.143 183.151 154.143Z" fill="#003CC9"/>
<path d="M194.872 154.143C194.36 154.143 193.95 153.555 193.95 152.829V133.215C193.95 132.488 194.36 131.9 194.872 131.9C195.384 131.9 195.795 132.488 195.795 133.215V152.829C195.795 153.555 195.384 154.143 194.872 154.143Z" fill="#003CC9"/>
<g opacity="0.39">
<path d="M74.737 154.143C74.2252 154.143 73.8145 153.853 73.8145 153.492V145.493C73.8145 145.132 74.2252 144.842 74.737 144.842C75.2488 144.842 75.6596 145.132 75.6596 145.493V153.492C75.6596 153.853 75.2488 154.143 74.737 154.143Z" fill="#2A21D9"/>
<path d="M86.4582 154.144C85.9464 154.144 85.5356 153.853 85.5356 153.493V147.206C85.5356 146.845 85.9464 146.555 86.4582 146.555C86.97 146.555 87.3808 146.845 87.3808 147.206V153.493C87.3808 153.853 86.97 154.144 86.4582 154.144Z" fill="#2A21D9"/>
<path d="M98.1799 154.143C97.6681 154.143 97.2573 153.853 97.2573 153.492V143.787C97.2573 143.426 97.6681 143.136 98.1799 143.136C98.6917 143.136 99.1025 143.426 99.1025 143.787V153.492C99.1025 153.853 98.6917 154.143 98.1799 154.143Z" fill="#2A21D9"/>
<path d="M109.895 154.143C109.383 154.143 108.972 153.852 108.972 153.492V142.074C108.972 141.714 109.383 141.423 109.895 141.423C110.407 141.423 110.818 141.714 110.818 142.074V153.492C110.818 153.852 110.407 154.143 109.895 154.143Z" fill="#2A21D9"/>
<path d="M133.338 154.143C132.826 154.143 132.416 153.853 132.416 153.492V143.787C132.416 143.426 132.826 143.136 133.338 143.136C133.85 143.136 134.261 143.426 134.261 143.787V153.492C134.261 153.853 133.85 154.143 133.338 154.143Z" fill="#2A21D9"/>
<path d="M68.8728 154.144C68.3609 154.144 67.9502 153.853 67.9502 153.493V147.206C67.9502 146.845 68.3609 146.555 68.8728 146.555C69.3846 146.555 69.7953 146.845 69.7953 147.206V153.493C69.7953 153.853 69.3846 154.144 68.8728 154.144Z" fill="#2A21D9"/>
<path d="M80.5944 154.143C80.0826 154.143 79.6719 153.853 79.6719 153.492V145.493C79.6719 145.132 80.0826 144.842 80.5944 144.842C81.1063 144.842 81.517 145.132 81.517 145.493V153.492C81.517 153.853 81.1063 154.143 80.5944 154.143Z" fill="#2A21D9"/>
<path d="M92.3156 154.144C91.8038 154.144 91.3931 153.853 91.3931 153.493V147.206C91.3931 146.845 91.8038 146.555 92.3156 146.555C92.8275 146.555 93.2382 146.845 93.2382 147.206V153.493C93.2382 153.853 92.8275 154.144 92.3156 154.144Z" fill="#2A21D9"/>
<path d="M104.037 154.143C103.525 154.143 103.115 153.853 103.115 153.492V143.787C103.115 143.426 103.525 143.136 104.037 143.136C104.549 143.136 104.96 143.426 104.96 143.787V153.492C104.96 153.853 104.549 154.143 104.037 154.143Z" fill="#2A21D9"/>
<path d="M115.759 154.143C115.247 154.143 114.836 153.732 114.836 153.226V144.342C114.836 143.837 115.247 143.426 115.759 143.426C116.271 143.426 116.682 143.837 116.682 144.342V153.226C116.682 153.732 116.271 154.143 115.759 154.143Z" fill="#2A21D9"/>
<path d="M127.481 154.143C126.969 154.143 126.558 153.733 126.558 153.227V141.929C126.558 141.423 126.969 141.013 127.481 141.013C127.993 141.013 128.403 141.423 128.403 141.929V153.227C128.403 153.733 127.993 154.143 127.481 154.143Z" fill="#2A21D9"/>
<path d="M139.202 154.143C138.691 154.143 138.28 153.732 138.28 153.226V144.342C138.28 143.837 138.691 143.426 139.202 143.426C139.714 143.426 140.125 143.837 140.125 144.342V153.226C140.125 153.732 139.714 154.143 139.202 154.143Z" fill="#2A21D9"/>
<path d="M150.924 154.143C150.412 154.143 150.001 153.732 150.001 153.226V139.508C150.001 139.003 150.412 138.592 150.924 138.592C151.436 138.592 151.847 139.003 151.847 139.508V153.226C151.847 153.732 151.436 154.143 150.924 154.143Z" fill="#2A21D9"/>
<path d="M162.639 154.143C162.127 154.143 161.717 153.733 161.717 153.227V137.095C161.717 136.589 162.127 136.179 162.639 136.179C163.151 136.179 163.562 136.589 163.562 137.095V153.227C163.562 153.733 163.151 154.143 162.639 154.143Z" fill="#2A21D9"/>
<path d="M174.361 154.143C173.849 154.143 173.438 153.732 173.438 153.227V134.681C173.438 134.175 173.849 133.765 174.361 133.765C174.872 133.765 175.283 134.175 175.283 134.681V153.227C175.283 153.732 174.872 154.143 174.361 154.143Z" fill="#2A21D9"/>
<path d="M186.082 154.143C185.57 154.143 185.16 153.732 185.16 153.226V139.508C185.16 139.003 185.57 138.592 186.082 138.592C186.594 138.592 187.005 139.003 187.005 139.508V153.226C187.005 153.732 186.594 154.143 186.082 154.143Z" fill="#2A21D9"/>
<path d="M197.804 154.143C197.292 154.143 196.881 153.732 196.881 153.226V144.342C196.881 143.837 197.292 143.426 197.804 143.426C198.316 143.426 198.726 143.837 198.726 144.342V153.226C198.726 153.732 198.316 154.143 197.804 154.143Z" fill="#2A21D9"/>
<path d="M121.617 154.143C121.105 154.143 120.694 153.732 120.694 153.226V144.342C120.694 143.837 121.105 143.426 121.617 143.426C122.129 143.426 122.539 143.837 122.539 144.342V153.226C122.539 153.732 122.129 154.143 121.617 154.143Z" fill="#2A21D9"/>
<path d="M145.06 154.143C144.548 154.143 144.137 153.733 144.137 153.227V141.929C144.137 141.423 144.548 141.013 145.06 141.013C145.572 141.013 145.982 141.423 145.982 141.929V153.227C145.982 153.733 145.572 154.143 145.06 154.143Z" fill="#2A21D9"/>
<path d="M156.781 154.143C156.27 154.143 155.859 153.732 155.859 153.226V139.508C155.859 139.003 156.27 138.592 156.781 138.592C157.293 138.592 157.704 139.003 157.704 139.508V153.226C157.704 153.732 157.293 154.143 156.781 154.143Z" fill="#2A21D9"/>
<path d="M168.503 154.143C167.991 154.143 167.581 153.733 167.581 153.227V137.095C167.581 136.589 167.991 136.179 168.503 136.179C169.015 136.179 169.426 136.589 169.426 137.095V153.227C169.426 153.733 169.015 154.143 168.503 154.143Z" fill="#2A21D9"/>
<path d="M180.225 154.143C179.713 154.143 179.302 153.732 179.302 153.227V134.681C179.302 134.175 179.713 133.765 180.225 133.765C180.737 133.765 181.147 134.175 181.147 134.681V153.227C181.147 153.732 180.737 154.143 180.225 154.143Z" fill="#2A21D9"/>
<path d="M191.946 154.143C191.434 154.143 191.023 153.732 191.023 153.226V139.508C191.023 139.003 191.434 138.592 191.946 138.592C192.458 138.592 192.869 139.003 192.869 139.508V153.226C192.869 153.732 192.458 154.143 191.946 154.143Z" fill="#2A21D9"/>
</g>
<path d="M153.578 107.705H132.22C131.138 107.705 130.261 108.582 130.261 109.664V109.67C130.261 110.752 131.138 111.629 132.22 111.629H153.578C154.66 111.629 155.537 110.752 155.537 109.67V109.664C155.537 108.582 154.66 107.705 153.578 107.705Z" fill="#F7F7F7"/>
<path d="M163.947 110.492V108.982C164.604 108.982 165.723 108.818 165.723 107.579H167.372V115.642H165.723V109.904C165.723 109.639 165.767 109.298 165.818 109.051L165.792 109.039C165.748 109.304 165.698 109.652 165.559 109.867C165.236 110.41 164.567 110.492 163.947 110.492Z" fill="#F8F8F8"/>
<path d="M174.753 114.131V115.641H168.061V115.407C168.061 111.433 172.958 111.559 172.958 110.131C172.958 109.246 172.232 108.956 171.435 108.956C170.469 108.956 169.881 109.499 169.843 110.409L168.194 110.365C168.289 108.337 169.394 107.509 171.536 107.509C173.508 107.509 174.702 108.292 174.702 109.885C174.702 111.06 174.045 111.679 173.23 112.109C172.668 112.4 172.194 112.652 171.814 112.855C171.619 112.956 171.322 113.152 170.892 113.417C170.462 113.682 170.165 113.948 169.969 114.188C170.431 114.156 170.879 114.131 171.309 114.131H174.753Z" fill="#F8F8F8"/>
<path d="M182.746 110.707C183.037 110.675 183.264 110.65 183.435 110.65C183.884 110.65 184.566 110.707 185.242 111.111C185.925 111.515 186.386 112.16 186.386 113.083C186.386 114.959 184.648 115.686 182.765 115.686C180.585 115.686 179.125 114.549 179.125 112.034C179.125 109.519 180.345 107.516 182.999 107.516C185.28 107.516 186.285 108.944 186.316 110.024L184.541 110.106C184.389 109.645 184.023 108.956 183.068 108.956C182.114 108.956 180.983 109.614 180.832 111.655C180.8 111.92 180.749 112.242 180.693 112.508H180.718C180.775 112.267 180.87 111.92 181.015 111.699C181.369 111.143 182.19 110.789 182.74 110.707H182.746ZM184.743 113.083C184.743 112.331 184.181 111.711 182.885 111.711H182.803C181.893 111.711 180.882 112.23 180.882 113.083C180.882 113.936 181.609 114.454 182.784 114.454C184.13 114.454 184.743 113.993 184.743 113.083Z" fill="#F8F8F8"/>
<path d="M187.075 109.082V107.572H194.101V108.564L190.019 115.673H188.117L191.675 109.462C191.814 109.228 192.054 109.013 192.288 108.874L192.275 108.849C192.041 108.988 191.732 109.082 191.46 109.082H187.068H187.075Z" fill="#F8F8F8"/>
<path d="M201.406 111.629C201.406 113.095 201.222 115.755 198.101 115.755C194.979 115.755 194.796 113.095 194.796 111.629C194.796 110.163 194.967 107.503 198.101 107.503C201.235 107.503 201.406 110.163 201.406 111.629ZM199.763 111.629C199.763 110.226 199.339 109.234 198.101 109.234C196.862 109.234 196.439 110.188 196.439 111.629C196.439 112.975 196.73 114.024 198.101 114.024C199.39 114.024 199.763 112.95 199.763 111.629Z" fill="#F8F8F8"/>
<path opacity="0.3" d="M103.286 111.983L103.76 111.181C103.779 111.143 103.779 111.092 103.766 111.054L102.831 108.369C102.799 108.286 102.717 108.242 102.635 108.261L99.8798 108.931C99.8292 108.944 99.785 108.982 99.766 109.032L99.4754 109.765H98.5844C98.5402 109.765 98.4896 109.784 98.458 109.822L96.4423 112.002C96.3791 112.072 96.3854 112.173 96.4486 112.236L98.5591 114.252C98.5591 114.252 98.635 114.296 98.6729 114.296H99.6334L99.924 115.029C99.943 115.086 99.9935 115.124 100.05 115.13L102.982 115.635C102.982 115.635 103.001 115.635 103.008 115.635C103.083 115.635 103.153 115.578 103.172 115.503L103.766 112.779C103.772 112.735 103.766 112.691 103.747 112.653L103.279 111.977L103.286 111.983ZM99.4627 109.765L101.826 109.329L100.581 111.775H97.7566L99.4627 109.759V109.765ZM99.627 114.296L97.7566 112.451H100.581L102.047 114.662L99.627 114.296ZM102.66 114.283L101.251 112.116L102.483 109.67L103.279 111.983L102.66 114.283Z" fill="#2A21D9"/>
<path opacity="0.3" d="M88.3414 111.61H84.9861V108.255H88.3414V111.61ZM92.3729 108.255H89.0175V111.61H92.3729V108.255ZM88.3414 112.28H84.9861V115.635H88.3414V112.28ZM92.3729 112.28H89.0175V115.635H92.3729V112.28Z" fill="#2A21D9"/>
<path d="M70.8571 110.776C70.8255 110.795 70.0419 111.231 70.0419 112.192C70.0798 113.291 71.0277 113.677 71.0466 113.677C71.0277 113.695 70.9013 114.201 70.5285 114.732C70.2315 115.187 69.8966 115.648 69.3911 115.648C68.8856 115.648 68.7402 115.345 68.1842 115.345C67.5902 115.345 67.4196 115.648 66.9646 115.648C66.4591 115.648 66.1052 115.161 65.7893 114.713C65.3786 114.125 65.031 113.196 65.0184 112.305C65.0121 111.831 65.1005 111.37 65.328 110.978C65.6503 110.429 66.2316 110.056 66.8572 110.043C67.3437 110.024 67.7734 110.378 68.0641 110.378C68.3548 110.378 68.8729 110.043 69.4732 110.043C69.7323 110.043 70.421 110.119 70.8444 110.776H70.8571ZM68.0325 109.948C67.944 109.519 68.1842 109.089 68.4053 108.811C68.6897 108.476 69.132 108.255 69.5174 108.255C69.5427 108.685 69.3847 109.108 69.1067 109.411C68.854 109.746 68.4243 109.993 68.0262 109.942L68.0325 109.948Z" fill="#2A21D9"/>
<path opacity="0.3" d="M76.7273 108.261C76.7273 108.261 76.6894 108.267 76.6704 108.28C76.6009 108.324 76.5883 108.419 76.6325 108.488L76.9484 108.962C76.4556 109.221 76.0891 109.657 75.969 110.175H80.051C79.931 109.657 79.5645 109.221 79.0716 108.962L79.3875 108.488C79.4318 108.419 79.4191 108.324 79.3496 108.28C79.2801 108.235 79.1853 108.254 79.1411 108.324L78.7872 108.842C78.5408 108.754 78.2817 108.703 78.0037 108.703C77.7257 108.703 77.4603 108.754 77.2201 108.842L76.8663 108.324C76.8347 108.273 76.7715 108.254 76.7146 108.267L76.7273 108.261ZM77.2012 109.436C77.3213 109.436 77.4224 109.537 77.4224 109.657C77.4224 109.777 77.3213 109.878 77.2012 109.878C77.0811 109.878 76.98 109.777 76.98 109.657C76.98 109.537 77.0811 109.436 77.2012 109.436ZM78.8252 109.436C78.9452 109.436 79.0463 109.537 79.0463 109.657C79.0463 109.777 78.9452 109.878 78.8252 109.878C78.7051 109.878 78.604 109.777 78.604 109.657C78.604 109.537 78.7051 109.436 78.8252 109.436ZM75.5014 110.472C75.255 110.472 75.0591 110.668 75.0591 110.915V112.981C75.0591 113.227 75.255 113.423 75.5014 113.423C75.552 113.423 75.6025 113.411 75.6467 113.398V110.498C75.6025 110.479 75.552 110.472 75.5014 110.472ZM75.9437 110.472V113.72C75.9437 113.967 76.1459 114.163 76.3861 114.163H79.634C79.8804 114.163 80.0763 113.96 80.0763 113.72V110.472H75.9374H75.9437ZM80.5249 110.472C80.4744 110.472 80.4238 110.485 80.3796 110.498V113.398C80.4238 113.417 80.4744 113.423 80.5249 113.423C80.7714 113.423 80.9673 113.227 80.9673 112.981V110.915C80.9673 110.668 80.7714 110.472 80.5249 110.472ZM76.5377 114.46V115.054C76.5377 115.382 76.8031 115.648 77.1317 115.648C77.4603 115.648 77.7257 115.382 77.7257 115.054V114.46H76.544H76.5377ZM78.307 114.46V115.054C78.307 115.382 78.5724 115.648 78.901 115.648C79.2296 115.648 79.495 115.382 79.495 115.054V114.46H78.3133H78.307Z" fill="#2A21D9"/>
<g filter="url(#filter1_bd_2364_3446)">
<path d="M293.88 143.188H171.135C164.155 143.188 158.497 148.846 158.497 155.825V219.697C158.497 226.677 164.155 232.335 171.135 232.335H293.88C300.859 232.335 306.518 226.677 306.518 219.697V155.825C306.518 148.846 300.859 143.188 293.88 143.188Z" fill="#F7F7F7" fill-opacity="0.8" shape-rendering="crispEdges"/>
</g>
<path d="M284.698 155.964H227.702C223.221 155.964 219.588 159.596 219.588 164.077V211.438C219.588 215.919 223.221 219.551 227.702 219.551H284.698C289.179 219.551 292.812 215.919 292.812 211.438V164.077C292.812 159.596 289.179 155.964 284.698 155.964Z" fill="#003CC9"/>
<path d="M252.535 165.702H231.177C230.095 165.702 229.218 166.579 229.218 167.661V167.667C229.218 168.749 230.095 169.626 231.177 169.626H252.535C253.617 169.626 254.494 168.749 254.494 167.667V167.661C254.494 166.579 253.617 165.702 252.535 165.702Z" fill="#F7F7F7"/>
<path d="M228.927 205.158C228.927 205.158 229.837 204.317 231.872 203.11C234.241 201.701 235.891 201.101 237.805 201.587C239.72 202.074 242.292 204.842 244.541 204.583C247.353 204.26 248.301 202.813 249.198 201.493C250.096 200.172 251.606 198.605 252.737 198.283C253.868 197.96 255.896 197.651 257.331 197.973C259.005 198.352 260.421 199.407 261.684 199.275C263.53 199.079 263.82 198.782 265.002 197.67C266.417 196.349 267.144 195.401 268.262 195.881C269.381 196.362 269.672 197.802 271.055 198.283C272.844 198.908 274.878 197.72 275.485 196.457C276.092 195.193 277.21 193.771 277.539 191.332C277.804 189.36 279.352 188.798 280.275 189.436C281.197 190.074 283.371 190.567 283.371 190.567" stroke="#5EBFFF" stroke-width="1.6" stroke-linecap="round" stroke-linejoin="round"/>
<path opacity="0.6" d="M229.274 208.26C229.274 208.26 231.764 206.819 233.862 206.427C235.96 206.036 236.743 205.77 237.533 205.903C238.317 206.036 238.98 206.617 240.661 206.933C242.26 207.23 242.93 207.527 243.511 207.584C245.495 207.78 247.024 207.678 247.814 207.287C248.598 206.895 250 205.909 251.315 205.037C252.876 203.995 252.61 203.685 254.31 202.762C256.01 201.84 256.016 201.713 256.932 201.846C257.849 201.979 257.589 201.979 258.897 202.503C260.205 203.028 259.555 202.636 261.653 203.552C263.75 204.468 264.534 204.468 265.324 204.077C266.114 203.685 267.813 203.028 268.205 203.028C268.597 203.028 272.136 201.322 273.185 202.636C274.233 203.944 276.331 203.818 277.905 203.293C279.478 202.769 280.527 202.112 281.311 202.112C282.094 202.112 284.066 202.636 284.066 202.636" stroke="#5EBFFF" stroke-miterlimit="10"/>
<path d="M229.616 176.961V175.451H236.643V176.443L232.561 183.552H230.659L234.216 177.341C234.355 177.107 234.596 176.892 234.829 176.753L234.817 176.728C234.589 176.867 234.273 176.961 234.002 176.961H229.61H229.616Z" fill="#F8F8F8"/>
<path d="M247.657 181.044C247.657 182.712 246.469 183.59 244.535 183.59C242.438 183.59 241.079 182.75 241.022 180.848L242.659 180.816C242.69 181.518 243.398 182.074 244.384 182.074C245.37 182.074 246.065 181.543 246.065 180.829C246.065 180.058 245.452 179.849 244.384 179.818H243.727L243.714 178.851H244.384C245.433 178.851 245.919 178.447 245.919 177.77C245.919 177.094 245.218 176.639 244.384 176.639C243.392 176.639 242.829 177.297 242.772 177.985L241.148 177.928C241.18 176.165 242.494 175.407 244.504 175.407C246.279 175.407 247.373 176.077 247.373 177.505C247.373 178.207 246.968 178.554 246.406 178.807C246.172 178.908 245.843 178.977 245.565 178.99L245.578 179.015C245.648 179.003 245.717 179.003 245.787 179.003C245.926 179.003 246.191 179.003 246.431 179.097C247.227 179.338 247.663 179.856 247.663 181.056L247.657 181.044Z" fill="#F8F8F8"/>
<path d="M255.044 182.01V183.521H248.352V183.293C248.352 179.319 253.249 179.445 253.249 178.017C253.249 177.132 252.522 176.842 251.726 176.842C250.759 176.842 250.172 177.385 250.134 178.295L248.485 178.251C248.579 176.222 249.685 175.395 251.827 175.395C253.799 175.395 254.993 176.178 254.993 177.77C254.993 178.946 254.336 179.565 253.521 179.995C252.958 180.285 252.484 180.538 252.105 180.74C251.909 180.841 251.612 181.037 251.183 181.303C250.759 181.568 250.456 181.833 250.26 182.074C250.722 182.042 251.17 182.017 251.6 182.017H255.044V182.01Z" fill="#F8F8F8"/>
<path d="M259.353 178.586C259.644 178.554 259.871 178.529 260.042 178.529C260.491 178.529 261.173 178.586 261.849 178.99C262.532 179.394 262.986 180.039 262.986 180.961C262.986 182.838 261.249 183.565 259.366 183.565C257.186 183.565 255.726 182.421 255.726 179.913C255.726 177.404 256.946 175.395 259.6 175.395C261.881 175.395 262.885 176.823 262.917 177.909L261.141 177.992C260.99 177.53 260.623 176.842 259.669 176.842C258.715 176.842 257.584 177.499 257.432 179.54C257.401 179.805 257.35 180.127 257.293 180.393H257.318C257.375 180.153 257.47 179.805 257.615 179.584C257.976 179.028 258.791 178.674 259.347 178.592L259.353 178.586ZM261.344 180.961C261.344 180.21 260.781 179.59 259.486 179.59H259.404C258.494 179.59 257.483 180.108 257.483 180.961C257.483 181.815 258.209 182.333 259.385 182.333C260.731 182.333 261.344 181.871 261.344 180.961Z" fill="#F8F8F8"/>
<path d="M200.701 155.964H171.533C169.778 155.964 168.354 157.387 168.354 159.142C168.354 160.898 169.778 162.321 171.533 162.321H200.701C202.456 162.321 203.879 160.898 203.879 159.142C203.879 157.387 202.456 155.964 200.701 155.964Z" fill="#666666"/>
<path d="M208.328 165.702H169.947C169.068 165.702 168.355 166.414 168.355 167.291C168.355 168.169 169.068 168.881 169.947 168.881H208.328C209.208 168.881 209.921 168.169 209.921 167.291C209.921 166.414 209.208 165.702 208.328 165.702Z" fill="#B3B3B3"/>
<path d="M198.382 172.261H169.739C168.975 172.261 168.355 172.88 168.355 173.645V174.055C168.355 174.82 168.975 175.439 169.739 175.439H198.382C199.147 175.439 199.766 174.82 199.766 174.055V173.645C199.766 172.88 199.147 172.261 198.382 172.261Z" fill="#B3B3B3"/>
<path d="M203.482 178.82H169.846C169.023 178.82 168.355 179.488 168.355 180.312V180.507C168.355 181.331 169.023 181.999 169.846 181.999H203.482C204.305 181.999 204.973 181.331 204.973 180.507V180.312C204.973 179.488 204.305 178.82 203.482 178.82Z" fill="#B3B3B3"/>
<path d="M200.91 187.762H172.412C170.171 187.762 168.355 189.578 168.355 191.818V215.502C168.355 217.742 170.171 219.558 172.412 219.558H200.91C203.15 219.558 204.967 217.742 204.967 215.502V191.818C204.967 189.578 203.15 187.762 200.91 187.762Z" fill="#44B4FF"/>
<path d="M178.807 200.885L178.181 199.223H174.769L174.137 200.885H172.349L175.388 192.822H177.574L180.614 200.885H178.794H178.807ZM176.469 194.579L175.224 197.852C175.685 197.852 176.039 197.852 176.33 197.865C176.608 197.877 177.069 197.89 177.448 197.947C177.619 197.991 177.796 198.2 177.966 198.566L176.469 194.579Z" fill="#F8F8F8"/>
<path d="M189.151 196.848C189.151 199.59 187.306 200.879 185.05 200.879H181.315V192.816H185.05C187.306 192.816 189.151 194.105 189.151 196.848ZM185.176 199.375C186.2 199.375 187.501 198.649 187.501 196.854C187.501 195.06 186.225 194.333 185.176 194.333H182.351C182.712 194.333 182.964 194.402 182.964 194.699V199.375H185.176Z" fill="#F8F8F8"/>
</g>
<g filter="url(#filter2_bd_2364_3446)">
<path d="M229.73 207.236H106.985C100.006 207.236 94.3477 212.894 94.3477 219.874V283.746C94.3477 290.725 100.006 296.384 106.985 296.384H229.73C236.71 296.384 242.368 290.725 242.368 283.746V219.874C242.368 212.894 236.71 207.236 229.73 207.236Z" fill="#F7F7F7" fill-opacity="0.8" shape-rendering="crispEdges"/>
</g>
<path d="M136.545 220.014H107.377C105.622 220.014 104.199 221.437 104.199 223.192C104.199 224.947 105.622 226.37 107.377 226.37H136.545C138.301 226.37 139.724 224.947 139.724 223.192C139.724 221.437 138.301 220.014 136.545 220.014Z" fill="#666666"/>
<path d="M144.172 229.75H105.791C104.912 229.75 104.199 230.462 104.199 231.339C104.199 232.217 104.912 232.928 105.791 232.928H144.172C145.052 232.928 145.765 232.217 145.765 231.339C145.765 230.462 145.052 229.75 144.172 229.75Z" fill="#B3B3B3"/>
<path d="M134.226 236.31H105.583C104.819 236.31 104.199 236.929 104.199 237.693V238.104C104.199 238.868 104.819 239.488 105.583 239.488H134.226C134.991 239.488 135.61 238.868 135.61 238.104V237.693C135.61 236.929 134.991 236.31 134.226 236.31Z" fill="#B3B3B3"/>
<path d="M139.326 242.868H105.69C104.866 242.868 104.199 243.536 104.199 244.359V244.555C104.199 245.379 104.866 246.047 105.69 246.047H139.326C140.149 246.047 140.817 245.379 140.817 244.555V244.359C140.817 243.536 140.149 242.868 139.326 242.868Z" fill="#B3B3B3"/>
<path d="M136.76 251.811H108.261C106.021 251.811 104.205 253.627 104.205 255.867V279.551C104.205 281.791 106.021 283.607 108.261 283.607H136.76C139 283.607 140.816 281.791 140.816 279.551V255.867C140.816 253.627 139 251.811 136.76 251.811Z" fill="#44B4FF"/>
<path d="M109.79 262.313C109.847 263.109 110.606 263.463 111.762 263.476C113.158 263.476 113.999 263.153 113.999 262.37C113.999 260.904 108.274 262.256 108.274 259.267C108.274 257.435 110.012 256.746 111.787 256.746H111.901C113.816 256.778 115.256 257.498 115.345 259.166L113.79 259.248C113.733 258.553 113.146 258.256 111.901 258.256C110.656 258.256 109.917 258.61 109.917 259.261C109.917 260.575 115.642 259.236 115.642 262.288C115.642 263.45 114.902 264.986 111.794 264.986C108.994 264.986 108.236 263.716 108.198 262.395L109.79 262.313Z" fill="#F8F8F8"/>
<path d="M123.2 258.377H117.98V260.348H122.852V261.637H117.98V263.426H123.2V264.936H116.331V256.873H123.2V258.383V258.377Z" fill="#F8F8F8"/>
<path d="M127.92 265.01C125.601 265.01 123.724 263.683 123.724 260.897C123.724 258.11 125.639 256.783 127.837 256.783H127.92C130.239 256.815 132.103 258.11 132.103 260.897C132.103 263.683 130.239 265.01 127.92 265.01ZM127.92 258.293C126.643 258.293 125.373 259.26 125.373 260.897C125.373 262.533 126.631 263.5 127.92 263.5C129.278 263.5 130.454 262.521 130.454 260.897C130.454 259.273 129.209 258.325 127.92 258.293Z" fill="#F8F8F8"/>
<path d="M167.267 283.607C166.755 283.607 166.345 283.19 166.345 282.678V268.795C166.345 268.283 166.755 267.866 167.267 267.866C167.779 267.866 168.19 268.283 168.19 268.795V282.678C168.19 283.19 167.779 283.607 167.267 283.607Z" fill="#003CC9"/>
<path d="M161.404 283.607C160.892 283.607 160.481 283.02 160.481 282.293V266.136C160.481 265.409 160.892 264.821 161.404 264.821C161.915 264.821 162.326 265.409 162.326 266.136V282.293C162.326 283.02 161.915 283.607 161.404 283.607Z" fill="#003CC9"/>
<path d="M173.125 283.606C172.614 283.606 172.203 283.018 172.203 282.292V269.591C172.203 268.864 172.614 268.276 173.125 268.276C173.637 268.276 174.048 268.864 174.048 269.591V282.292C174.048 283.018 173.637 283.606 173.125 283.606Z" fill="#003CC9"/>
<path d="M184.847 283.607C184.335 283.607 183.924 283.019 183.924 282.292V262.679C183.924 261.952 184.335 261.364 184.847 261.364C185.359 261.364 185.77 261.952 185.77 262.679V282.292C185.77 283.019 185.359 283.607 184.847 283.607Z" fill="#003CC9"/>
<path d="M196.568 283.607C196.056 283.607 195.646 283.019 195.646 282.292V259.228C195.646 258.502 196.056 257.914 196.568 257.914C197.08 257.914 197.491 258.502 197.491 259.228V282.292C197.491 283.019 197.08 283.607 196.568 283.607Z" fill="#003CC9"/>
<path d="M208.29 283.607C207.779 283.607 207.368 283.019 207.368 282.293V255.772C207.368 255.046 207.779 254.458 208.29 254.458C208.802 254.458 209.213 255.046 209.213 255.772V282.293C209.213 283.019 208.802 283.607 208.29 283.607Z" fill="#003CC9"/>
<path d="M220.012 283.607C219.5 283.607 219.089 283.019 219.089 282.292V262.679C219.089 261.952 219.5 261.364 220.012 261.364C220.523 261.364 220.934 261.952 220.934 262.679V282.292C220.934 283.019 220.523 283.607 220.012 283.607Z" fill="#003CC9"/>
<path d="M231.733 283.606C231.221 283.606 230.81 283.018 230.81 282.292V269.591C230.81 268.864 231.221 268.276 231.733 268.276C232.245 268.276 232.655 268.864 232.655 269.591V282.292C232.655 283.018 232.245 283.606 231.733 283.606Z" fill="#003CC9"/>
<path d="M155.546 283.606C155.034 283.606 154.623 283.018 154.623 282.292V269.591C154.623 268.864 155.034 268.276 155.546 268.276C156.058 268.276 156.468 268.864 156.468 269.591V282.292C156.468 283.018 156.058 283.606 155.546 283.606Z" fill="#003CC9"/>
<path d="M178.989 283.607C178.478 283.607 178.067 283.02 178.067 282.293V266.136C178.067 265.409 178.478 264.821 178.989 264.821C179.501 264.821 179.912 265.409 179.912 266.136V282.293C179.912 283.02 179.501 283.607 178.989 283.607Z" fill="#003CC9"/>
<path d="M190.711 283.607C190.199 283.607 189.788 283.019 189.788 282.292V262.679C189.788 261.952 190.199 261.364 190.711 261.364C191.223 261.364 191.633 261.952 191.633 262.679V282.292C191.633 283.019 191.223 283.607 190.711 283.607Z" fill="#003CC9"/>
<path d="M202.426 283.607C201.914 283.607 201.504 283.019 201.504 282.292V259.228C201.504 258.502 201.914 257.914 202.426 257.914C202.938 257.914 203.349 258.502 203.349 259.228V282.292C203.349 283.019 202.938 283.607 202.426 283.607Z" fill="#003CC9"/>
<path d="M214.148 283.607C213.636 283.607 213.225 283.019 213.225 282.293V255.772C213.225 255.046 213.636 254.458 214.148 254.458C214.66 254.458 215.07 255.046 215.07 255.772V282.293C215.07 283.019 214.66 283.607 214.148 283.607Z" fill="#003CC9"/>
<path d="M225.869 283.607C225.357 283.607 224.947 283.019 224.947 282.292V262.679C224.947 261.952 225.357 261.364 225.869 261.364C226.381 261.364 226.792 261.952 226.792 262.679V282.292C226.792 283.019 226.381 283.607 225.869 283.607Z" fill="#003CC9"/>
<path d="M154.699 229.991C155.445 223.413 161.404 218.668 167.982 219.407C174.56 220.153 179.305 226.111 178.566 232.689C177.826 239.267 171.861 244.013 165.283 243.273C158.705 242.528 153.96 236.569 154.699 229.991ZM177.283 232.544C177.946 226.667 173.706 221.347 167.83 220.683C161.953 220.02 156.633 224.26 155.969 230.136C155.306 236.013 159.546 241.334 165.422 241.997C171.299 242.661 176.62 238.421 177.283 232.544Z" fill="#E8E8E8"/>
<path d="M168.493 241.903C167.109 242.149 165.643 242.13 164.164 241.782C159.172 240.613 155.665 235.963 155.918 230.838C156.221 224.601 161.732 220.001 167.836 220.69C172.613 221.227 176.303 224.848 177.162 229.341C177.213 229.612 177.44 229.814 177.718 229.846C178.142 229.897 178.502 229.517 178.42 229.094C177.415 223.856 172.96 219.679 167.28 219.363C161.119 219.022 155.634 223.514 154.749 229.625C153.776 236.354 158.578 242.528 165.283 243.286C166.464 243.419 167.633 243.375 168.746 243.173C169.017 243.122 169.226 242.895 169.257 242.617C169.308 242.187 168.922 241.839 168.499 241.915L168.493 241.903Z" fill="#003CC9"/>
<path d="M165.65 239.995C160.879 239.457 157.436 235.135 157.973 230.365C158.51 225.594 162.832 222.15 167.603 222.687C172.373 223.224 175.817 227.546 175.28 232.317C174.743 237.088 170.421 240.532 165.65 239.995ZM167.502 223.616C163.243 223.136 159.382 226.207 158.902 230.472C158.421 234.737 161.492 238.592 165.758 239.072C170.023 239.552 173.877 236.481 174.358 232.216C174.838 227.951 171.767 224.096 167.502 223.616Z" fill="#E8E8E8"/>
<path d="M174.288 229.992C174.465 230.996 174.452 232.058 174.2 233.132C173.353 236.753 169.978 239.293 166.263 239.116C161.739 238.895 158.402 234.902 158.901 230.472C159.293 227.009 161.916 224.33 165.176 223.704C165.372 223.666 165.517 223.502 165.543 223.3C165.581 222.99 165.302 222.731 164.999 222.788C161.202 223.515 158.168 226.75 157.941 230.87C157.695 235.338 160.955 239.318 165.378 239.957C170.257 240.664 174.737 237.183 175.286 232.317C175.381 231.458 175.35 230.617 175.204 229.802C175.166 229.6 175.002 229.455 174.8 229.429C174.49 229.391 174.237 229.669 174.294 229.979L174.288 229.992Z" fill="#44B4FF"/>
<path d="M228.403 220.013H190.022C189.142 220.013 188.43 220.724 188.43 221.602C188.43 222.48 189.142 223.191 190.022 223.191H228.403C229.282 223.191 229.995 222.48 229.995 221.602C229.995 220.724 229.282 220.013 228.403 220.013Z" fill="#B3B3B3"/>
<path d="M218.457 226.571H189.813C189.049 226.571 188.43 227.191 188.43 227.955V228.366C188.43 229.13 189.049 229.75 189.813 229.75H218.457C219.221 229.75 219.841 229.13 219.841 228.366V227.955C219.841 227.191 219.221 226.571 218.457 226.571Z" fill="#B3B3B3"/>
<defs>
<filter id="filter0_bd_2364_3446" x="6.91809" y="-0.769531" width="246.572" height="215.123" filterUnits="userSpaceOnUse" color-interpolation-filters="sRGB">
<feFlood flood-opacity="0" result="BackgroundImageFix"/>
<feGaussianBlur in="BackgroundImageFix" stdDeviation="10"/>
<feComposite in2="SourceAlpha" operator="in" result="effect1_backgroundBlur_2364_3446"/>
<feColorMatrix in="SourceAlpha" type="matrix" values="0 0 0 0 0 0 0 0 0 0 0 0 0 0 0 0 0 0 127 0" result="hardAlpha"/>
<feOffset dy="4"/>
<feGaussianBlur stdDeviation="15"/>
<feComposite in2="hardAlpha" operator="out"/>
<feColorMatrix type="matrix" values="0 0 0 0 0.0651253 0 0 0 0 0.0901955 0 0 0 0 0.201872 0 0 0 0.1 0"/>
<feBlend mode="normal" in2="effect1_backgroundBlur_2364_3446" result="effect2_dropShadow_2364_3446"/>
<feBlend mode="normal" in="SourceGraphic" in2="effect2_dropShadow_2364_3446" result="shape"/>
</filter>
<filter id="filter1_bd_2364_3446" x="128.497" y="117.188" width="208.021" height="149.147" filterUnits="userSpaceOnUse" color-interpolation-filters="sRGB">
<feFlood flood-opacity="0" result="BackgroundImageFix"/>
<feGaussianBlur in="BackgroundImageFix" stdDeviation="10"/>
<feComposite in2="SourceAlpha" operator="in" result="effect1_backgroundBlur_2364_3446"/>
<feColorMatrix in="SourceAlpha" type="matrix" values="0 0 0 0 0 0 0 0 0 0 0 0 0 0 0 0 0 0 127 0" result="hardAlpha"/>
<feOffset dy="4"/>
<feGaussianBlur stdDeviation="15"/>
<feComposite in2="hardAlpha" operator="out"/>
<feColorMatrix type="matrix" values="0 0 0 0 0.0651253 0 0 0 0 0.0901955 0 0 0 0 0.201872 0 0 0 0.1 0"/>
<feBlend mode="normal" in2="effect1_backgroundBlur_2364_3446" result="effect2_dropShadow_2364_3446"/>
<feBlend mode="normal" in="SourceGraphic" in2="effect2_dropShadow_2364_3446" result="shape"/>
</filter>
<filter id="filter2_bd_2364_3446" x="64.3477" y="181.236" width="208.021" height="149.147" filterUnits="userSpaceOnUse" color-interpolation-filters="sRGB">
<feFlood flood-opacity="0" result="BackgroundImageFix"/>
<feGaussianBlur in="BackgroundImageFix" stdDeviation="10"/>
<feComposite in2="SourceAlpha" operator="in" result="effect1_backgroundBlur_2364_3446"/>
<feColorMatrix in="SourceAlpha" type="matrix" values="0 0 0 0 0 0 0 0 0 0 0 0 0 0 0 0 0 0 127 0" result="hardAlpha"/>
<feOffset dy="4"/>
<feGaussianBlur stdDeviation="15"/>
<feComposite in2="hardAlpha" operator="out"/>
<feColorMatrix type="matrix" values="0 0 0 0 0.0651253 0 0 0 0 0.0901955 0 0 0 0 0.201872 0 0 0 0.1 0"/>
<feBlend mode="normal" in2="effect1_backgroundBlur_2364_3446" result="effect2_dropShadow_2364_3446"/>
<feBlend mode="normal" in="SourceGraphic" in2="effect2_dropShadow_2364_3446" result="shape"/>
</filter>
<clipPath id="clip0_2364_3446">
<rect width="324.199" height="326" fill="white" transform="translate(0.900391)"/>
</clipPath>
</defs>
</svg>
