<svg viewBox="0 0 419 583" fill="none" xmlns="http://www.w3.org/2000/svg">
<g clip-path="url(#clip0_2256_5045)">
<g filter="url(#filter0_bd_2256_5045)">
<path d="M332.26 10H77C65.9543 10 57 18.9543 57 30V235.49C57 246.536 65.9543 255.49 77 255.49H332.26C343.306 255.49 352.26 246.536 352.26 235.49V30C352.26 18.9543 343.306 10 332.26 10Z" fill="#F7F7F7"/>
</g>
<path d="M300.05 42.49H206.05C202.46 42.49 199.55 45.4001 199.55 48.99C199.55 52.5798 202.46 55.49 206.05 55.49H300.05C303.64 55.49 306.55 52.5798 306.55 48.99C306.55 45.4001 303.64 42.49 300.05 42.49Z" fill="#666666"/>
<path d="M322.55 63.49H207.55C203.132 63.49 199.55 67.0717 199.55 71.49V92.49C199.55 96.9083 203.132 100.49 207.55 100.49H322.55C326.968 100.49 330.55 96.9083 330.55 92.49V71.49C330.55 67.0717 326.968 63.49 322.55 63.49Z" fill="#CCCCCC"/>
<path d="M123.77 109.9C102.95 109.9 86.02 92.9599 86.02 72.1499C86.02 51.3399 102.96 34.3999 123.77 34.3999C144.58 34.3999 161.52 51.3399 161.52 72.1499C161.52 92.9599 144.58 109.9 123.77 109.9ZM123.77 38.4299C105.18 38.4299 90.05 53.5599 90.05 72.1499C90.05 90.7399 105.18 105.87 123.77 105.87C142.36 105.87 157.49 90.7399 157.49 72.1499C157.49 53.5599 142.36 38.4299 123.77 38.4299Z" fill="#E8E8E8"/>
<path d="M156.1 62.5898C157.36 66.8298 157.81 71.4098 157.25 76.1598C155.37 92.1798 142.06 104.77 125.97 105.79C106.39 107.04 90.05 91.4598 90.05 72.1398C90.05 57.0298 100.05 44.2098 113.77 39.9398C114.6 39.6798 115.15 38.8998 115.15 38.0298C115.15 36.6798 113.84 35.6998 112.55 36.0998C96.53 41.0898 85.06 56.4798 86.08 74.3398C87.19 93.7098 103.17 109.26 122.56 109.87C143.93 110.54 161.52 93.3598 161.52 72.1398C161.52 68.3898 160.96 64.7798 159.94 61.3598C159.69 60.5198 158.9 59.9598 158.02 59.9598C156.66 59.9598 155.71 61.2798 156.1 62.5898Z" fill="#003CC9"/>
<path d="M151.15 72.15C151.15 87.25 138.87 99.53 123.77 99.53C108.67 99.53 96.39 87.25 96.39 72.15C96.39 57.05 108.67 44.77 123.77 44.77C138.87 44.77 151.15 57.05 151.15 72.15ZM99.31 72.15C99.31 85.63 110.28 96.6 123.76 96.6C137.24 96.6 148.21 85.63 148.21 72.15C148.21 58.67 137.24 47.7 123.76 47.7C110.28 47.7 99.31 58.67 99.31 72.15Z" fill="#E8E8E8"/>
<path d="M116.83 48.7C119.9 47.79 123.23 47.46 126.67 47.86C138.28 49.23 147.42 58.87 148.16 70.54C149.07 84.74 137.77 96.59 123.76 96.59C112.8 96.59 103.5 89.34 100.41 79.39C100.22 78.79 99.65 78.39 99.03 78.39C98.05 78.39 97.34 79.34 97.63 80.27C101.25 91.89 112.41 100.21 125.36 99.47C139.41 98.67 150.69 87.08 151.13 73.02C151.62 57.53 139.15 44.76 123.77 44.76C121.05 44.76 118.43 45.16 115.95 45.91C115.34 46.09 114.93 46.67 114.93 47.3C114.93 48.29 115.89 48.97 116.83 48.69V48.7Z" fill="#44B4FF"/>
<path d="M317.8 128.43H98.77C91.7284 128.43 86.02 134.138 86.02 141.18V216.31C86.02 223.351 91.7284 229.06 98.77 229.06H317.8C324.842 229.06 330.55 223.351 330.55 216.31V141.18C330.55 134.138 324.842 128.43 317.8 128.43Z" fill="#44B4FF"/>
<path d="M102.94 214.01C102.13 214.01 101.48 213.35 101.48 212.54V198.31C101.48 197.5 102.13 196.84 102.94 196.84C103.75 196.84 104.4 197.5 104.4 198.31V212.54C104.4 213.35 103.75 214.01 102.94 214.01Z" fill="#003CC9"/>
<path d="M121.48 214.01C120.67 214.01 120.02 213.35 120.02 212.54V194.44C120.02 193.63 120.67 192.97 121.48 192.97C122.29 192.97 122.94 193.63 122.94 194.44V212.54C122.94 213.35 122.29 214.01 121.48 214.01Z" fill="#003CC9"/>
<path d="M140.03 214.01C139.22 214.01 138.57 213.35 138.57 212.54V198.31C138.57 197.5 139.22 196.84 140.03 196.84C140.84 196.84 141.49 197.5 141.49 198.31V212.54C141.49 213.35 140.84 214.01 140.03 214.01Z" fill="#003CC9"/>
<path d="M158.58 214.01C157.77 214.01 157.12 213.35 157.12 212.54V190.57C157.12 189.76 157.77 189.1 158.58 189.1C159.39 189.1 160.04 189.76 160.04 190.57V212.54C160.04 213.35 159.39 214.01 158.58 214.01Z" fill="#003CC9"/>
<path d="M177.13 214.009C176.32 214.009 175.67 213.349 175.67 212.539V186.699C175.67 185.889 176.32 185.229 177.13 185.229C177.94 185.229 178.59 185.889 178.59 186.699V212.539C178.59 213.349 177.94 214.009 177.13 214.009Z" fill="#003CC9"/>
<path d="M214.23 214.01C213.42 214.01 212.77 213.35 212.77 212.54V190.57C212.77 189.76 213.42 189.1 214.23 189.1C215.04 189.1 215.69 189.76 215.69 190.57V212.54C215.69 213.35 215.04 214.01 214.23 214.01Z" fill="#003CC9"/>
<path d="M112.21 214.01C111.4 214.01 110.75 213.35 110.75 212.54V198.31C110.75 197.5 111.4 196.84 112.21 196.84C113.02 196.84 113.67 197.5 113.67 198.31V212.54C113.67 213.35 113.02 214.01 112.21 214.01Z" fill="#003CC9"/>
<path d="M130.76 214.01C129.95 214.01 129.3 213.35 129.3 212.54V194.44C129.3 193.63 129.95 192.97 130.76 192.97C131.57 192.97 132.22 193.63 132.22 194.44V212.54C132.22 213.35 131.57 214.01 130.76 214.01Z" fill="#003CC9"/>
<path d="M149.31 214.01C148.5 214.01 147.85 213.35 147.85 212.54V198.31C147.85 197.5 148.5 196.84 149.31 196.84C150.12 196.84 150.77 197.5 150.77 198.31V212.54C150.77 213.35 150.12 214.01 149.31 214.01Z" fill="#003CC9"/>
<path d="M167.86 214.01C167.05 214.01 166.4 213.35 166.4 212.54V190.57C166.4 189.76 167.05 189.1 167.86 189.1C168.67 189.1 169.32 189.76 169.32 190.57V212.54C169.32 213.35 168.67 214.01 167.86 214.01Z" fill="#003CC9"/>
<path d="M186.41 214.01C185.6 214.01 184.95 213.08 184.95 211.93V191.83C184.95 190.68 185.6 189.75 186.41 189.75C187.22 189.75 187.87 190.68 187.87 191.83V211.93C187.87 213.08 187.22 214.01 186.41 214.01Z" fill="#003CC9"/>
<path d="M204.95 214.01C204.14 214.01 203.49 213.08 203.49 211.93V186.36C203.49 185.21 204.14 184.28 204.95 184.28C205.76 184.28 206.41 185.21 206.41 186.36V211.93C206.41 213.08 205.76 214.01 204.95 214.01Z" fill="#003CC9"/>
<path d="M223.5 214.01C222.69 214.01 222.04 213.08 222.04 211.93V191.83C222.04 190.68 222.69 189.75 223.5 189.75C224.31 189.75 224.96 190.68 224.96 191.83V211.93C224.96 213.08 224.31 214.01 223.5 214.01Z" fill="#003CC9"/>
<path d="M242.05 214.01C241.24 214.01 240.59 213.08 240.59 211.93V180.89C240.59 179.74 241.24 178.81 242.05 178.81C242.86 178.81 243.51 179.74 243.51 180.89V211.93C243.51 213.08 242.86 214.01 242.05 214.01Z" fill="#003CC9"/>
<path d="M260.6 214.01C259.79 214.01 259.14 213.08 259.14 211.93V175.43C259.14 174.28 259.79 173.35 260.6 173.35C261.41 173.35 262.06 174.28 262.06 175.43V211.93C262.06 213.08 261.41 214.01 260.6 214.01Z" fill="#003CC9"/>
<path d="M279.15 214.01C278.34 214.01 277.69 213.08 277.69 211.93V169.96C277.69 168.81 278.34 167.88 279.15 167.88C279.96 167.88 280.61 168.81 280.61 169.96V211.93C280.61 213.08 279.96 214.01 279.15 214.01Z" fill="#003CC9"/>
<path d="M297.7 214.01C296.89 214.01 296.24 213.08 296.24 211.93V180.89C296.24 179.74 296.89 178.81 297.7 178.81C298.51 178.81 299.16 179.74 299.16 180.89V211.93C299.16 213.08 298.51 214.01 297.7 214.01Z" fill="#003CC9"/>
<path d="M316.25 214.01C315.44 214.01 314.79 213.08 314.79 211.93V191.83C314.79 190.68 315.44 189.75 316.25 189.75C317.06 189.75 317.71 190.68 317.71 191.83V211.93C317.71 213.08 317.06 214.01 316.25 214.01Z" fill="#003CC9"/>
<path d="M195.68 214.01C194.87 214.01 194.22 213.08 194.22 211.93V191.83C194.22 190.68 194.87 189.75 195.68 189.75C196.49 189.75 197.14 190.68 197.14 191.83V211.93C197.14 213.08 196.49 214.01 195.68 214.01Z" fill="#003CC9"/>
<path d="M232.78 214.01C231.97 214.01 231.32 213.08 231.32 211.93V186.36C231.32 185.21 231.97 184.28 232.78 184.28C233.59 184.28 234.24 185.21 234.24 186.36V211.93C234.24 213.08 233.59 214.01 232.78 214.01Z" fill="#003CC9"/>
<path d="M251.33 214.01C250.52 214.01 249.87 213.08 249.87 211.93V180.89C249.87 179.74 250.52 178.81 251.33 178.81C252.14 178.81 252.79 179.74 252.79 180.89V211.93C252.79 213.08 252.14 214.01 251.33 214.01Z" fill="#003CC9"/>
<path d="M269.88 214.01C269.07 214.01 268.42 213.08 268.42 211.93V175.43C268.42 174.28 269.07 173.35 269.88 173.35C270.69 173.35 271.34 174.28 271.34 175.43V211.93C271.34 213.08 270.69 214.01 269.88 214.01Z" fill="#003CC9"/>
<path d="M288.42 214.01C287.61 214.01 286.96 213.08 286.96 211.93V169.96C286.96 168.81 287.61 167.88 288.42 167.88C289.23 167.88 289.88 168.81 289.88 169.96V211.93C289.88 213.08 289.23 214.01 288.42 214.01Z" fill="#003CC9"/>
<path d="M306.97 214.01C306.16 214.01 305.51 213.08 305.51 211.93V180.89C305.51 179.74 306.16 178.81 306.97 178.81C307.78 178.81 308.43 179.74 308.43 180.89V211.93C308.43 213.08 307.78 214.01 306.97 214.01Z" fill="#003CC9"/>
<g opacity="0.39">
<path d="M116.85 214.01C116.04 214.01 115.39 213.55 115.39 212.98V200.32C115.39 199.75 116.04 199.29 116.85 199.29C117.66 199.29 118.31 199.75 118.31 200.32V212.98C118.31 213.55 117.66 214.01 116.85 214.01Z" fill="#2A21D9"/>
<path d="M135.4 214.01C134.59 214.01 133.94 213.55 133.94 212.98V203.03C133.94 202.46 134.59 202 135.4 202C136.21 202 136.86 202.46 136.86 203.03V212.98C136.86 213.55 136.21 214.01 135.4 214.01Z" fill="#2A21D9"/>
<path d="M153.95 214.01C153.14 214.01 152.49 213.55 152.49 212.98V197.62C152.49 197.05 153.14 196.59 153.95 196.59C154.76 196.59 155.41 197.05 155.41 197.62V212.98C155.41 213.55 154.76 214.01 153.95 214.01Z" fill="#2A21D9"/>
<path d="M172.49 214.01C171.68 214.01 171.03 213.55 171.03 212.98V194.91C171.03 194.34 171.68 193.88 172.49 193.88C173.3 193.88 173.95 194.34 173.95 194.91V212.98C173.95 213.55 173.3 214.01 172.49 214.01Z" fill="#2A21D9"/>
<path d="M209.59 214.01C208.78 214.01 208.13 213.55 208.13 212.98V197.62C208.13 197.05 208.78 196.59 209.59 196.59C210.4 196.59 211.05 197.05 211.05 197.62V212.98C211.05 213.55 210.4 214.01 209.59 214.01Z" fill="#2A21D9"/>
<path d="M107.57 214.01C106.76 214.01 106.11 213.55 106.11 212.98V203.03C106.11 202.46 106.76 202 107.57 202C108.38 202 109.03 202.46 109.03 203.03V212.98C109.03 213.55 108.38 214.01 107.57 214.01Z" fill="#2A21D9"/>
<path d="M126.12 214.01C125.31 214.01 124.66 213.55 124.66 212.98V200.32C124.66 199.75 125.31 199.29 126.12 199.29C126.93 199.29 127.58 199.75 127.58 200.32V212.98C127.58 213.55 126.93 214.01 126.12 214.01Z" fill="#2A21D9"/>
<path d="M144.67 214.01C143.86 214.01 143.21 213.55 143.21 212.98V203.03C143.21 202.46 143.86 202 144.67 202C145.48 202 146.13 202.46 146.13 203.03V212.98C146.13 213.55 145.48 214.01 144.67 214.01Z" fill="#2A21D9"/>
<path d="M163.22 214.01C162.41 214.01 161.76 213.55 161.76 212.98V197.62C161.76 197.05 162.41 196.59 163.22 196.59C164.03 196.59 164.68 197.05 164.68 197.62V212.98C164.68 213.55 164.03 214.01 163.22 214.01Z" fill="#2A21D9"/>
<path d="M181.77 214.01C180.96 214.01 180.31 213.36 180.31 212.56V198.5C180.31 197.7 180.96 197.05 181.77 197.05C182.58 197.05 183.23 197.7 183.23 198.5V212.56C183.23 213.36 182.58 214.01 181.77 214.01Z" fill="#2A21D9"/>
<path d="M200.32 214.01C199.51 214.01 198.86 213.36 198.86 212.56V194.68C198.86 193.88 199.51 193.23 200.32 193.23C201.13 193.23 201.78 193.88 201.78 194.68V212.56C201.78 213.36 201.13 214.01 200.32 214.01Z" fill="#2A21D9"/>
<path d="M218.87 214.01C218.06 214.01 217.41 213.36 217.41 212.56V198.5C217.41 197.7 218.06 197.05 218.87 197.05C219.68 197.05 220.33 197.7 220.33 198.5V212.56C220.33 213.36 219.68 214.01 218.87 214.01Z" fill="#2A21D9"/>
<path d="M237.42 214.01C236.61 214.01 235.96 213.36 235.96 212.56V190.85C235.96 190.05 236.61 189.4 237.42 189.4C238.23 189.4 238.88 190.05 238.88 190.85V212.56C238.88 213.36 238.23 214.01 237.42 214.01Z" fill="#2A21D9"/>
<path d="M255.96 214.01C255.15 214.01 254.5 213.36 254.5 212.56V187.03C254.5 186.23 255.15 185.58 255.96 185.58C256.77 185.58 257.42 186.23 257.42 187.03V212.56C257.42 213.36 256.77 214.01 255.96 214.01Z" fill="#2A21D9"/>
<path d="M274.51 214.01C273.7 214.01 273.05 213.36 273.05 212.56V183.21C273.05 182.41 273.7 181.76 274.51 181.76C275.32 181.76 275.97 182.41 275.97 183.21V212.56C275.97 213.36 275.32 214.01 274.51 214.01Z" fill="#2A21D9"/>
<path d="M293.06 214.01C292.25 214.01 291.6 213.36 291.6 212.56V190.85C291.6 190.05 292.25 189.4 293.06 189.4C293.87 189.4 294.52 190.05 294.52 190.85V212.56C294.52 213.36 293.87 214.01 293.06 214.01Z" fill="#2A21D9"/>
<path d="M311.61 214.01C310.8 214.01 310.15 213.36 310.15 212.56V198.5C310.15 197.7 310.8 197.05 311.61 197.05C312.42 197.05 313.07 197.7 313.07 198.5V212.56C313.07 213.36 312.42 214.01 311.61 214.01Z" fill="#2A21D9"/>
<path d="M191.04 214.01C190.23 214.01 189.58 213.36 189.58 212.56V198.5C189.58 197.7 190.23 197.05 191.04 197.05C191.85 197.05 192.5 197.7 192.5 198.5V212.56C192.5 213.36 191.85 214.01 191.04 214.01Z" fill="#2A21D9"/>
<path d="M228.14 214.01C227.33 214.01 226.68 213.36 226.68 212.56V194.68C226.68 193.88 227.33 193.23 228.14 193.23C228.95 193.23 229.6 193.88 229.6 194.68V212.56C229.6 213.36 228.95 214.01 228.14 214.01Z" fill="#2A21D9"/>
<path d="M246.69 214.01C245.88 214.01 245.23 213.36 245.23 212.56V190.85C245.23 190.05 245.88 189.4 246.69 189.4C247.5 189.4 248.15 190.05 248.15 190.85V212.56C248.15 213.36 247.5 214.01 246.69 214.01Z" fill="#2A21D9"/>
<path d="M265.24 214.01C264.43 214.01 263.78 213.36 263.78 212.56V187.03C263.78 186.23 264.43 185.58 265.24 185.58C266.05 185.58 266.7 186.23 266.7 187.03V212.56C266.7 213.36 266.05 214.01 265.24 214.01Z" fill="#2A21D9"/>
<path d="M283.79 214.01C282.98 214.01 282.33 213.36 282.33 212.56V183.21C282.33 182.41 282.98 181.76 283.79 181.76C284.6 181.76 285.25 182.41 285.25 183.21V212.56C285.25 213.36 284.6 214.01 283.79 214.01Z" fill="#2A21D9"/>
<path d="M302.34 214.01C301.53 214.01 300.88 213.36 300.88 212.56V190.85C300.88 190.05 301.53 189.4 302.34 189.4C303.15 189.4 303.8 190.05 303.8 190.85V212.56C303.8 213.36 303.15 214.01 302.34 214.01Z" fill="#2A21D9"/>
</g>
<path d="M241.62 140.52H207.82C206.108 140.52 204.72 141.907 204.72 143.62V143.63C204.72 145.342 206.108 146.73 207.82 146.73H241.62C243.332 146.73 244.72 145.342 244.72 143.63V143.62C244.72 141.907 243.332 140.52 241.62 140.52Z" fill="#F7F7F7"/>
<path d="M258.03 144.93V142.54C259.07 142.54 260.84 142.28 260.84 140.32H263.45V153.08H260.84V144C260.84 143.58 260.91 143.04 260.99 142.65L260.95 142.63C260.88 143.05 260.8 143.6 260.58 143.94C260.07 144.8 259.01 144.93 258.03 144.93Z" fill="#F8F8F8"/>
<path d="M275.13 150.69V153.08H264.54V152.71C264.54 146.42 272.29 146.62 272.29 144.36C272.29 142.96 271.14 142.5 269.88 142.5C268.35 142.5 267.42 143.36 267.36 144.8L264.75 144.73C264.9 141.52 266.65 140.21 270.04 140.21C273.16 140.21 275.05 141.45 275.05 143.97C275.05 145.83 274.01 146.81 272.72 147.49C271.83 147.95 271.08 148.35 270.48 148.67C270.17 148.83 269.7 149.14 269.02 149.56C268.34 149.98 267.87 150.4 267.56 150.78C268.29 150.73 269 150.69 269.68 150.69H275.13Z" fill="#F8F8F8"/>
<path d="M287.78 145.269C288.24 145.219 288.6 145.179 288.87 145.179C289.58 145.179 290.66 145.269 291.73 145.909C292.81 146.549 293.54 147.569 293.54 149.029C293.54 151.999 290.79 153.149 287.81 153.149C284.36 153.149 282.05 151.349 282.05 147.369C282.05 143.389 283.98 140.219 288.18 140.219C291.79 140.219 293.38 142.479 293.43 144.189L290.62 144.319C290.38 143.589 289.8 142.499 288.29 142.499C286.78 142.499 284.99 143.539 284.75 146.769C284.7 147.189 284.62 147.699 284.53 148.119H284.57C284.66 147.739 284.81 147.189 285.04 146.839C285.6 145.959 286.9 145.399 287.77 145.269H287.78ZM290.94 149.029C290.94 147.839 290.05 146.859 288 146.859H287.87C286.43 146.859 284.83 147.679 284.83 149.029C284.83 150.379 285.98 151.199 287.84 151.199C289.97 151.199 290.94 150.469 290.94 149.029Z" fill="#F8F8F8"/>
<path d="M294.63 142.7V140.31H305.75V141.88L299.29 153.13H296.28L301.91 143.3C302.13 142.93 302.51 142.59 302.88 142.37L302.86 142.33C302.49 142.55 302 142.7 301.57 142.7H294.62H294.63Z" fill="#F8F8F8"/>
<path d="M317.31 146.73C317.31 149.05 317.02 153.26 312.08 153.26C307.14 153.26 306.85 149.05 306.85 146.73C306.85 144.41 307.12 140.2 312.08 140.2C317.04 140.2 317.31 144.41 317.31 146.73ZM314.71 146.73C314.71 144.51 314.04 142.94 312.08 142.94C310.12 142.94 309.45 144.45 309.45 146.73C309.45 148.86 309.91 150.52 312.08 150.52C314.12 150.52 314.71 148.82 314.71 146.73Z" fill="#F8F8F8"/>
<path opacity="0.3" d="M162.03 147.29L162.78 146.02C162.81 145.96 162.81 145.88 162.79 145.82L161.31 141.57C161.26 141.44 161.13 141.37 161 141.4L156.64 142.46C156.56 142.48 156.49 142.54 156.46 142.62L156 143.78H154.59C154.52 143.78 154.44 143.81 154.39 143.87L151.2 147.32C151.1 147.43 151.11 147.59 151.21 147.69L154.55 150.88C154.55 150.88 154.67 150.95 154.73 150.95H156.25L156.71 152.11C156.74 152.2 156.82 152.26 156.91 152.27L161.55 153.07C161.55 153.07 161.58 153.07 161.59 153.07C161.71 153.07 161.82 152.98 161.85 152.86L162.79 148.55C162.8 148.48 162.79 148.41 162.76 148.35L162.02 147.28L162.03 147.29ZM155.98 143.78L159.72 143.09L157.75 146.96H153.28L155.98 143.77V143.78ZM156.24 150.95L153.28 148.03H157.75L160.07 151.53L156.24 150.95ZM161.04 150.93L158.81 147.5L160.76 143.63L162.02 147.29L161.04 150.93Z" fill="#2A21D9"/>
<path opacity="0.3" d="M138.38 146.7H133.07V141.39H138.38V146.7ZM144.76 141.39H139.45V146.7H144.76V141.39ZM138.38 147.76H133.07V153.07H138.38V147.76ZM144.76 147.76H139.45V153.07H144.76V147.76Z" fill="#2A21D9"/>
<path d="M110.71 145.38C110.66 145.41 109.42 146.1 109.42 147.62C109.48 149.36 110.98 149.97 111.01 149.97C110.98 150 110.78 150.8 110.19 151.64C109.72 152.36 109.19 153.09 108.39 153.09C107.59 153.09 107.36 152.61 106.48 152.61C105.54 152.61 105.27 153.09 104.55 153.09C103.75 153.09 103.19 152.32 102.69 151.61C102.04 150.68 101.49 149.21 101.47 147.8C101.46 147.05 101.6 146.32 101.96 145.7C102.47 144.83 103.39 144.24 104.38 144.22C105.15 144.19 105.83 144.75 106.29 144.75C106.75 144.75 107.57 144.22 108.52 144.22C108.93 144.22 110.02 144.34 110.69 145.38H110.71ZM106.24 144.07C106.1 143.39 106.48 142.71 106.83 142.27C107.28 141.74 107.98 141.39 108.59 141.39C108.63 142.07 108.38 142.74 107.94 143.22C107.54 143.75 106.86 144.14 106.23 144.06L106.24 144.07Z" fill="#2A21D9"/>
<path opacity="0.3" d="M120 141.399C120 141.399 119.94 141.409 119.91 141.429C119.8 141.499 119.78 141.649 119.85 141.759L120.35 142.509C119.57 142.919 118.99 143.609 118.8 144.429H125.26C125.07 143.609 124.49 142.919 123.71 142.509L124.21 141.759C124.28 141.649 124.26 141.499 124.15 141.429C124.04 141.359 123.89 141.389 123.82 141.499L123.26 142.319C122.87 142.179 122.46 142.099 122.02 142.099C121.58 142.099 121.16 142.179 120.78 142.319L120.22 141.499C120.17 141.419 120.07 141.389 119.98 141.409L120 141.399ZM120.75 143.259C120.94 143.259 121.1 143.419 121.1 143.609C121.1 143.799 120.94 143.959 120.75 143.959C120.56 143.959 120.4 143.799 120.4 143.609C120.4 143.419 120.56 143.259 120.75 143.259ZM123.32 143.259C123.51 143.259 123.67 143.419 123.67 143.609C123.67 143.799 123.51 143.959 123.32 143.959C123.13 143.959 122.97 143.799 122.97 143.609C122.97 143.419 123.13 143.259 123.32 143.259ZM118.06 144.899C117.67 144.899 117.36 145.209 117.36 145.599V148.869C117.36 149.259 117.67 149.569 118.06 149.569C118.14 149.569 118.22 149.549 118.29 149.529V144.939C118.22 144.909 118.14 144.899 118.06 144.899ZM118.76 144.899V150.039C118.76 150.429 119.08 150.739 119.46 150.739H124.6C124.99 150.739 125.3 150.419 125.3 150.039V144.899H118.75H118.76ZM126.01 144.899C125.93 144.899 125.85 144.919 125.78 144.939V149.529C125.85 149.559 125.93 149.569 126.01 149.569C126.4 149.569 126.71 149.259 126.71 148.869V145.599C126.71 145.209 126.4 144.899 126.01 144.899ZM119.7 151.209V152.149C119.7 152.669 120.12 153.089 120.64 153.089C121.16 153.089 121.58 152.669 121.58 152.149V151.209H119.71H119.7ZM122.5 151.209V152.149C122.5 152.669 122.92 153.089 123.44 153.089C123.96 153.089 124.38 152.669 124.38 152.149V151.209H122.51H122.5Z" fill="#2A21D9"/>
<g filter="url(#filter1_bd_2256_5045)">
<path d="M363.82 291.76H169.57C158.524 291.76 149.57 300.714 149.57 311.76V412.84C149.57 423.885 158.524 432.84 169.57 432.84H363.82C374.866 432.84 383.82 423.885 383.82 412.84V311.76C383.82 300.714 374.866 291.76 363.82 291.76Z" fill="#F7F7F7" fill-opacity="0.8" shape-rendering="crispEdges"/>
</g>
<path d="M349.29 311.979H259.09C251.999 311.979 246.25 317.728 246.25 324.819V399.769C246.25 406.861 251.999 412.609 259.09 412.609H349.29C356.381 412.609 362.13 406.861 362.13 399.769V324.819C362.13 317.728 356.381 311.979 349.29 311.979Z" fill="#003CC9"/>
<path d="M298.39 327.39H264.59C262.878 327.39 261.49 328.778 261.49 330.49V330.5C261.49 332.212 262.878 333.6 264.59 333.6H298.39C300.102 333.6 301.49 332.212 301.49 330.5V330.49C301.49 328.778 300.102 327.39 298.39 327.39Z" fill="#F7F7F7"/>
<path d="M261.03 389.829C261.03 389.829 262.47 388.499 265.69 386.589C269.44 384.359 272.05 383.409 275.08 384.179C278.11 384.949 282.18 389.329 285.74 388.919C290.19 388.409 291.69 386.119 293.11 384.029C294.53 381.939 296.92 379.459 298.71 378.949C300.5 378.439 303.71 377.949 305.98 378.459C308.63 379.059 310.87 380.729 312.87 380.519C315.79 380.209 316.25 379.739 318.12 377.979C320.36 375.889 321.51 374.389 323.28 375.149C325.05 375.909 325.51 378.189 327.7 378.949C330.53 379.939 333.75 378.059 334.71 376.059C335.67 374.059 337.44 371.809 337.96 367.949C338.38 364.829 340.83 363.939 342.29 364.949C343.75 365.959 347.19 366.739 347.19 366.739" stroke="#5EBFFF" stroke-width="2.83" stroke-linecap="round" stroke-linejoin="round"/>
<path opacity="0.6" d="M261.58 394.74C261.58 394.74 265.52 392.46 268.84 391.84C272.16 391.22 273.4 390.8 274.65 391.01C275.89 391.22 276.94 392.14 279.6 392.64C282.13 393.11 283.19 393.58 284.11 393.67C287.25 393.98 289.67 393.82 290.92 393.2C292.16 392.58 294.38 391.02 296.46 389.64C298.93 387.99 298.51 387.5 301.2 386.04C303.89 384.58 303.9 384.38 305.35 384.59C306.8 384.8 306.39 384.8 308.46 385.63C310.53 386.46 309.5 385.84 312.82 387.29C316.14 388.74 317.38 388.74 318.63 388.12C319.88 387.5 322.57 386.46 323.19 386.46C323.81 386.46 329.41 383.76 331.07 385.84C332.73 387.91 336.05 387.71 338.54 386.88C341.03 386.05 342.69 385.01 343.93 385.01C345.17 385.01 348.29 385.84 348.29 385.84" stroke="#5EBFFF" stroke-miterlimit="10"/>
<path d="M262.12 345.21V342.82H273.24V344.39L266.78 355.64H263.77L269.4 345.81C269.62 345.44 270 345.1 270.37 344.88L270.35 344.84C269.99 345.06 269.49 345.21 269.06 345.21H262.11H262.12Z" fill="#F8F8F8"/>
<path d="M290.67 351.669C290.67 354.309 288.79 355.699 285.73 355.699C282.41 355.699 280.26 354.369 280.17 351.359L282.76 351.309C282.81 352.419 283.93 353.299 285.49 353.299C287.05 353.299 288.15 352.459 288.15 351.329C288.15 350.109 287.18 349.779 285.49 349.729H284.45L284.43 348.199H285.49C287.15 348.199 287.92 347.559 287.92 346.489C287.92 345.419 286.81 344.699 285.49 344.699C283.92 344.699 283.03 345.739 282.94 346.829L280.37 346.739C280.42 343.949 282.5 342.749 285.68 342.749C288.49 342.749 290.22 343.809 290.22 346.069C290.22 347.179 289.58 347.729 288.69 348.129C288.32 348.289 287.8 348.399 287.36 348.419L287.38 348.459C287.49 348.439 287.6 348.439 287.71 348.439C287.93 348.439 288.35 348.439 288.73 348.589C289.99 348.969 290.68 349.789 290.68 351.689L290.67 351.669Z" fill="#F8F8F8"/>
<path d="M302.36 353.199V355.589H291.77V355.229C291.77 348.939 299.52 349.139 299.52 346.879C299.52 345.479 298.37 345.019 297.11 345.019C295.58 345.019 294.65 345.879 294.59 347.319L291.98 347.249C292.13 344.039 293.88 342.729 297.27 342.729C300.39 342.729 302.28 343.969 302.28 346.489C302.28 348.349 301.24 349.329 299.95 350.009C299.06 350.469 298.31 350.869 297.71 351.189C297.4 351.349 296.93 351.659 296.25 352.079C295.58 352.499 295.1 352.919 294.79 353.299C295.52 353.249 296.23 353.209 296.91 353.209H302.36V353.199Z" fill="#F8F8F8"/>
<path d="M309.18 347.779C309.64 347.729 310 347.689 310.27 347.689C310.98 347.689 312.06 347.779 313.13 348.419C314.21 349.059 314.93 350.079 314.93 351.539C314.93 354.509 312.18 355.659 309.2 355.659C305.75 355.659 303.44 353.849 303.44 349.879C303.44 345.909 305.37 342.729 309.57 342.729C313.18 342.729 314.77 344.989 314.82 346.709L312.01 346.839C311.77 346.109 311.19 345.019 309.68 345.019C308.17 345.019 306.38 346.059 306.14 349.289C306.09 349.709 306.01 350.219 305.92 350.639H305.96C306.05 350.259 306.2 349.709 306.43 349.359C307 348.479 308.29 347.919 309.17 347.789L309.18 347.779ZM312.33 351.539C312.33 350.349 311.44 349.369 309.39 349.369H309.26C307.82 349.369 306.22 350.189 306.22 351.539C306.22 352.889 307.37 353.709 309.23 353.709C311.36 353.709 312.33 352.979 312.33 351.539Z" fill="#F8F8F8"/>
<path d="M216.36 311.979H170.2C167.422 311.979 165.17 314.231 165.17 317.009C165.17 319.787 167.422 322.039 170.2 322.039H216.36C219.138 322.039 221.39 319.787 221.39 317.009C221.39 314.231 219.138 311.979 216.36 311.979Z" fill="#666666"/>
<path d="M228.43 327.39H167.69C166.298 327.39 165.17 328.516 165.17 329.905C165.17 331.294 166.298 332.42 167.69 332.42H228.43C229.822 332.42 230.95 331.294 230.95 329.905C230.95 328.516 229.822 327.39 228.43 327.39Z" fill="#B3B3B3"/>
<path d="M212.69 337.77H167.36C166.15 337.77 165.17 338.75 165.17 339.96V340.61C165.17 341.819 166.15 342.8 167.36 342.8H212.69C213.899 342.8 214.88 341.819 214.88 340.61V339.96C214.88 338.75 213.899 337.77 212.69 337.77Z" fill="#B3B3B3"/>
<path d="M220.76 348.149H167.53C166.227 348.149 165.17 349.206 165.17 350.509V350.819C165.17 352.123 166.227 353.179 167.53 353.179H220.76C222.063 353.179 223.12 352.123 223.12 350.819V350.509C223.12 349.206 222.063 348.149 220.76 348.149Z" fill="#B3B3B3"/>
<path d="M216.69 362.3H171.59C168.044 362.3 165.17 365.174 165.17 368.72V406.2C165.17 409.745 168.044 412.62 171.59 412.62H216.69C220.236 412.62 223.11 409.745 223.11 406.2V368.72C223.11 365.174 220.236 362.3 216.69 362.3Z" fill="#44B4FF"/>
<path d="M181.71 383.07L180.72 380.44H175.32L174.32 383.07H171.49L176.3 370.31H179.76L184.57 383.07H181.69H181.71ZM178.01 373.09L176.04 378.27C176.77 378.27 177.33 378.27 177.79 378.29C178.23 378.31 178.96 378.33 179.56 378.42C179.83 378.49 180.11 378.82 180.38 379.4L178.01 373.09Z" fill="#F8F8F8"/>
<path d="M198.08 376.68C198.08 381.02 195.16 383.06 191.59 383.06H185.68V370.3H191.59C195.16 370.3 198.08 372.34 198.08 376.68ZM191.79 380.68C193.41 380.68 195.47 379.53 195.47 376.69C195.47 373.85 193.45 372.7 191.79 372.7H187.32C187.89 372.7 188.29 372.81 188.29 373.28V380.68H191.79Z" fill="#F8F8F8"/>
</g>
<g filter="url(#filter2_bd_2256_5045)">
<path d="M262.3 393.12H68.05C57.0044 393.12 48.05 402.074 48.05 413.12V514.2C48.05 525.246 57.0044 534.2 68.05 534.2H262.3C273.346 534.2 282.3 525.246 282.3 514.2V413.12C282.3 402.074 273.346 393.12 262.3 393.12Z" fill="#F7F7F7" fill-opacity="0.8" shape-rendering="crispEdges"/>
</g>
<path d="M114.83 413.34H68.6701C65.8921 413.34 63.6401 415.592 63.6401 418.37C63.6401 421.148 65.8921 423.4 68.6701 423.4H114.83C117.608 423.4 119.86 421.148 119.86 418.37C119.86 415.592 117.608 413.34 114.83 413.34Z" fill="#666666"/>
<path d="M126.9 428.75H66.16C64.7683 428.75 63.64 429.876 63.64 431.265C63.64 432.654 64.7683 433.78 66.16 433.78H126.9C128.292 433.78 129.42 432.654 129.42 431.265C129.42 429.876 128.292 428.75 126.9 428.75Z" fill="#B3B3B3"/>
<path d="M111.16 439.13H65.8301C64.6206 439.13 63.6401 440.11 63.6401 441.32V441.97C63.6401 443.179 64.6206 444.16 65.8301 444.16H111.16C112.37 444.16 113.35 443.179 113.35 441.97V441.32C113.35 440.11 112.37 439.13 111.16 439.13Z" fill="#B3B3B3"/>
<path d="M119.23 449.51H66.0001C64.6967 449.51 63.6401 450.566 63.6401 451.87V452.18C63.6401 453.483 64.6967 454.54 66.0001 454.54H119.23C120.534 454.54 121.59 453.483 121.59 452.18V451.87C121.59 450.566 120.534 449.51 119.23 449.51Z" fill="#B3B3B3"/>
<path d="M115.17 463.66H70.07C66.5244 463.66 63.65 466.534 63.65 470.08V507.56C63.65 511.106 66.5244 513.98 70.07 513.98H115.17C118.716 513.98 121.59 511.106 121.59 507.56V470.08C121.59 466.534 118.716 463.66 115.17 463.66Z" fill="#44B4FF"/>
<path d="M72.4901 480.28C72.5801 481.54 73.7801 482.1 75.6101 482.12C77.8201 482.12 79.1501 481.61 79.1501 480.37C79.1501 478.05 70.0901 480.19 70.0901 475.46C70.0901 472.56 72.8401 471.47 75.6501 471.47H75.8301C78.8601 471.52 81.1401 472.66 81.2801 475.3L78.8201 475.43C78.7301 474.33 77.8001 473.86 75.8301 473.86C73.8601 473.86 72.6901 474.42 72.6901 475.45C72.6901 477.53 81.7501 475.41 81.7501 480.24C81.7501 482.08 80.5801 484.51 75.6601 484.51C71.2301 484.51 70.0301 482.5 69.9701 480.41L72.4901 480.28Z" fill="#F8F8F8"/>
<path d="M93.7101 474.05H85.4501V477.17H93.1601V479.21H85.4501V482.04H93.7101V484.43H82.8401V471.67H93.7101V474.06V474.05Z" fill="#F8F8F8"/>
<path d="M101.18 484.549C97.5102 484.549 94.5402 482.449 94.5402 478.039C94.5402 473.629 97.5702 471.529 101.05 471.529H101.18C104.85 471.579 107.8 473.629 107.8 478.039C107.8 482.449 104.85 484.549 101.18 484.549ZM101.18 473.919C99.1602 473.919 97.1502 475.449 97.1502 478.039C97.1502 480.629 99.1402 482.159 101.18 482.159C103.33 482.159 105.19 480.609 105.19 478.039C105.19 475.469 103.22 473.969 101.18 473.919Z" fill="#F8F8F8"/>
<path d="M163.45 513.979C162.64 513.979 161.99 513.319 161.99 512.509V490.539C161.99 489.729 162.64 489.069 163.45 489.069C164.26 489.069 164.91 489.729 164.91 490.539V512.509C164.91 513.319 164.26 513.979 163.45 513.979Z" fill="#003CC9"/>
<path d="M154.17 513.98C153.36 513.98 152.71 513.05 152.71 511.9V486.33C152.71 485.18 153.36 484.25 154.17 484.25C154.98 484.25 155.63 485.18 155.63 486.33V511.9C155.63 513.05 154.98 513.98 154.17 513.98Z" fill="#003CC9"/>
<path d="M172.72 513.98C171.91 513.98 171.26 513.05 171.26 511.9V491.8C171.26 490.65 171.91 489.72 172.72 489.72C173.53 489.72 174.18 490.65 174.18 491.8V511.9C174.18 513.05 173.53 513.98 172.72 513.98Z" fill="#003CC9"/>
<path d="M191.27 513.979C190.46 513.979 189.81 513.049 189.81 511.899V480.859C189.81 479.709 190.46 478.779 191.27 478.779C192.08 478.779 192.73 479.709 192.73 480.859V511.899C192.73 513.049 192.08 513.979 191.27 513.979Z" fill="#003CC9"/>
<path d="M209.82 513.979C209.01 513.979 208.36 513.049 208.36 511.899V475.399C208.36 474.249 209.01 473.319 209.82 473.319C210.63 473.319 211.28 474.249 211.28 475.399V511.899C211.28 513.049 210.63 513.979 209.82 513.979Z" fill="#003CC9"/>
<path d="M228.37 513.98C227.56 513.98 226.91 513.05 226.91 511.9V469.93C226.91 468.78 227.56 467.85 228.37 467.85C229.18 467.85 229.83 468.78 229.83 469.93V511.9C229.83 513.05 229.18 513.98 228.37 513.98Z" fill="#003CC9"/>
<path d="M246.92 513.979C246.11 513.979 245.46 513.049 245.46 511.899V480.859C245.46 479.709 246.11 478.779 246.92 478.779C247.73 478.779 248.38 479.709 248.38 480.859V511.899C248.38 513.049 247.73 513.979 246.92 513.979Z" fill="#003CC9"/>
<path d="M265.47 513.98C264.66 513.98 264.01 513.05 264.01 511.9V491.8C264.01 490.65 264.66 489.72 265.47 489.72C266.28 489.72 266.93 490.65 266.93 491.8V511.9C266.93 513.05 266.28 513.98 265.47 513.98Z" fill="#003CC9"/>
<path d="M144.9 513.98C144.09 513.98 143.44 513.05 143.44 511.9V491.8C143.44 490.65 144.09 489.72 144.9 489.72C145.71 489.72 146.36 490.65 146.36 491.8V511.9C146.36 513.05 145.71 513.98 144.9 513.98Z" fill="#003CC9"/>
<path d="M182 513.98C181.19 513.98 180.54 513.05 180.54 511.9V486.33C180.54 485.18 181.19 484.25 182 484.25C182.81 484.25 183.46 485.18 183.46 486.33V511.9C183.46 513.05 182.81 513.98 182 513.98Z" fill="#003CC9"/>
<path d="M200.55 513.979C199.74 513.979 199.09 513.049 199.09 511.899V480.859C199.09 479.709 199.74 478.779 200.55 478.779C201.36 478.779 202.01 479.709 202.01 480.859V511.899C202.01 513.049 201.36 513.979 200.55 513.979Z" fill="#003CC9"/>
<path d="M219.09 513.979C218.28 513.979 217.63 513.049 217.63 511.899V475.399C217.63 474.249 218.28 473.319 219.09 473.319C219.9 473.319 220.55 474.249 220.55 475.399V511.899C220.55 513.049 219.9 513.979 219.09 513.979Z" fill="#003CC9"/>
<path d="M237.64 513.98C236.83 513.98 236.18 513.05 236.18 511.9V469.93C236.18 468.78 236.83 467.85 237.64 467.85C238.45 467.85 239.1 468.78 239.1 469.93V511.9C239.1 513.05 238.45 513.98 237.64 513.98Z" fill="#003CC9"/>
<path d="M256.19 513.979C255.38 513.979 254.73 513.049 254.73 511.899V480.859C254.73 479.709 255.38 478.779 256.19 478.779C257 478.779 257.65 479.709 257.65 480.859V511.899C257.65 513.049 257 513.979 256.19 513.979Z" fill="#003CC9"/>
<path d="M143.56 429.13C144.74 418.72 154.17 411.21 164.58 412.38C174.99 413.56 182.5 422.99 181.33 433.4C180.16 443.81 170.72 451.32 160.31 450.15C149.9 448.97 142.39 439.54 143.56 429.13ZM179.3 433.17C180.35 423.87 173.64 415.45 164.34 414.4C155.04 413.35 146.62 420.06 145.57 429.36C144.52 438.66 151.23 447.08 160.53 448.13C169.83 449.18 178.25 442.47 179.3 433.17Z" fill="#E8E8E8"/>
<path d="M165.39 447.98C163.2 448.37 160.88 448.34 158.54 447.79C150.64 445.94 145.09 438.58 145.49 430.47C145.97 420.6 154.69 413.32 164.35 414.41C171.91 415.26 177.75 420.99 179.11 428.1C179.19 428.53 179.55 428.85 179.99 428.9C180.66 428.98 181.23 428.38 181.1 427.71C179.51 419.42 172.46 412.81 163.47 412.31C153.72 411.77 145.04 418.88 143.64 428.55C142.1 439.2 149.7 448.97 160.31 450.17C162.18 450.38 164.03 450.31 165.79 449.99C166.22 449.91 166.55 449.55 166.6 449.11C166.68 448.43 166.07 447.88 165.4 448L165.39 447.98Z" fill="#003CC9"/>
<path d="M160.89 444.96C153.34 444.11 147.89 437.27 148.74 429.72C149.59 422.17 156.43 416.72 163.98 417.57C171.53 418.42 176.98 425.26 176.13 432.81C175.28 440.36 168.44 445.81 160.89 444.96ZM163.82 419.04C157.08 418.28 150.97 423.14 150.21 429.89C149.45 436.64 154.31 442.74 161.06 443.5C167.81 444.26 173.91 439.4 174.67 432.65C175.43 425.9 170.57 419.8 163.82 419.04Z" fill="#E8E8E8"/>
<path d="M174.56 429.129C174.84 430.719 174.82 432.399 174.42 434.099C173.08 439.829 167.74 443.849 161.86 443.569C154.7 443.219 149.42 436.899 150.21 429.889C150.83 424.409 154.98 420.169 160.14 419.179C160.45 419.119 160.68 418.859 160.72 418.539C160.78 418.049 160.34 417.639 159.86 417.729C153.85 418.879 149.05 423.999 148.69 430.519C148.3 437.589 153.46 443.889 160.46 444.899C168.18 446.019 175.27 440.509 176.14 432.809C176.29 431.449 176.24 430.119 176.01 428.829C175.95 428.509 175.69 428.279 175.37 428.239C174.88 428.179 174.48 428.619 174.57 429.109L174.56 429.129Z" fill="#44B4FF"/>
<path d="M260.2 413.34H199.46C198.068 413.34 196.94 414.466 196.94 415.855C196.94 417.244 198.068 418.37 199.46 418.37H260.2C261.592 418.37 262.72 417.244 262.72 415.855C262.72 414.466 261.592 413.34 260.2 413.34Z" fill="#B3B3B3"/>
<path d="M244.46 423.72H199.13C197.92 423.72 196.94 424.7 196.94 425.91V426.56C196.94 427.769 197.92 428.75 199.13 428.75H244.46C245.669 428.75 246.65 427.769 246.65 426.56V425.91C246.65 424.7 245.669 423.72 244.46 423.72Z" fill="#B3B3B3"/>
<defs>
<filter id="filter0_bd_2256_5045" x="27" y="-16" width="355.26" height="305.49" filterUnits="userSpaceOnUse" color-interpolation-filters="sRGB">
<feFlood flood-opacity="0" result="BackgroundImageFix"/>
<feGaussianBlur in="BackgroundImageFix" stdDeviation="10"/>
<feComposite in2="SourceAlpha" operator="in" result="effect1_backgroundBlur_2256_5045"/>
<feColorMatrix in="SourceAlpha" type="matrix" values="0 0 0 0 0 0 0 0 0 0 0 0 0 0 0 0 0 0 127 0" result="hardAlpha"/>
<feOffset dy="4"/>
<feGaussianBlur stdDeviation="15"/>
<feComposite in2="hardAlpha" operator="out"/>
<feColorMatrix type="matrix" values="0 0 0 0 0.0651253 0 0 0 0 0.0901955 0 0 0 0 0.201872 0 0 0 0.1 0"/>
<feBlend mode="normal" in2="effect1_backgroundBlur_2256_5045" result="effect2_dropShadow_2256_5045"/>
<feBlend mode="normal" in="SourceGraphic" in2="effect2_dropShadow_2256_5045" result="shape"/>
</filter>
<filter id="filter1_bd_2256_5045" x="119.57" y="265.76" width="294.25" height="201.08" filterUnits="userSpaceOnUse" color-interpolation-filters="sRGB">
<feFlood flood-opacity="0" result="BackgroundImageFix"/>
<feGaussianBlur in="BackgroundImageFix" stdDeviation="10"/>
<feComposite in2="SourceAlpha" operator="in" result="effect1_backgroundBlur_2256_5045"/>
<feColorMatrix in="SourceAlpha" type="matrix" values="0 0 0 0 0 0 0 0 0 0 0 0 0 0 0 0 0 0 127 0" result="hardAlpha"/>
<feOffset dy="4"/>
<feGaussianBlur stdDeviation="15"/>
<feComposite in2="hardAlpha" operator="out"/>
<feColorMatrix type="matrix" values="0 0 0 0 0.0651253 0 0 0 0 0.0901955 0 0 0 0 0.201872 0 0 0 0.1 0"/>
<feBlend mode="normal" in2="effect1_backgroundBlur_2256_5045" result="effect2_dropShadow_2256_5045"/>
<feBlend mode="normal" in="SourceGraphic" in2="effect2_dropShadow_2256_5045" result="shape"/>
</filter>
<filter id="filter2_bd_2256_5045" x="18.05" y="367.12" width="294.25" height="201.08" filterUnits="userSpaceOnUse" color-interpolation-filters="sRGB">
<feFlood flood-opacity="0" result="BackgroundImageFix"/>
<feGaussianBlur in="BackgroundImageFix" stdDeviation="10"/>
<feComposite in2="SourceAlpha" operator="in" result="effect1_backgroundBlur_2256_5045"/>
<feColorMatrix in="SourceAlpha" type="matrix" values="0 0 0 0 0 0 0 0 0 0 0 0 0 0 0 0 0 0 127 0" result="hardAlpha"/>
<feOffset dy="4"/>
<feGaussianBlur stdDeviation="15"/>
<feComposite in2="hardAlpha" operator="out"/>
<feColorMatrix type="matrix" values="0 0 0 0 0.0651253 0 0 0 0 0.0901955 0 0 0 0 0.201872 0 0 0 0.1 0"/>
<feBlend mode="normal" in2="effect1_backgroundBlur_2256_5045" result="effect2_dropShadow_2256_5045"/>
<feBlend mode="normal" in="SourceGraphic" in2="effect2_dropShadow_2256_5045" result="shape"/>
</filter>
<clipPath id="clip0_2256_5045">
<rect width="419" height="583" fill="white"/>
</clipPath>
</defs>
</svg>
