<svg width="44" height="44" viewBox="0 0 44 44" fill="none" xmlns="http://www.w3.org/2000/svg">
<g clip-path="url(#clip0_2248_661)">
<path d="M20.1433 40.3595C20.0254 40.3595 19.9076 40.3372 19.793 40.2894L18.9968 39.9582C18.5732 39.783 18.3407 39.3149 18.4554 38.8722L18.6019 38.3021C18.3089 38.0665 18.0414 37.8021 17.8089 37.506L17.2388 37.6525C16.793 37.7703 16.328 37.5346 16.1528 37.1111L15.8216 36.3149C15.6465 35.8913 15.8121 35.3977 16.207 35.1652L16.7133 34.8658C16.6719 34.49 16.6719 34.1142 16.7133 33.7416L16.207 33.4423C15.8121 33.2098 15.6496 32.7162 15.8216 32.2926L16.1528 31.4964C16.328 31.0728 16.793 30.8404 17.2356 30.955L17.8057 31.1015C18.0414 30.8085 18.3057 30.541 18.6019 30.3053L18.4554 29.7353C18.3407 29.2926 18.5732 28.8276 18.9968 28.6525L19.793 28.3244C20.2165 28.1493 20.7102 28.3149 20.9426 28.7098L21.242 29.2162C21.6178 29.1747 21.9936 29.1747 22.3662 29.2162L22.6656 28.7098C22.8981 28.3149 23.3917 28.1493 23.8153 28.3244L24.6114 28.6525C25.035 28.8276 25.2675 29.2958 25.1528 29.7384L25.0063 30.3053C25.2993 30.541 25.5668 30.8053 25.8025 31.1015L26.3726 30.955C26.8121 30.8435 27.2802 31.0728 27.4554 31.4964L27.7866 32.2926C27.9618 32.7162 27.7961 33.2098 27.4044 33.4423L26.8949 33.7416C26.9363 34.1142 26.9363 34.49 26.8949 34.8658L27.4012 35.1652C27.7961 35.3977 27.9618 35.8913 27.7866 36.3149L27.4554 37.1111C27.2802 37.5346 26.8153 37.7671 26.3726 37.6525L25.8025 37.506C25.5668 37.799 25.3025 38.0665 25.0063 38.299L25.1528 38.8722C25.2675 39.3149 25.035 39.7798 24.6114 39.955L23.8153 40.2862C23.3949 40.4614 22.8981 40.2958 22.6656 39.904L22.3662 39.3945C21.9936 39.4359 21.6178 39.4359 21.242 39.3945L20.9426 39.9009C20.7739 40.1875 20.4649 40.3531 20.1433 40.3531V40.3595ZM22.6942 38.0697C22.9172 38.0697 23.1242 38.1843 23.242 38.3818L23.6082 39.0028L23.8503 38.904L23.6719 38.2066C23.6051 37.9455 23.7102 37.6684 23.9363 37.5187C24.3662 37.2353 24.7293 36.8722 25.0159 36.4391C25.1656 36.213 25.4395 36.1079 25.7038 36.1747L26.4012 36.3531L26.5 36.1111L25.8821 35.7448C25.6496 35.6079 25.5286 35.3372 25.5828 35.0697C25.6847 34.5601 25.6847 34.0474 25.5828 33.5442C25.5286 33.2798 25.6496 33.0091 25.8821 32.8722L26.5032 32.506L26.4044 32.2639L25.707 32.4423C25.4458 32.5091 25.1688 32.404 25.0191 32.1779C24.7325 31.7448 24.3694 31.3818 23.9395 31.0983C23.7133 30.9486 23.6051 30.6716 23.6751 30.4104L23.8535 29.713L23.6114 29.6142L23.2452 30.2321C23.1051 30.4646 22.8375 30.5824 22.57 30.5314C22.0668 30.4295 21.5541 30.4295 21.0446 30.5314C20.777 30.5856 20.5095 30.4646 20.3726 30.2321L20.0063 29.6111L19.7643 29.7098L19.9426 30.404C19.9554 30.455 19.9618 30.5091 19.9618 30.5633C19.9618 30.7862 19.8439 30.9869 19.6688 31.0983C19.242 31.3849 18.8853 31.7416 18.6051 32.162C18.4649 32.3818 18.1783 32.506 17.9108 32.4359L17.2133 32.2576L17.1146 32.4996L17.7356 32.8658C17.9681 33.0028 18.0891 33.2767 18.035 33.541C17.9331 34.0346 17.9299 34.5442 18.0286 35.0474C18.0382 35.0951 18.0446 35.1429 18.0446 35.1939C18.0446 35.4168 17.9267 35.627 17.7325 35.7416L17.1114 36.1079L17.2102 36.3499L17.9076 36.1716C18.1719 36.1015 18.4458 36.2098 18.5955 36.4359C18.8821 36.869 19.2452 37.2321 19.6719 37.5155C19.8981 37.6652 20.0063 37.9423 19.9363 38.2034L19.7579 38.9009L20 38.9996L20.3662 38.3786C20.5032 38.1461 20.7739 38.0219 21.0382 38.0792C21.5446 38.1843 22.0573 38.1811 22.5637 38.0792C22.6051 38.0697 22.6496 38.0665 22.6911 38.0665L22.6942 38.0697Z" fill="#2A21D9"/>
<path d="M21.8025 36.6715C21.5031 36.6715 21.1974 36.6142 20.9012 36.4932C19.6974 35.9932 19.1242 34.611 19.6242 33.4072C20.1242 32.2034 21.5063 31.6301 22.7102 32.1269C23.914 32.6269 24.4872 34.0123 23.9904 35.2161C23.6146 36.1237 22.7324 36.6715 21.8057 36.6715H21.8025ZM21.8057 33.2193C21.3758 33.2193 20.9681 33.4741 20.793 33.8944C20.5637 34.4486 20.828 35.0887 21.3821 35.3212C21.9395 35.5505 22.5796 35.2862 22.8089 34.732C23.0382 34.1747 22.7738 33.5346 22.2165 33.3021C22.0796 33.2448 21.9395 33.2193 21.8025 33.2193H21.8057Z" fill="black"/>
<path d="M16.4172 15.0446H2.84076C1.27389 15.0446 0 13.7707 0 12.2038V2.07962C0 0.933121 0.933121 0 2.07962 0H7.46815C8.38217 0 9.23885 0.407643 9.81529 1.11783L11.1274 2.73885H17.1051C18.293 2.73885 19.258 3.70382 19.258 4.89172V12.2038C19.258 13.7707 17.9841 15.0446 16.4172 15.0446ZM2.07962 1.2707C1.63376 1.2707 1.2707 1.63376 1.2707 2.07962V12.2038C1.2707 13.0701 1.97452 13.7739 2.84076 13.7739H16.4172C17.2834 13.7739 17.9873 13.0701 17.9873 12.2038V4.8949C17.9873 4.40764 17.5924 4.01274 17.1051 4.01274H10.8248C10.6338 4.01274 10.4522 3.92675 10.3312 3.77707L8.82803 1.92038C8.49363 1.50955 8 1.2707 7.46815 1.2707H2.07962Z" fill="black"/>
<path d="M40.7675 15.0446H27.1911C25.6242 15.0446 24.3503 13.7707 24.3503 12.2038V2.07962C24.3503 0.933121 25.2834 0 26.4299 0H31.8185C32.7325 0 33.5892 0.407643 34.1656 1.11783L35.4809 2.73885H41.4586C42.6465 2.73885 43.6115 3.70382 43.6115 4.89172V12.2038C43.6115 13.7707 42.3376 15.0446 40.7707 15.0446H40.7675ZM26.4299 1.2707C25.9841 1.2707 25.621 1.63376 25.621 2.07962V12.2038C25.621 13.0701 26.3248 13.7739 27.1911 13.7739H40.7675C41.6337 13.7739 42.3376 13.0701 42.3376 12.2038V4.8949C42.3376 4.40764 41.9427 4.01274 41.4554 4.01274H35.1752C34.9841 4.01274 34.8025 3.92675 34.6815 3.77707L33.1783 1.92038C32.8439 1.50955 32.3503 1.2707 31.8185 1.2707H26.4299Z" fill="black"/>
<path d="M33.9777 20.621H9.63058C9.28027 20.621 8.99683 20.3376 8.99683 19.9873V14.414C8.99683 14.0637 9.28027 13.7803 9.63058 13.7803C9.9809 13.7803 10.2643 14.0637 10.2643 14.414V19.3535H33.344V14.414C33.344 14.0637 33.6274 13.7803 33.9777 13.7803C34.328 13.7803 34.6115 14.0637 34.6115 14.414V19.9873C34.6115 20.3376 34.328 20.621 33.9777 20.621Z" fill="black"/>
<path d="M21.8026 25.892C21.4523 25.892 21.1688 25.6085 21.1688 25.2582V19.9843C21.1688 19.634 21.4523 19.3506 21.8026 19.3506C22.1529 19.3506 22.4363 19.634 22.4363 19.9843V25.2582C22.4363 25.6085 22.1529 25.892 21.8026 25.892Z" fill="black"/>
<path d="M21.8026 44.0001C16.4618 44.0001 12.1147 39.6529 12.1147 34.3122C12.1147 28.9714 16.4618 24.6243 21.8026 24.6243C27.1433 24.6243 31.4904 28.9714 31.4904 34.3122C31.4904 39.6529 27.1433 44.0001 21.8026 44.0001ZM21.8026 25.8918C17.1592 25.8918 13.3822 29.6689 13.3822 34.3122C13.3822 38.9555 17.1592 42.7325 21.8026 42.7325C26.4459 42.7325 30.2229 38.9555 30.2229 34.3122C30.2229 29.6689 26.4459 25.8918 21.8026 25.8918Z" fill="black"/>
</g>
<defs>
<clipPath id="clip0_2248_661">
<rect width="43.6083" height="44" fill="white"/>
</clipPath>
</defs>
</svg>
