<svg viewBox="0 0 36 48" fill="none" xmlns="http://www.w3.org/2000/svg">
<g clip-path="url(#clip0_2248_275)">
<path d="M17.8804 22.467C17.0974 22.467 16.2657 22.2791 15.5348 21.9416C15.1868 21.7815 15.0337 21.3674 15.1973 21.0194C15.3574 20.6713 15.7715 20.5182 16.1195 20.6818C16.6693 20.9358 17.2957 21.0785 17.8804 21.0785C18.7539 21.0785 19.6865 20.7061 19.6865 19.6587C19.6865 18.8722 19.2411 18.4198 17.9883 17.9395C16.7911 17.515 15.1799 16.7285 15.1799 14.8562C15.1799 13.1266 16.6519 11.8738 18.6808 11.8738C19.4151 11.8738 20.0728 11.9887 20.6296 12.2114C20.9846 12.3541 21.1586 12.7612 21.0159 13.1162C20.8732 13.4712 20.4695 13.6452 20.1111 13.5025C19.8431 13.3946 19.3768 13.2659 18.6808 13.2659C17.4175 13.2659 16.5684 13.9062 16.5684 14.8597C16.5684 15.4061 16.7946 16.0464 18.4685 16.638C19.262 16.9408 21.075 17.6402 21.075 19.6621C21.075 21.3152 19.7631 22.474 17.8804 22.474V22.467Z" fill="#003CC9"/>
<path d="M18.2389 13.2589C17.856 13.2589 17.5428 12.9492 17.5428 12.5629V10.9377C17.5428 10.5549 17.8526 10.2417 18.2389 10.2417C18.6251 10.2417 18.9349 10.5514 18.9349 10.9377V12.5629C18.9349 12.9457 18.6251 13.2589 18.2389 13.2589Z" fill="#003CC9"/>
<path d="M18.2389 24.1757C17.856 24.1757 17.5428 23.866 17.5428 23.4797V21.771C17.5428 21.3882 17.8526 21.075 18.2389 21.075C18.6251 21.075 18.9349 21.3847 18.9349 21.771V23.4797C18.9349 23.8625 18.6251 24.1757 18.2389 24.1757Z" fill="#003CC9"/>
<path d="M21.7154 40.5352H14.2577C13.2555 40.5352 12.4376 39.7174 12.4376 38.7152V38.3533C12.4376 36.5158 11.4041 34.8384 9.74063 33.9789C3.44178 30.7285 -0.36885 24.0469 0.0278727 16.9511C0.535957 7.93783 7.70481 0.668052 16.7076 0.0451275C21.7641 -0.302875 26.5735 1.39538 30.2589 4.83364C33.892 8.22667 35.9765 13.0187 35.9765 17.9881C35.9765 24.809 32.1938 30.9617 26.1037 34.045C24.5412 34.835 23.532 36.5297 23.532 38.3567V38.7152C23.532 39.7174 22.7142 40.5352 21.7119 40.5352H21.7154ZM18.0022 1.38842C17.6055 1.38842 17.2053 1.40234 16.8016 1.43018C8.49826 2.00786 1.88273 8.71387 1.4164 17.0277C1.04752 23.5736 4.56583 29.7437 10.3775 32.7469C12.5072 33.8466 13.8262 35.9938 13.8262 38.3533V38.7152C13.8262 38.9518 14.0176 39.1467 14.2577 39.1467H21.7154C21.952 39.1467 22.1469 38.9553 22.1469 38.7152V38.3567C22.1469 36.0112 23.4554 33.8327 25.4808 32.8061C31.101 29.9594 34.5915 24.2835 34.5915 17.9881C34.5915 13.4015 32.667 8.97835 29.3123 5.84633C26.2046 2.94747 22.227 1.38494 18.0022 1.38494V1.38842Z" fill="black"/>
<path d="M20.4486 47.9999H15.5279C15.1938 47.9999 14.9084 47.7633 14.8458 47.4362C14.7832 47.1091 14.9606 46.7854 15.2704 46.6601L17.9883 45.5674H14.4003C14.0558 45.5674 13.767 45.3168 13.7148 44.9758C13.6626 44.6382 13.8679 44.3111 14.195 44.2067L17.6368 43.1314H13.7844C13.4016 43.1314 13.0884 42.8217 13.0884 42.4354C13.0884 42.0491 13.3981 41.7394 13.7844 41.7394H22.1956C22.5401 41.7394 22.829 41.9899 22.8812 42.331C22.9334 42.6685 22.7281 42.9957 22.4009 43.1001L18.9592 44.1754H21.5796C21.9137 44.1754 22.1991 44.412 22.2617 44.7392C22.3244 45.0663 22.1469 45.3899 21.8406 45.5152L19.1193 46.6079H20.4521C20.8349 46.6079 21.1481 46.9177 21.1481 47.3039C21.1481 47.6902 20.8384 47.9999 20.4521 47.9999H20.4486Z" fill="black"/>
</g>
<defs>
<clipPath id="clip0_2248_275">
<rect width="35.98" height="48" fill="white"/>
</clipPath>
</defs>
</svg>
