<svg width="42" height="42" viewBox="0 0 42 42" fill="none" xmlns="http://www.w3.org/2000/svg">
<g clip-path="url(#clip0_2248_628)">
<path d="M23.4251 37.1137C19.0932 37.1137 14.7553 35.6146 11.2757 32.5887C10.9508 32.3067 10.6258 32.0063 10.3131 31.6936C10.0035 31.3839 9.70302 31.059 9.41791 30.7309C3.05047 23.4131 3.44288 12.3 10.31 5.43283C17.5512 -1.80834 29.3327 -1.80834 36.5738 5.43283C43.8119 12.6709 43.8119 24.4524 36.5708 31.6936C32.9716 35.2957 28.2014 37.1168 23.4281 37.1168L23.4251 37.1137ZM23.4404 1.21444C18.8081 1.21444 14.4487 3.02013 11.1715 6.29736C4.75806 12.7139 4.39018 23.0943 10.3376 29.9277C10.6043 30.2343 10.8864 30.5378 11.1746 30.829C11.4658 31.1203 11.7693 31.4023 12.0728 31.666C18.9062 37.6134 29.2867 37.2455 35.7001 30.829C42.463 24.0661 42.4661 13.0603 35.7032 6.29736C32.4259 3.02013 28.0696 1.21444 23.4373 1.21444H23.4404Z" fill="black"/>
<path d="M2.67032 42.0007C1.96521 42.0007 1.28156 41.7187 0.784922 41.222C0.263754 40.7008 -0.021355 39.9773 0.00317055 39.2416C0.0276961 38.5027 0.361857 37.8038 0.916747 37.3194L9.47923 29.8667C9.60186 29.7594 9.76127 29.7073 9.92375 29.7195C10.0862 29.7318 10.2365 29.8054 10.3438 29.928C10.6105 30.2346 10.8925 30.5381 11.1807 30.8262C11.4719 31.1175 11.7754 31.3995 12.0789 31.6632C12.2016 31.7705 12.2782 31.9207 12.2874 32.0832C12.2997 32.2457 12.2445 32.4051 12.1372 32.5277L4.68142 41.0871C4.19704 41.642 3.49806 41.9762 2.75923 42.0007C2.72857 42.0007 2.69791 42.0007 2.67032 42.0007ZM9.82565 31.1849L1.71689 38.2422C1.41339 38.5058 1.23864 38.8768 1.22332 39.2814C1.20799 39.6892 1.36127 40.0693 1.64638 40.3575C1.93149 40.6426 2.30551 40.7898 2.71631 40.7775C3.12405 40.7652 3.49193 40.5874 3.75864 40.2839L10.8159 32.1813C10.6442 32.0219 10.4756 31.8594 10.31 31.6938C10.1445 31.5283 9.982 31.3597 9.82259 31.188L9.82565 31.1849Z" fill="black"/>
<path d="M23.6242 27.211C20.4328 27.211 17.8362 24.1759 17.8362 20.448C17.8362 18.0721 18.9215 15.8464 20.672 14.6355C22.4562 13.3969 24.8107 13.4 26.5857 14.6416C28.3331 15.8495 29.4184 18.0752 29.4184 20.448C29.4184 24.1759 26.8187 27.211 23.6242 27.211ZM23.6242 14.9114C22.8333 14.9114 22.0515 15.1628 21.3679 15.638C19.9423 16.6251 19.0594 18.4645 19.0594 20.445C19.0594 23.4984 21.1073 25.9847 23.6273 25.9847C26.1473 25.9847 28.2013 23.4984 28.2013 20.445C28.2013 18.4676 27.3153 16.6282 25.8928 15.641C25.2061 15.1628 24.4244 14.9083 23.6304 14.9083L23.6242 14.9114Z" fill="#2A21D9"/>
<path d="M26.2362 15.7515C26.1136 15.7515 25.991 15.7147 25.8867 15.6411C24.5225 14.6877 22.7413 14.6846 21.3679 15.6381C21.1962 15.7576 20.9724 15.7791 20.7793 15.6994C20.5861 15.6166 20.4482 15.4419 20.4145 15.2334C20.3746 14.982 20.3531 14.7306 20.3531 14.4915C20.3531 12.3394 21.8216 10.5889 23.6242 10.5889C25.4269 10.5889 26.9015 12.3394 26.9015 14.4915C26.9015 14.7368 26.88 14.9881 26.8401 15.2395C26.8064 15.448 26.6685 15.6227 26.4753 15.7024C26.3987 15.7362 26.319 15.7515 26.2362 15.7515ZM23.6242 13.6883C24.3232 13.6883 25.013 13.8354 25.6599 14.1175C25.5219 12.8146 24.6604 11.809 23.6242 11.809C22.588 11.809 21.7358 12.8146 21.5947 14.1144C22.2385 13.8324 22.9283 13.6883 23.6242 13.6883Z" fill="#2A21D9"/>
<path d="M22.1587 12.3542C21.9472 12.3542 21.7418 12.2438 21.6284 12.0507L19.8564 8.99114C19.6878 8.6999 19.7859 8.32589 20.0802 8.15728C20.3714 7.98866 20.7454 8.08677 20.9141 8.38107L22.686 11.4406C22.8546 11.7319 22.7565 12.1059 22.4622 12.2745C22.3672 12.3297 22.2599 12.3573 22.1557 12.3573L22.1587 12.3542Z" fill="#2A21D9"/>
<path d="M19.4089 17.4924C19.3169 17.4924 19.2219 17.4709 19.133 17.428L16.4229 16.0607C16.2543 15.9749 16.1347 15.8185 16.0979 15.6346L15.5431 12.8663C15.4756 12.5352 15.6902 12.2133 16.0213 12.1458C16.3524 12.0784 16.6743 12.296 16.7417 12.6241L17.2384 15.1011L19.6848 16.3336C19.9852 16.4868 20.1079 16.8517 19.9546 17.1552C19.8473 17.3667 19.6327 17.4924 19.4089 17.4924Z" fill="#2A21D9"/>
<path d="M14.927 27.8C14.6112 27.8 14.3445 27.5578 14.3169 27.239C14.2893 26.9018 14.5407 26.6075 14.8749 26.5799L17.3918 26.3714L18.8971 24.0844C19.0841 23.8024 19.4642 23.7226 19.7432 23.9097C20.0252 24.0936 20.1049 24.4737 19.9179 24.7558L18.2502 27.2911C18.146 27.4475 17.9773 27.5486 17.7903 27.564L14.976 27.797C14.9576 27.797 14.9423 27.797 14.9239 27.797L14.927 27.8Z" fill="#2A21D9"/>
<path d="M18.4432 21.0612H15.4971C15.3806 21.0612 15.2641 21.0275 15.166 20.9662L12.9832 19.5682C12.6981 19.3843 12.6153 19.0072 12.7993 18.7221C12.9832 18.437 13.3603 18.3542 13.6454 18.5381L15.678 19.8411H18.4463C18.7835 19.8411 19.0564 20.1139 19.0564 20.4511C19.0564 20.7884 18.7835 21.0612 18.4463 21.0612H18.4432Z" fill="#2A21D9"/>
<path d="M25.0927 12.3547C24.9885 12.3547 24.8842 12.3271 24.7861 12.2719C24.4949 12.1033 24.3937 11.7293 24.5623 11.438L26.3343 8.37845C26.5029 8.08721 26.8769 7.98604 27.1682 8.15465C27.4594 8.32327 27.5606 8.69728 27.392 8.98852L25.62 12.0481C25.5066 12.2443 25.3012 12.3516 25.0896 12.3516L25.0927 12.3547Z" fill="#2A21D9"/>
<path d="M27.8426 17.4925C27.6188 17.4925 27.4042 17.3699 27.2969 17.1553C27.1466 16.8548 27.2662 16.487 27.5666 16.3337L30.0131 15.1013L30.5067 12.6242C30.571 12.2931 30.8929 12.0785 31.2271 12.1459C31.5582 12.2134 31.7728 12.5353 31.7053 12.8664L31.1504 15.6347C31.1137 15.8186 30.9941 15.975 30.8255 16.0608L28.1154 17.4281C28.0265 17.4741 27.9315 17.4925 27.8395 17.4925H27.8426Z" fill="#2A21D9"/>
<path d="M32.3247 27.7999C32.3094 27.7999 32.291 27.7999 32.2726 27.7999L29.4583 27.5669C29.2713 27.5516 29.1027 27.4504 28.9984 27.294L27.3307 24.7587C27.1437 24.4767 27.2234 24.0965 27.5054 23.9126C27.7875 23.7256 28.1646 23.8053 28.3516 24.0873L29.8568 26.3743L32.3738 26.5828C32.711 26.6104 32.9593 26.9078 32.9317 27.2419C32.9041 27.5608 32.6374 27.803 32.3216 27.803L32.3247 27.7999Z" fill="#2A21D9"/>
<path d="M31.7514 21.0612H28.8053C28.468 21.0612 28.1952 20.7884 28.1952 20.4511C28.1952 20.1139 28.468 19.8411 28.8053 19.8411H31.5705L33.6031 18.5381C33.8851 18.3542 34.2653 18.437 34.4461 18.7221C34.627 19.0072 34.5442 19.3843 34.2622 19.5682L32.0794 20.9662C31.9813 21.0306 31.8679 21.0612 31.7483 21.0612H31.7514Z" fill="#2A21D9"/>
</g>
<defs>
<clipPath id="clip0_2248_628">
<rect width="42" height="42" fill="white"/>
</clipPath>
</defs>
</svg>
