<svg viewBox="0 0 115 115" fill="none" xmlns="http://www.w3.org/2000/svg">
<rect width="115" height="115" rx="15" fill="#003CC9"/>
<g clip-path="url(#clip0_2248_206)">
<path d="M45.8457 28.427C49.9623 28.427 52.4468 31.1937 52.4468 37.2186V47.6756H47.0516V38.8112C47.0516 35.5167 45.619 33.8876 43.4609 33.8876C41.6836 33.8876 39.2354 35.4803 39.2354 40.3675V47.6756H33.8402V38.8112C33.8402 35.362 32.5526 33.8876 30.4399 33.8876C28.7805 33.8876 26.0603 35.4439 26.0603 40.3675V47.6756H20.6742V28.7273H26.0693V32.8228C26.0693 33.6965 25.9152 34.7977 25.7338 35.6623H25.8064C25.9968 34.7886 26.1872 33.6874 26.5953 32.8956C27.9191 29.8286 30.2585 28.427 32.5617 28.427C36.4517 28.427 38.0385 30.8479 38.7548 33.0503C39.0541 33.924 38.9815 35.0161 38.9453 35.8898H39.0178C39.0541 35.0161 39.2808 33.9149 39.6253 33.1231C40.8313 30.4747 42.6448 28.427 45.8547 28.427H45.8457Z" fill="white"/>
<path d="M69.784 28.7273H75.6688L66.4562 50.3603C64.8331 54.6014 61.5506 55.4751 59.3563 55.4751H53.6528V51.498H56.4819C57.4612 51.498 60.3356 51.1976 60.934 49.605L61.6504 47.4116L53.6256 28.7273H59.5104L64.0805 39.6758C64.4976 40.4676 64.6427 41.5688 64.6427 42.4425H64.7152C64.7152 41.5688 64.8693 40.4676 65.2048 39.6758L69.784 28.7273Z" fill="white"/>
<path d="M41.2031 68.0073V74.3325C41.2031 75.279 41.5839 75.5429 42.5269 75.5429H43.0528V79.6383H39.58C37.5398 79.6383 35.8079 78.0457 35.8079 76.3074V74.7875C35.3908 77.5178 33.4322 78.801 31.5824 79.3744C30.6394 79.6747 29.6238 79.8295 28.4904 79.8295C28.037 79.8295 26.2235 79.9387 24.1833 78.9922C22.1431 78.0821 20.6742 76.4166 20.6742 74.2596C20.6742 70.1642 24.4825 68.9902 28.3 68.8082C32.1083 68.6534 35.8079 68.881 35.8079 67.5977V67.5613C35.7716 65.4408 34.076 64.6035 30.9386 64.6035C28.3362 64.6035 26.0693 65.0585 25.8427 67.4794L21.0097 67.2155C21.2001 62.5194 26.4048 60.59 30.9386 60.59C36.1071 60.59 41.2031 62.4102 41.2031 68.0164V68.0073ZM29.923 76.3802C30.6394 76.3802 31.927 76.3074 33.3596 75.6976C34.7923 75.1333 35.8169 74.1413 35.8169 72.9309V70.8468C33.5501 72.5123 26.2688 70.3553 26.2688 74.1049C26.2688 76.1162 28.8712 76.3802 29.9321 76.3802H29.923Z" fill="white"/>
<path d="M58.7216 60.4716C64.951 60.4716 68.4238 63.6206 68.4238 70.1733C68.4238 76.726 64.951 79.8294 58.7216 79.8749C56.2643 79.8749 53.2901 78.7373 51.5854 76.9535C50.9779 76.3437 50.6061 75.2516 50.3432 74.4507H50.2706C50.5336 75.3244 50.7603 76.3801 50.7603 77.2538V87.2194H45.3651L45.3288 60.6991H50.7603V63.0836C50.7603 63.9573 50.5336 65.0494 50.2706 65.8503L50.3432 65.8867C50.6061 65.0949 50.9869 63.9937 51.5854 63.3839C53.281 61.5637 56.228 60.4625 58.7216 60.4625V60.4716ZM63.0649 70.1642C63.0649 66.8696 61.6685 64.8219 57.2526 64.8219C53.5893 64.8219 50.7603 66.9424 50.7603 70.1642C50.7603 73.3859 53.5893 75.7704 57.2526 75.7704C61.6685 75.7704 63.0649 73.4587 63.0649 70.1642Z" fill="white"/>
<path d="M84.0925 60.4716C90.3219 60.4716 93.7948 63.6206 93.7948 70.1733C93.7948 76.726 90.3219 79.8294 84.0925 79.8749C81.6352 79.8749 78.6611 78.7373 76.9564 76.9535C76.3489 76.3437 75.9771 75.2516 75.7141 74.4507H75.6416C75.9045 75.3244 76.1312 76.3801 76.1312 77.2538V87.2194H70.736L70.6998 60.6991H76.1312V63.0836C76.1312 63.9573 75.9045 65.0494 75.6416 65.8503L75.7141 65.8867C75.9771 65.0949 76.3579 63.9937 76.9564 63.3839C78.652 61.5637 81.599 60.4625 84.0925 60.4625V60.4716ZM88.4359 70.1642C88.4359 66.8696 87.0395 64.8219 82.6236 64.8219C78.9603 64.8219 76.1312 66.9424 76.1312 70.1642C76.1312 73.3859 78.9603 75.7704 82.6236 75.7704C87.0395 75.7704 88.4359 73.4587 88.4359 70.1642Z" fill="white"/>
</g>
<defs>
<clipPath id="clip0_2248_206">
<rect width="73.1207" height="58.7833" fill="white" transform="translate(20.6742 28.427)"/>
</clipPath>
</defs>
</svg>
