<svg width="30" height="42" viewBox="0 0 30 42" fill="none" xmlns="http://www.w3.org/2000/svg">
<g clip-path="url(#clip0_2248_648)">
<path d="M29.3899 42H0.613183C0.275933 42 0 41.7291 0 41.3943V6.02089C0 5.68606 0.272867 5.41211 0.613183 5.41211H8.94635C9.2836 5.41211 9.55953 5.68302 9.55953 6.02089V8.66606H20.4466V6.02089C20.4466 5.68606 20.7195 5.41211 21.0598 5.41211H29.3929C29.7302 5.41211 30.0061 5.68302 30.0061 6.02089V41.3912C30.0061 41.7261 29.7333 41.997 29.3929 41.997L29.3899 42ZM1.2233 40.7855H28.7767V6.62968H21.6668V9.27484C21.6668 9.60967 21.394 9.88363 21.0537 9.88363H8.94635C8.6091 9.88363 8.33316 9.61272 8.33316 9.27484V6.62968H1.2233V40.7855Z" fill="black"/>
<path d="M21.0567 9.88056H8.94637C8.60912 9.88056 8.33319 9.60965 8.33319 9.27178V2.97087C8.33319 2.63603 8.60606 2.36208 8.94637 2.36208H12.1135C12.3771 1.01667 13.5728 0 15.0046 0C16.4364 0 17.6291 1.01667 17.8927 2.36208H21.0598C21.3971 2.36208 21.673 2.63299 21.673 2.97087V9.27482C21.673 9.60965 21.4001 9.88361 21.0598 9.88361L21.0567 9.88056ZM9.55649 8.66604H20.4436V3.57661H17.3317C16.9944 3.57661 16.7185 3.3057 16.7185 2.96782V2.91607C16.7185 1.9755 15.9489 1.21148 15.0016 1.21148C14.0542 1.21148 13.2816 1.9755 13.2816 2.91607V2.96782C13.2816 3.30265 13.0087 3.57661 12.6684 3.57661H9.55649V8.66604Z" fill="black"/>
<path d="M23.8774 17.7735H6.1257C5.78844 17.7735 5.51251 17.5026 5.51251 17.1647C5.51251 16.8268 5.78538 16.5559 6.1257 16.5559H23.8774C24.2146 16.5559 24.4905 16.8268 24.4905 17.1647C24.4905 17.5026 24.2177 17.7735 23.8774 17.7735Z" fill="#2A21D9"/>
<path d="M23.8774 21.7093H6.1257C5.78844 21.7093 5.51251 21.4384 5.51251 21.1005C5.51251 20.7626 5.78538 20.4917 6.1257 20.4917H23.8774C24.2146 20.4917 24.4905 20.7626 24.4905 21.1005C24.4905 21.4384 24.2177 21.7093 23.8774 21.7093Z" fill="#2A21D9"/>
<path d="M23.8774 25.6485H6.1257C5.78844 25.6485 5.51251 25.3776 5.51251 25.0397C5.51251 24.7018 5.78538 24.4309 6.1257 24.4309H23.8774C24.2146 24.4309 24.4905 24.7018 24.4905 25.0397C24.4905 25.3776 24.2177 25.6485 23.8774 25.6485Z" fill="#2A21D9"/>
<path d="M23.8774 29.5838H6.1257C5.78844 29.5838 5.51251 29.3129 5.51251 28.975C5.51251 28.6371 5.78538 28.3662 6.1257 28.3662H23.8774C24.2146 28.3662 24.4905 28.6371 24.4905 28.975C24.4905 29.3129 24.2177 29.5838 23.8774 29.5838Z" fill="#2A21D9"/>
</g>
<defs>
<clipPath id="clip0_2248_648">
<rect width="30" height="42" fill="white"/>
</clipPath>
</defs>
</svg>
