<svg width="713" height="580" viewBox="0 0 713 580" fill="none" xmlns="http://www.w3.org/2000/svg">
<path d="M199.333 577C199.333 578.473 200.527 579.667 202 579.667C203.473 579.667 204.667 578.473 204.667 577C204.667 575.527 203.473 574.333 202 574.333C200.527 574.333 199.333 575.527 199.333 577ZM515.333 577C515.333 578.473 516.527 579.667 518 579.667C519.473 579.667 520.667 578.473 520.667 577C520.667 575.527 519.473 574.333 518 574.333C516.527 574.333 515.333 575.527 515.333 577ZM21 1.5H692V0.5H21V1.5ZM711.5 21V557H712.5V21H711.5ZM1.5 557V21H0.5V557H1.5ZM202 576.5H21V577.5H202V576.5ZM692 576.5H518V577.5H692V576.5ZM0.5 557C0.5 568.322 9.67817 577.5 21 577.5V576.5C10.2305 576.5 1.5 567.77 1.5 557H0.5ZM711.5 557C711.5 567.77 702.77 576.5 692 576.5V577.5C703.322 577.5 712.5 568.322 712.5 557H711.5ZM692 1.5C702.77 1.5 711.5 10.2304 711.5 21H712.5C712.5 9.67816 703.322 0.5 692 0.5V1.5ZM21 0.5C9.67816 0.5 0.5 9.67815 0.5 21H1.5C1.5 10.2304 10.2304 1.5 21 1.5V0.5Z" fill="#003CC9"/>
</svg>
