<svg width="33" height="37" viewBox="0 0 33 37" fill="none" xmlns="http://www.w3.org/2000/svg">
<g clip-path="url(#clip0_2248_601)">
<path d="M32.4222 37H0.574866C0.257101 37 0 36.7407 0 36.4202V0.579764C0 0.259291 0.257101 0 0.574866 0H32.4222C32.74 0 32.9971 0.259291 32.9971 0.579764V36.4173C32.9971 36.7378 32.74 36.9971 32.4222 36.9971V37ZM1.15262 35.8376H31.8474V1.16244H1.15262V35.8405V35.8376Z" fill="black"/>
<path d="M32.4222 6.64879H0.574866C0.257101 6.64879 0 6.38949 0 6.06902C0 5.74855 0.257101 5.48926 0.574866 5.48926H32.4222C32.74 5.48926 32.9971 5.74855 32.9971 6.06902C32.9971 6.38949 32.74 6.64879 32.4222 6.64879Z" fill="black"/>
<path d="M3.92301 4.34126C3.60525 4.34126 3.34814 4.08197 3.34814 3.7615V3.25457C3.34814 2.9341 3.60525 2.6748 3.92301 2.6748C4.24078 2.6748 4.49788 2.9341 4.49788 3.25457V3.7615C4.49788 4.08197 4.24078 4.34126 3.92301 4.34126Z" fill="#2A21D9"/>
<path d="M7.11222 4.34126C6.79446 4.34126 6.53735 4.08197 6.53735 3.7615V3.25457C6.53735 2.9341 6.79446 2.6748 7.11222 2.6748C7.42999 2.6748 7.68709 2.9341 7.68709 3.25457V3.7615C7.68709 4.08197 7.42999 4.34126 7.11222 4.34126Z" fill="#2A21D9"/>
<path d="M10.3014 4.34126C9.98366 4.34126 9.72656 4.08197 9.72656 3.7615V3.25457C9.72656 2.9341 9.98366 2.6748 10.3014 2.6748C10.6192 2.6748 10.8763 2.9341 10.8763 3.25457V3.7615C10.8763 4.08197 10.6192 4.34126 10.3014 4.34126Z" fill="#2A21D9"/>
<path d="M13.1953 18.3548C13.0566 18.3548 12.918 18.3052 12.8082 18.2033L9.80386 15.4589C9.68542 15.3511 9.61609 15.1967 9.61609 15.0335C9.61609 14.8704 9.67964 14.7159 9.79808 14.6052L12.8024 11.7647C13.0335 11.5462 13.3975 11.5578 13.617 11.7909C13.8337 12.024 13.8221 12.3911 13.591 12.6125L11.0431 15.0218L13.5824 17.3438C13.8164 17.5594 13.8366 17.9265 13.6228 18.1654C13.5102 18.2907 13.3542 18.3548 13.1953 18.3548Z" fill="#2A21D9"/>
<path d="M19.8048 18.3547C19.6517 18.3547 19.4986 18.2936 19.3859 18.1712C19.1693 17.9381 19.1808 17.5681 19.4119 17.3496L21.9598 14.9403L19.4206 12.6183C19.1866 12.4027 19.1664 12.0356 19.3801 11.7967C19.5939 11.5607 19.9579 11.5403 20.1948 11.7559L23.1991 14.5003C23.3175 14.6081 23.3869 14.7625 23.3869 14.9257C23.3869 15.0888 23.3233 15.2432 23.2049 15.354L20.2006 18.1945C20.0908 18.2994 19.9463 18.3518 19.8077 18.3518L19.8048 18.3547Z" fill="#2A21D9"/>
<path d="M15.099 19.9164C15.0528 19.9164 15.0037 19.9105 14.9574 19.8989C14.6483 19.8202 14.4635 19.5027 14.5415 19.1938L16.812 10.2031C16.89 9.8914 17.202 9.70203 17.5111 9.78361C17.8202 9.86227 18.0051 10.1798 17.9271 10.4886L15.6565 19.4794C15.5901 19.7416 15.3561 19.9164 15.099 19.9164Z" fill="#2A21D9"/>
<path d="M23.1154 24.4466H9.88187C9.56411 24.4466 9.30701 24.1873 9.30701 23.8669C9.30701 23.5464 9.56411 23.2871 9.88187 23.2871H23.1154C23.4331 23.2871 23.6902 23.5464 23.6902 23.8669C23.6902 24.1873 23.4331 24.4466 23.1154 24.4466Z" fill="#2A21D9"/>
<path d="M23.1154 28.3041H9.88187C9.56411 28.3041 9.30701 28.0448 9.30701 27.7243C9.30701 27.4038 9.56411 27.1445 9.88187 27.1445H23.1154C23.4331 27.1445 23.6902 27.4038 23.6902 27.7243C23.6902 28.0448 23.4331 28.3041 23.1154 28.3041Z" fill="#2A21D9"/>
<path d="M23.1154 32.1642H9.88187C9.56411 32.1642 9.30701 31.9049 9.30701 31.5844C9.30701 31.2639 9.56411 31.0046 9.88187 31.0046H23.1154C23.4331 31.0046 23.6902 31.2639 23.6902 31.5844C23.6902 31.9049 23.4331 32.1642 23.1154 32.1642Z" fill="#2A21D9"/>
</g>
<defs>
<clipPath id="clip0_2248_601">
<rect width="33" height="37" fill="white"/>
</clipPath>
</defs>
</svg>
