<svg viewBox="0 0 288 431" fill="none" xmlns="http://www.w3.org/2000/svg">
<g filter="url(#filter0_f_2445_57)">
<path d="M288 32.3234L288 359.5C288 375.716 274.893 388.823 258.677 388.823H32.3234C16.1073 388.823 3 375.716 3 359.5V32.3234C3 16.1073 16.1073 3 32.3234 3L258.677 3C274.893 3 288 16.1073 288 32.3234Z" fill="url(#paint0_linear_2445_57)" fill-opacity="0.8"/>
</g>
<path d="M258.358 11.4023H31.9213C20.3668 11.4023 11 20.7691 11 32.3236V373.954C11 385.508 20.3668 394.875 31.9213 394.875H258.358C269.913 394.875 279.28 385.508 279.28 373.954V32.3236C279.28 20.7691 269.913 11.4023 258.358 11.4023Z" fill="#F7F7F7"/>
<path d="M258.358 60.4707H31.9213C20.3668 60.4707 11 69.8375 11 81.392V409.87C11 421.424 20.3668 430.791 31.9213 430.791H258.358C269.913 430.791 279.28 421.424 279.28 409.87V81.392C279.28 69.8375 269.913 60.4707 258.358 60.4707Z" fill="url(#paint1_linear_2445_57)"/>
<path d="M60.1432 251.181H34.6008C33.7655 251.181 33.0884 251.858 33.0884 252.693C33.0884 253.528 33.7655 254.205 34.6008 254.205H60.1432C60.9785 254.205 61.6556 253.528 61.6556 252.693C61.6556 251.858 60.9785 251.181 60.1432 251.181Z" fill="#E6E6E6"/>
<path d="M146.013 256.558H35.8609C34.3296 256.558 33.0882 257.78 33.0882 259.288C33.0882 260.796 34.3296 262.019 35.8609 262.019H146.013C147.544 262.019 148.785 260.796 148.785 259.288C148.785 257.78 147.544 256.558 146.013 256.558Z" fill="white" fill-opacity="0.7"/>
<g opacity="0.7">
<path d="M60.1432 272.186H34.6008C33.7655 272.186 33.0884 272.863 33.0884 273.698C33.0884 274.533 33.7655 275.21 34.6008 275.21H60.1432C60.9785 275.21 61.6556 274.533 61.6556 273.698C61.6556 272.863 60.9785 272.186 60.1432 272.186Z" fill="#E6E6E6" fill-opacity="0.7"/>
<path d="M99.465 277.563H35.8609C34.3296 277.563 33.0882 278.786 33.0882 280.294C33.0882 281.802 34.3296 283.025 35.8609 283.025H99.465C100.996 283.025 102.238 281.802 102.238 280.294C102.238 278.786 100.996 277.563 99.465 277.563Z" fill="white" fill-opacity="0.4"/>
</g>
<path d="M34.8516 153.398V150.709C33.0031 150.625 31.1547 150.121 30.0624 149.533L30.9026 146.256C32.0789 146.928 33.7593 147.517 35.6078 147.517C37.4563 147.517 38.2965 146.928 38.2965 145.752C38.2965 144.576 37.3722 143.988 35.2717 143.315C32.2469 142.307 30.2304 140.879 30.2304 138.19C30.2304 135.501 31.9949 133.737 35.0196 133.149V130.46H37.7923V132.981C39.6408 133.065 40.9851 133.485 41.9094 133.905L41.0692 137.098C40.313 136.762 39.0527 136.174 37.0362 136.174C35.0196 136.174 34.5995 136.93 34.5995 137.77C34.5995 138.61 35.6078 139.282 37.9604 140.207C41.3212 141.383 42.6656 142.979 42.6656 145.5C42.6656 148.021 40.9011 150.121 37.6243 150.709V153.566H34.8516V153.398Z" fill="#F8F8F8"/>
<path d="M61.3184 147.264V150.961H44.9343V150.373C44.9343 140.627 56.8653 140.963 56.8653 137.434C56.8653 133.905 55.1008 134.577 53.1683 134.577C51.2358 134.577 49.3874 135.922 49.3034 138.106H45.2703C45.5224 133.065 48.2111 131.048 53.4204 131.048C58.6297 131.048 61.1504 132.981 61.1504 136.846C61.1504 140.711 59.554 141.215 57.5374 142.307C56.1931 142.979 55.0168 143.652 54.0926 144.156C53.5884 144.408 52.9163 144.912 51.824 145.5C50.8157 146.172 50.0596 146.76 49.5554 147.348C50.6477 147.264 51.74 147.18 52.8323 147.18H61.2344L61.3184 147.264Z" fill="#F8F8F8"/>
<path d="M79.2155 144.912C79.2155 149.029 76.2747 151.129 71.5695 151.129C66.8644 151.129 63.0834 149.113 62.9994 144.408H67.0324C67.1164 146.004 68.7968 147.432 71.2335 147.432C73.6701 147.432 75.3505 146.172 75.3505 144.408C75.3505 142.643 73.8381 142.055 71.2335 141.887H69.6371V139.534H71.2335C73.8381 139.534 75.0144 138.526 75.0144 136.846C75.0144 135.165 73.334 134.073 71.2335 134.073C69.1329 134.073 67.4525 135.67 67.2845 137.35L63.3355 137.182C63.4195 132.897 66.6123 131.048 71.5695 131.048C76.5268 131.048 78.5433 132.645 78.5433 136.174C78.5433 139.703 77.535 138.778 76.1907 139.366C75.6026 139.619 74.8464 139.787 74.1742 139.787C74.3422 139.787 74.5103 139.787 74.6783 139.787C75.0144 139.787 75.6866 139.787 76.2747 140.039C78.2072 140.627 79.2995 141.887 79.2995 144.828L79.2155 144.912Z" fill="#F8F8F8"/>
<path d="M107.783 145.332C107.783 149.197 103.834 151.129 98.8763 151.129C93.9191 151.129 89.886 149.197 89.886 145.332C89.886 141.467 91.0623 141.803 92.9948 140.879C93.583 140.627 94.4232 140.543 95.0113 140.543C94.3392 140.543 93.4989 140.375 92.9948 140.039C91.6505 139.282 90.8943 138.106 90.8943 136.342C90.8943 132.813 94.2551 131.048 98.8763 131.048C103.497 131.048 106.774 132.813 106.774 136.342C106.774 139.871 105.934 139.282 104.59 140.039C104.086 140.375 103.245 140.543 102.573 140.543H102.909C103.329 140.543 104.086 140.543 104.59 140.879C106.522 141.719 107.699 143.147 107.699 145.248L107.783 145.332ZM103.834 144.744C103.834 142.559 101.565 141.971 98.9603 141.971H98.6243C96.3557 141.971 94.0871 142.559 94.0871 144.744C94.0871 146.928 96.1876 147.853 98.9603 147.853C101.733 147.853 103.834 147.012 103.834 144.744ZM94.8433 136.762C94.8433 138.694 96.5237 139.534 98.9603 139.534C101.397 139.534 102.993 138.694 102.993 136.762C102.993 134.829 101.229 133.905 98.9603 133.905C96.6918 133.905 94.8433 134.493 94.8433 136.762Z" fill="#F8F8F8"/>
<path d="M109.547 134.913V131.216H126.687V133.653L116.689 151.045H112.068L120.806 135.837C121.142 135.249 121.73 134.745 122.318 134.409C121.73 134.661 120.974 134.913 120.302 134.913H109.547Z" fill="#F8F8F8"/>
<path d="M139.879 143.231C139.038 143.735 138.282 143.987 137.61 144.071C136.938 144.071 136.518 144.155 136.266 144.155C134.837 144.155 132.905 143.735 131.224 142.643C129.544 141.551 128.368 139.786 128.368 137.518C128.368 132.728 132.569 131.132 137.61 131.132C142.651 131.132 146.432 133.653 146.432 140.038C146.432 146.424 143.407 151.045 136.686 151.045C129.964 151.045 128.62 148.44 128.452 145.332L132.821 145.08C133.241 146.928 134.417 147.684 137.106 147.684C139.542 147.6 141.895 145.08 142.315 141.299C142.399 140.626 142.567 139.87 142.651 139.198C142.483 139.786 142.315 140.626 141.979 141.215C141.475 142.139 140.803 142.811 139.963 143.231H139.879ZM142.231 137.518C142.231 136.005 140.551 133.989 137.778 133.989C135.005 133.989 132.737 134.829 132.737 137.518C132.737 140.206 135.425 140.963 137.778 140.963C140.131 140.963 142.231 139.45 142.231 137.518Z" fill="#F8F8F8"/>
<path d="M169.455 132.057L167.522 137.35H166.346L165.001 133.737L163.657 137.35H162.481L160.548 132.057H161.725L163.153 135.922L164.581 132.057H165.59L167.018 135.922L168.446 132.057H169.539H169.455Z" fill="#F8F8F8"/>
<path d="M170.295 130.964C170.127 130.796 170.043 130.628 170.043 130.46C170.043 130.292 170.043 130.04 170.295 129.956C170.547 129.872 170.631 129.704 170.883 129.704C171.135 129.704 171.303 129.704 171.471 129.872C171.639 130.04 171.723 130.208 171.723 130.376C171.723 130.544 171.723 130.796 171.471 130.964C171.219 131.132 171.135 131.216 170.883 131.216C170.631 131.216 170.463 131.216 170.295 130.964ZM170.295 132.057H171.555V137.35H170.295V132.057Z" fill="#F8F8F8"/>
<path d="M176.26 137.014C176.091 137.098 175.923 137.182 175.755 137.266C175.587 137.35 175.335 137.35 175.083 137.35C174.495 137.35 174.075 137.182 173.739 136.93C173.403 136.678 173.235 136.173 173.235 135.585V133.065H172.395V132.056H173.235V130.88H174.495V132.056H175.923V133.065H174.495V135.585C174.495 135.837 174.495 136.005 174.663 136.173C174.831 136.342 174.999 136.342 175.167 136.342C175.335 136.342 175.671 136.342 175.839 136.089L176.175 136.93L176.26 137.014Z" fill="#F8F8F8"/>
<path d="M181.889 132.561C182.309 132.981 182.478 133.485 182.478 134.325V137.35H181.217V134.493C181.217 134.073 181.133 133.653 180.881 133.485C180.629 133.317 180.377 133.149 179.957 133.149C179.537 133.149 179.117 133.317 178.865 133.569C178.613 133.821 178.445 134.241 178.445 134.745V137.434H177.184V130.124H178.445V132.813C178.613 132.561 178.865 132.393 179.201 132.309C179.537 132.225 179.873 132.141 180.209 132.141C180.881 132.141 181.385 132.309 181.805 132.729L181.889 132.561Z" fill="#F8F8F8"/>
<path d="M189.199 130.04V137.35H188.023V136.678C187.855 136.93 187.603 137.098 187.267 137.266C186.931 137.35 186.679 137.434 186.258 137.434C185.838 137.434 185.334 137.35 184.914 137.098C184.494 136.846 184.158 136.594 183.99 136.174C183.822 135.754 183.654 135.334 183.654 134.745C183.654 134.157 183.738 133.737 183.99 133.317C184.242 132.897 184.578 132.561 184.914 132.393C185.25 132.225 185.754 132.057 186.258 132.057C186.763 132.057 186.931 132.057 187.183 132.225C187.435 132.309 187.687 132.561 187.939 132.729V130.04H189.199ZM187.267 136.174C187.519 136.006 187.687 135.838 187.855 135.586C188.023 135.334 188.023 135.082 188.023 134.745C188.023 134.409 188.023 134.157 187.855 133.905C187.687 133.653 187.519 133.485 187.267 133.317C187.015 133.149 186.763 133.149 186.51 133.149C186.258 133.149 185.922 133.149 185.754 133.317C185.586 133.485 185.334 133.653 185.166 133.905C184.998 134.157 184.998 134.409 184.998 134.745C184.998 135.082 184.998 135.334 185.166 135.586C185.334 135.838 185.502 136.006 185.754 136.174C186.006 136.342 186.258 136.342 186.51 136.342C186.763 136.342 187.099 136.342 187.267 136.174Z" fill="#F8F8F8"/>
<path d="M193.905 132.056V133.233C193.821 133.233 193.737 133.233 193.653 133.233C193.148 133.233 192.812 133.401 192.56 133.653C192.308 133.905 192.14 134.325 192.14 134.829V137.35H190.88V132.056H192.056V132.813C192.392 132.224 193.064 131.972 193.905 131.972V132.056Z" fill="#F8F8F8"/>
<path d="M198.693 132.561C199.113 132.897 199.281 133.485 199.281 134.241V137.35H198.105V136.678C197.937 136.93 197.769 137.098 197.433 137.182C197.097 137.266 196.845 137.35 196.425 137.35C196.004 137.35 195.668 137.35 195.416 137.182C195.08 137.014 194.912 136.846 194.744 136.594C194.576 136.342 194.492 136.089 194.492 135.753C194.492 135.249 194.66 134.913 194.996 134.577C195.332 134.325 195.92 134.157 196.677 134.157H198.021C198.021 133.737 197.937 133.401 197.685 133.233C197.433 133.065 197.097 132.897 196.677 132.897C196.257 132.897 196.088 132.897 195.836 133.065C195.584 133.233 195.332 133.317 195.08 133.485L194.576 132.561C194.828 132.393 195.164 132.225 195.584 132.056C196.004 131.888 196.341 131.888 196.845 131.888C197.601 131.888 198.189 132.056 198.609 132.477L198.693 132.561ZM197.517 136.258C197.769 136.089 197.937 135.921 198.021 135.669V135.081H196.761C196.088 135.081 195.668 135.333 195.668 135.753C195.668 136.174 195.752 136.174 195.92 136.258C196.088 136.342 196.341 136.426 196.677 136.426C197.013 136.426 197.265 136.426 197.517 136.174V136.258Z" fill="#F8F8F8"/>
<path d="M208.944 132.057L207.012 137.35H205.835L204.491 133.737L203.147 137.35H201.97L200.038 132.057H201.214L202.642 135.922L204.071 132.057H205.079L206.507 135.922L207.936 132.057H209.028H208.944Z" fill="#F8F8F8"/>
<path d="M37.8768 45.4311C43.074 45.4311 47.2871 41.2179 47.2871 36.0207C47.2871 30.8235 43.074 26.6104 37.8768 26.6104C32.6795 26.6104 28.4664 30.8235 28.4664 36.0207C28.4664 41.2179 32.6795 45.4311 37.8768 45.4311Z" fill="#003CC9"/>
<path d="M96.188 26.6104H58.5465C57.108 26.6104 55.9418 27.7765 55.9418 29.215C55.9418 30.6535 57.108 31.8197 58.5465 31.8197H96.188C97.6265 31.8197 98.7927 30.6535 98.7927 29.215C98.7927 27.7765 97.6265 26.6104 96.188 26.6104Z" fill="#CCCCCC"/>
<path d="M76.779 36.3574H57.286C56.5436 36.3574 55.9417 36.9593 55.9417 37.7018C55.9417 38.4442 56.5436 39.0461 57.286 39.0461H76.779C77.5214 39.0461 78.1233 38.4442 78.1233 37.7018C78.1233 36.9593 77.5214 36.3574 76.779 36.3574Z" fill="#CCCCCC"/>
<path d="M33.3396 79.893H51.1521C53.6502 79.893 55.6753 81.9181 55.6753 84.4162V102.229C55.6753 104.727 53.6502 106.752 51.1521 106.752H33.3396C30.8415 106.752 28.8164 104.727 28.8164 102.229V84.4162C28.8164 81.9181 30.8415 79.893 33.3396 79.893Z" stroke="white" stroke-opacity="0.2" stroke-width="0.7"/>
<path d="M37.1202 86.9377C37.1202 86.9377 37.1202 86.8537 37.1202 86.7696C37.1202 86.6016 37.2043 86.5176 37.3723 86.5176H47.2868C47.4549 86.5176 47.5389 86.6016 47.5389 86.7696C47.5389 86.9377 47.4549 87.0217 47.2868 87.0217H37.3723H37.2043L37.1202 86.9377Z" fill="white"/>
<path d="M35.9445 89.8785C35.5244 89.4584 35.3563 88.9542 35.3563 88.4501C35.3563 87.946 35.5244 87.4419 35.9445 87.0218C36.3646 86.6016 36.8687 86.4336 37.3728 86.4336C37.5409 86.4336 37.6249 86.5176 37.6249 86.6857C37.6249 86.8537 37.5409 86.9377 37.3728 86.9377C36.9527 86.9377 36.6166 87.1058 36.2805 87.3578C35.9445 87.6099 35.8604 88.03 35.8604 88.4501C35.8604 88.8702 36.0285 89.2063 36.2805 89.5424C36.5326 89.8785 36.9527 89.9625 37.3728 89.9625C37.5409 89.9625 37.6249 90.0465 37.6249 90.2145C37.6249 90.3826 37.5409 90.4666 37.3728 90.4666C36.8687 90.4666 36.3646 90.2986 35.9445 89.8785Z" fill="white"/>
<path d="M35.9442 98.953C35.5241 98.5329 35.3561 98.0287 35.3561 97.5246V88.4503C35.3561 88.2823 35.4401 88.1982 35.6081 88.1982C35.7762 88.1982 35.8602 88.2823 35.8602 88.4503V97.5246C35.8602 97.9447 36.0282 98.2808 36.2803 98.6169C36.5324 98.953 36.9525 99.037 37.3726 99.037H48.3794V90.4668H37.3726C37.2045 90.4668 37.1205 90.3828 37.1205 90.2147C37.1205 90.0467 37.2045 89.9627 37.3726 89.9627H48.6314C48.7995 89.9627 48.8835 90.0467 48.8835 90.2147V99.289C48.8835 99.4571 48.7995 99.5411 48.6314 99.5411H37.3726C36.8685 99.5411 36.3643 99.3731 35.9442 98.953Z" fill="white"/>
<path d="M42.3304 96.0121C41.9943 95.676 41.8262 95.2559 41.8262 94.7518C41.8262 94.3316 41.9943 93.8275 42.3304 93.4914C42.6665 93.1554 43.0866 92.9873 43.5907 92.9873H48.632H48.8C48.8 92.9873 48.8 93.0713 48.8 93.1553V96.0961C48.8 96.2641 48.716 96.3482 48.5479 96.3482H43.5067C43.0025 96.3482 42.5824 96.1801 42.2463 95.844L42.3304 96.0121ZM48.2959 93.5755H43.5067C43.1706 93.5755 42.9185 93.6595 42.6664 93.9115C42.4144 94.1636 42.3304 94.4157 42.3304 94.7518C42.3304 95.0878 42.4144 95.3399 42.6664 95.592C42.9185 95.844 43.1706 95.928 43.5067 95.928H48.2959V93.4914V93.5755Z" fill="white"/>
<path d="M43.2546 95.2557C43.0865 95.0876 43.0025 94.9196 43.0025 94.7516C43.0025 94.3315 43.3386 93.9954 43.7587 93.9954C44.1788 93.9954 44.5149 94.3315 44.5149 94.7516C44.5149 95.1717 44.1788 95.5077 43.7587 95.5077C43.5067 95.5077 43.3386 95.4237 43.2546 95.2557ZM43.9267 94.5835C43.9267 94.5835 43.8427 94.5835 43.7587 94.5835C43.5907 94.5835 43.5066 94.6675 43.5066 94.8356C43.5066 95.0036 43.5907 95.0876 43.7587 95.0876C43.9268 95.0876 44.0108 95.0036 44.0108 94.8356V94.6675L43.9267 94.5835Z" fill="white"/>
<path d="M37.6247 88.6183C37.6247 88.6183 37.6247 88.5343 37.6247 88.4503C37.6247 88.2823 37.7087 88.1982 37.8768 88.1982H45.5227C45.6907 88.1982 45.7748 88.2823 45.7748 88.4503C45.7748 88.6184 45.6907 88.7024 45.5227 88.7024H37.8768H37.7087L37.6247 88.6183Z" fill="white"/>
<path d="M45.8587 89.8785C45.4386 89.4584 45.2706 88.9542 45.2706 88.4501C45.2706 87.946 45.4386 87.4419 45.8587 87.0218C46.2788 86.6016 46.7829 86.4336 47.2871 86.4336C47.4551 86.4336 47.5392 86.5176 47.5392 86.6857C47.5392 86.8537 47.4551 86.9377 47.2871 86.9377C46.867 86.9377 46.5309 87.1058 46.1948 87.3578C45.8587 87.6099 45.7747 88.03 45.7747 88.4501C45.7747 88.8702 45.9427 89.2063 46.1948 89.5424C46.4469 89.8785 46.867 89.9625 47.2871 89.9625C47.4551 89.9625 47.5392 90.0465 47.5392 90.2145C47.5392 90.3826 47.4551 90.4666 47.2871 90.4666C46.7829 90.4666 46.2788 90.2986 45.8587 89.8785Z" fill="white"/>
<path opacity="0.1" d="M221.379 100.633H67.6204C66.0427 100.633 64.7637 101.912 64.7637 103.49C64.7637 105.067 66.0427 106.346 67.6204 106.346H221.379C222.957 106.346 224.236 105.067 224.236 103.49C224.236 101.912 222.957 100.633 221.379 100.633Z" fill="#F7F7F7"/>
<path d="M122.066 100.633H67.6204C66.024 100.633 64.7637 101.893 64.7637 103.49C64.7637 105.086 66.024 106.346 67.6204 106.346H122.066V100.633Z" fill="#5EBFFF"/>
<path d="M149.205 79.7109H70.2254C67.2091 79.7109 64.764 82.1561 64.764 85.1723C64.764 88.1886 67.2091 90.6337 70.2254 90.6337H149.205C152.222 90.6337 154.667 88.1886 154.667 85.1723C154.667 82.1561 152.222 79.7109 149.205 79.7109Z" fill="white" fill-opacity="0.7"/>
<path opacity="0.5" d="M259.945 232.444H32.7518V233.032H259.945V232.444Z" fill="white"/>
<path opacity="0.5" d="M32.7518 232.444L53.5937 215.976L80.6364 205.305L107.593 215.808L134.55 205.305L161.506 184.636L188.463 194.971H215.419L242.376 179.007" stroke="#F7F7F7" stroke-miterlimit="10"/>
<path opacity="0.5" d="M32.7517 232.444L53.7658 216.732L80.7224 206.566L107.593 216.648L134.463 206.566L161.592 186.905L188.549 196.735H215.333L242.376 181.527" stroke="#F7F7F7" stroke-miterlimit="10"/>
<path opacity="0.5" d="M32.7517 232.528L53.9381 217.573L80.8085 207.91L107.679 217.404L134.463 207.91L161.764 189.257L188.635 198.584H215.333L242.376 184.132" stroke="#F7F7F7" stroke-miterlimit="10"/>
<path opacity="0.4" d="M32.7517 232.528L54.1103 218.328L80.8946 209.17L107.679 218.244L134.463 209.17L161.937 191.526L188.721 200.348H215.247L242.376 186.652" stroke="#F7F7F7" stroke-miterlimit="10"/>
<path opacity="0.4" d="M32.7517 232.528L54.1964 219.169L80.9808 210.514L107.679 219.085L134.463 210.514L162.109 193.794L188.807 202.196H215.247L242.376 189.257" stroke="#F7F7F7" stroke-miterlimit="10"/>
<path opacity="0.4" d="M32.7517 232.528L54.3687 219.924L81.0669 211.858L107.765 219.84L134.463 211.858L162.281 196.062L188.979 203.96H215.161L242.462 191.777" stroke="#F7F7F7" stroke-miterlimit="10"/>
<path opacity="0.4" d="M32.7517 232.528L54.5409 220.765L81.153 213.12L107.765 220.681L134.463 213.12L162.453 198.416L189.066 205.726H215.161L242.462 194.383" stroke="#F7F7F7" stroke-miterlimit="10"/>
<path opacity="0.4" d="M32.7517 232.528L54.627 221.522L81.2391 214.464L107.851 221.438L134.463 214.464L162.626 200.684L189.152 207.574H215.161L242.462 196.903" stroke="#F7F7F7" stroke-miterlimit="10"/>
<path opacity="0.3" d="M32.7517 232.612L54.7993 222.362L81.3253 215.724L107.851 222.278L134.463 215.724L162.798 202.953L189.238 209.339H215.075L242.462 199.424" stroke="#F7F7F7" stroke-miterlimit="10"/>
<path opacity="0.3" d="M32.7517 232.612L54.9715 223.118L81.4114 217.068L107.937 223.118L134.463 217.068L162.884 205.221L189.324 211.187H215.075L242.462 202.028" stroke="#F7F7F7" stroke-miterlimit="10"/>
<path opacity="0.3" d="M32.7517 232.613L55.0576 223.959L81.4975 218.329L107.937 223.875L134.463 218.329L163.056 207.575L189.496 212.952H214.989L242.462 204.55" stroke="#F7F7F7" stroke-miterlimit="10"/>
<path opacity="0.3" d="M32.7517 232.612L55.2299 224.798L81.5836 219.672L108.023 224.714L134.377 219.672L163.229 209.842L189.582 214.799H214.989L242.548 207.153" stroke="#F7F7F7" stroke-miterlimit="10"/>
<path opacity="0.3" d="M32.7517 232.613L55.4021 225.555L81.7559 221.018L108.023 225.471L134.377 221.018L163.401 212.111L189.668 216.565H214.902L242.548 209.675" stroke="#F7F7F7" stroke-miterlimit="10"/>
<path opacity="0.3" d="M32.7517 232.613L55.4883 226.395L81.842 222.278L108.11 226.311L134.377 222.278L163.573 214.464L189.755 218.329H214.902L242.548 212.28" stroke="#F7F7F7" stroke-miterlimit="10"/>
<path opacity="0.2" d="M32.7517 232.696L55.6605 227.151L81.9281 223.622L108.11 227.151L134.377 223.622L163.745 216.732L189.927 220.177H214.816L242.548 214.8" stroke="#F7F7F7" stroke-miterlimit="10"/>
<path opacity="0.2" d="M32.7517 232.696L55.8327 227.991L82.0142 224.882L108.196 227.907L134.377 224.882L163.918 219.001L190.013 221.941H214.816L242.548 217.404" stroke="#F7F7F7" stroke-miterlimit="10"/>
<path opacity="0.2" d="M32.7517 232.696L55.9189 228.747L82.1004 226.227L108.196 228.747L134.377 226.227L164.004 221.269L190.099 223.79H214.816L242.548 219.925" stroke="#F7F7F7" stroke-miterlimit="10"/>
<path opacity="0.2" d="M32.7517 232.696L56.0911 229.587L82.1865 227.571L108.282 229.503L134.377 227.571L164.176 223.622L190.185 225.554H214.73L242.634 222.529" stroke="#F7F7F7" stroke-miterlimit="10"/>
<path opacity="0.2" d="M32.7517 232.697L56.2634 230.344L82.2726 228.832L108.282 230.344L134.377 228.832L164.348 225.891L190.271 227.403H214.73L242.634 225.051" stroke="#F7F7F7" stroke-miterlimit="10"/>
<path opacity="0.1" d="M32.7517 232.78L56.3495 231.184L82.3587 230.176L108.368 231.184L134.377 230.176L164.52 228.159L190.444 229.167H214.644L242.634 227.655" stroke="#F7F7F7" stroke-miterlimit="10"/>
<path opacity="0.1" d="M32.7517 232.78L56.5217 231.94L82.4448 231.436L108.368 231.94L134.291 231.436L164.693 230.512L190.53 230.932H214.644L242.634 230.176" stroke="#F7F7F7" stroke-miterlimit="10"/>
<path d="M55.746 215.976C55.746 214.799 54.7986 213.875 53.5929 213.875C52.3872 213.875 51.4398 214.799 51.4398 215.976V233.032H55.6599V215.976H55.746Z" fill="#44B4FF"/>
<path d="M82.7028 205.642C82.7028 204.465 81.7555 203.541 80.5498 203.541C79.344 203.541 78.3967 204.465 78.3967 205.642V233.116H82.6167V205.642H82.7028Z" fill="#44B4FF"/>
<path d="M109.659 215.976C109.659 214.799 108.712 213.875 107.506 213.875C106.3 213.875 105.353 214.799 105.353 215.976V233.032H109.573V215.976H109.659Z" fill="#44B4FF"/>
<path d="M136.616 205.642C136.616 204.465 135.669 203.541 134.463 203.541C133.258 203.541 132.31 204.465 132.31 205.642V233.116H136.53V205.642H136.616Z" fill="#44B4FF"/>
<path d="M163.573 184.889C163.573 183.712 162.625 182.788 161.42 182.788C160.214 182.788 159.266 183.712 159.266 184.889V233.117H163.487V184.889H163.573Z" fill="#44B4FF"/>
<path d="M190.529 195.223C190.529 194.047 189.582 193.122 188.376 193.122C187.171 193.122 186.223 194.047 186.223 195.223V233.032H190.443V195.223H190.529Z" fill="#44B4FF"/>
<path d="M217.486 195.223C217.486 194.047 216.539 193.122 215.333 193.122C214.127 193.122 213.18 194.047 213.18 195.223V233.032H217.4V195.223H217.486Z" fill="#44B4FF"/>
<path d="M244.443 178.923C244.443 177.746 243.495 176.822 242.289 176.822C241.084 176.822 240.136 177.746 240.136 178.923V233.116H244.356V178.923H244.443Z" fill="#44B4FF"/>
<path d="M255.24 39.8013C254.567 39.2131 253.727 37.9528 253.727 35.6842V34.76C253.727 32.8275 252.299 31.2311 250.45 30.979V30.3909C250.45 30.0548 250.198 29.8027 249.862 29.8027C249.526 29.8027 249.274 30.0548 249.274 30.3909V30.979C247.426 31.3151 245.997 32.9115 245.997 34.844V35.7682C245.997 38.0368 245.073 39.2971 244.485 39.8853C244.065 40.2214 243.897 40.8095 243.897 41.3136H255.912C255.912 40.7255 255.66 40.2214 255.324 39.8853L255.24 39.8013Z" stroke="#B3B3B3" stroke-width="0.8" stroke-miterlimit="10"/>
<path d="M249.862 44.2546C250.702 44.2546 251.458 43.5824 251.458 42.6582H248.266C248.266 43.4984 248.938 44.2546 249.862 44.2546Z" stroke="#B3B3B3" stroke-width="0.8" stroke-miterlimit="10"/>
<path d="M254.736 36.1883C257.056 36.1883 258.937 34.3074 258.937 31.9872C258.937 29.667 257.056 27.7861 254.736 27.7861C252.416 27.7861 250.535 29.667 250.535 31.9872C250.535 34.3074 252.416 36.1883 254.736 36.1883Z" fill="#003CC9"/>
<path d="M160.38 144.156H213.145" stroke="#F7F7F7" stroke-miterlimit="10"/>
<path d="M210.373 147.601L209.784 147.012L212.809 144.156L209.784 141.383L210.373 140.795L214.07 144.156L210.373 147.601Z" fill="#F7F7F7"/>
<defs>
<filter id="filter0_f_2445_57" x="0" y="0" width="291" height="391.823" filterUnits="userSpaceOnUse" color-interpolation-filters="sRGB">
<feFlood flood-opacity="0" result="BackgroundImageFix"/>
<feBlend mode="normal" in="SourceGraphic" in2="BackgroundImageFix" result="shape"/>
<feGaussianBlur stdDeviation="1.5" result="effect1_foregroundBlur_2445_57"/>
</filter>
<linearGradient id="paint0_linear_2445_57" x1="145.5" y1="3" x2="145.5" y2="388.823" gradientUnits="userSpaceOnUse">
<stop offset="0.595" stop-color="#BAD9FF"/>
<stop offset="0.95" stop-color="#D9E9FB"/>
</linearGradient>
<linearGradient id="paint1_linear_2445_57" x1="145.14" y1="60.4707" x2="145.14" y2="394.791" gradientUnits="userSpaceOnUse">
<stop offset="0.47" stop-color="#003CC9"/>
<stop offset="1" stop-color="#D9E7FB"/>
</linearGradient>
</defs>
</svg>
