<svg width="46" height="42" viewBox="0 0 46 42" fill="none" xmlns="http://www.w3.org/2000/svg">
<g clip-path="url(#clip0_2248_728)">
<path d="M37.3461 36.8675C35.4812 36.8675 33.8655 35.4779 33.5902 33.636C33.5607 33.4754 33.5443 33.2821 33.5443 33.0657C33.5443 30.9715 35.2485 29.2705 37.3461 29.2705C39.4436 29.2705 41.1413 30.9748 41.1413 33.0657C41.1413 33.2788 41.1249 33.4721 41.0922 33.6524C40.8169 35.4779 39.2044 36.8675 37.3428 36.8675H37.3461ZM37.3461 30.5749C35.9696 30.5749 34.8487 31.6925 34.8487 33.0657C34.8487 33.2034 34.8585 33.3181 34.8749 33.423C35.0617 34.652 36.1203 35.5631 37.3428 35.5631C38.5653 35.5631 39.6206 34.652 39.8041 33.4427C39.8238 33.3214 39.8336 33.2034 39.8336 33.0657C39.8336 31.6925 38.716 30.5749 37.3428 30.5749H37.3461Z" fill="black"/>
<path d="M37.333 41.9997C36.0646 41.9997 34.852 41.7113 33.7278 41.1443C32.7381 40.6461 31.8728 39.9579 31.1518 39.0959C31.024 38.9451 30.9748 38.7419 31.0141 38.5486C31.3648 36.8148 32.8986 35.5596 34.6619 35.5596H40.0205C41.7771 35.5596 43.311 36.8083 43.6649 38.5289C43.7043 38.7223 43.6551 38.9222 43.5306 39.0762C42.8161 39.948 41.9476 40.6396 40.9545 41.141C39.8402 41.7047 38.5882 42.003 37.333 42.003V41.9997ZM32.371 38.5092C32.9281 39.1188 33.5803 39.6104 34.3145 39.9808C35.2551 40.456 36.2711 40.6953 37.333 40.6953C38.3949 40.6953 39.4338 40.4462 40.3679 39.971C41.0889 39.6072 41.7542 39.1024 42.3048 38.4929C41.9738 37.5326 41.0594 36.864 40.0205 36.864H34.6619C33.6197 36.864 32.702 37.5391 32.371 38.5092Z" fill="black"/>
<path d="M37.333 42.0001C36.0646 42.0001 34.852 41.7117 33.7278 41.1447C32.7381 40.6465 31.8728 39.9583 31.1518 39.0963C29.9588 37.6575 29.3 35.8353 29.3 33.9704C29.3 29.5427 32.9019 25.9375 37.333 25.9375C41.764 25.9375 45.3626 29.5394 45.3626 33.9704C45.3626 35.8353 44.7104 37.6477 43.5273 39.0766C42.8128 39.9451 41.9476 40.64 40.9545 41.1381C39.8402 41.7018 38.5882 42.0001 37.333 42.0001ZM37.333 27.2419C33.623 27.2419 30.6077 30.2604 30.6077 33.9672C30.6077 35.5305 31.1583 37.0545 32.158 38.2606C32.761 38.9849 33.4886 39.5617 34.3178 39.9779C35.2584 40.4531 36.2711 40.6924 37.3363 40.6924C38.4014 40.6924 39.4371 40.4433 40.3711 39.9681C41.1905 39.5551 41.9345 38.9586 42.5244 38.2409C43.5175 37.0446 44.0615 35.5272 44.0615 33.9639C44.0615 30.2538 41.043 27.2386 37.3363 27.2386L37.333 27.2419Z" fill="black"/>
<path d="M22.8369 10.93C20.9721 10.93 19.3563 9.54042 19.081 7.69852C19.0515 7.53137 19.0351 7.34128 19.0351 7.12825C19.0351 5.03398 20.7394 3.33301 22.8369 3.33301C24.9345 3.33301 26.6354 5.03726 26.6354 7.12825C26.6354 7.34128 26.619 7.53137 26.5863 7.7149C26.311 9.54042 24.6985 10.93 22.8369 10.93ZM22.8369 4.63742C21.4604 4.63742 20.3395 5.75501 20.3395 7.12825C20.3395 7.26262 20.3494 7.38061 20.369 7.48549C20.5526 8.71124 21.6144 9.62236 22.8369 9.62236C24.0594 9.62236 25.1147 8.71124 25.2982 7.50187C25.3212 7.37733 25.3277 7.25934 25.3277 7.12497C25.3277 5.75174 24.2101 4.63414 22.8369 4.63414V4.63742Z" fill="black"/>
<path d="M22.8238 16.0625C21.5554 16.0625 20.3428 15.7741 19.2187 15.2071C18.2289 14.709 17.3636 14.0207 16.6426 13.1555C16.5181 13.0047 16.4656 12.8015 16.505 12.6081C16.8524 10.8744 18.3895 9.61914 20.1527 9.61914H25.5113C27.268 9.61914 28.8018 10.8678 29.1558 12.5885C29.1951 12.7818 29.1459 12.9818 29.0214 13.1358C28.3069 14.0076 27.4384 14.6991 26.4453 15.1973C25.331 15.761 24.0791 16.0592 22.8238 16.0592V16.0625ZM17.8651 12.5721C18.4222 13.1817 19.0744 13.6733 19.8053 14.0436C20.7459 14.5189 21.7619 14.7581 22.8238 14.7581C23.8857 14.7581 24.9246 14.509 25.8587 14.0338C26.5928 13.6667 27.2418 13.1686 27.7989 12.5557C27.4679 11.5954 26.5502 10.9268 25.5146 10.9268H20.156C19.1138 10.9268 18.1961 11.602 17.8651 12.5721Z" fill="black"/>
<path d="M22.8239 16.0629C21.5555 16.0629 20.3429 15.7745 19.2187 15.2075C18.2289 14.7094 17.3637 14.0211 16.6427 13.1559C15.4497 11.7171 14.7909 9.89485 14.7909 8.03C14.7909 3.60222 18.3928 -0.00292969 22.8239 -0.00292969C27.2549 -0.00292969 30.8568 3.59894 30.8568 8.03C30.8568 9.89485 30.2046 11.7073 29.0215 13.1362C28.307 14.0047 27.4385 14.6995 26.4487 15.1977C25.3344 15.7614 24.0824 16.0597 22.8272 16.0597L22.8239 16.0629ZM22.8239 1.30476C19.1138 1.30476 16.0986 4.32325 16.0986 8.03C16.0986 9.59333 16.6492 11.1173 17.6488 12.3234C18.2519 13.0477 18.9795 13.6245 19.8087 14.0408C20.7493 14.516 21.7653 14.7552 22.8272 14.7552C23.889 14.7552 24.928 14.5062 25.862 14.0309C26.6945 13.6147 27.4188 13.0313 28.0186 12.3037C29.0116 11.1075 29.5557 9.59005 29.5557 8.03C29.5557 4.31997 26.5372 1.30476 22.8304 1.30476H22.8239Z" fill="black"/>
<path d="M8.04604 36.8675C6.1812 36.8675 4.56543 35.4779 4.29013 33.636C4.26063 33.4689 4.24425 33.2788 4.24425 33.0657C4.24425 30.9715 5.9485 29.2705 8.04604 29.2705C10.1436 29.2705 11.8413 30.9748 11.8413 33.0657C11.8413 33.2788 11.8249 33.4689 11.7921 33.6524C11.5168 35.4779 9.90433 36.8675 8.04277 36.8675H8.04604ZM8.04604 30.5749C6.66953 30.5749 5.54866 31.6925 5.54866 33.0657C5.54866 33.2001 5.55849 33.3181 5.57815 33.423C5.76169 34.6487 6.82357 35.5599 8.04604 35.5599C9.26852 35.5599 10.3238 34.6487 10.5074 33.4394C10.5303 33.3148 10.5402 33.1968 10.5402 33.0625C10.5402 31.6892 9.42255 30.5716 8.04932 30.5716L8.04604 30.5749Z" fill="black"/>
<path d="M8.03293 41.9997C6.76457 41.9997 5.55193 41.7113 4.42778 41.1443C3.438 40.6461 2.57277 39.9579 1.85174 39.0959C1.72392 38.9451 1.67476 38.7419 1.71409 38.5486C2.06477 36.8148 3.5986 35.5596 5.36184 35.5596H10.7204C12.4771 35.5596 14.0109 36.8083 14.3649 38.5289C14.4042 38.7223 14.3551 38.9222 14.2305 39.0762C13.516 39.948 12.6475 40.6396 11.6545 41.1377C10.5434 41.7014 9.28818 41.9997 8.03293 41.9997ZM3.07093 38.5092C3.62809 39.1188 4.2803 39.6104 5.01444 39.9808C5.95505 40.456 6.96777 40.6953 8.03293 40.6953C9.09809 40.6953 10.1338 40.4462 11.0678 39.971C11.802 39.6039 12.4509 39.1057 13.0048 38.4961C12.6737 37.5358 11.7593 36.8673 10.7204 36.8673H5.36184C4.31963 36.8673 3.40195 37.5424 3.07093 38.5125V38.5092Z" fill="black"/>
<path d="M8.03293 42.0001C6.76457 42.0001 5.55193 41.7117 4.42778 41.1447C3.438 40.6465 2.57277 39.9583 1.85174 39.0963C0.658759 37.6575 0 35.8353 0 33.9704C0 29.5427 3.60187 25.9375 8.03293 25.9375C12.464 25.9375 16.0659 29.5394 16.0659 33.9704C16.0659 35.8353 15.4137 37.6477 14.2305 39.0766C13.516 39.9451 12.6475 40.64 11.6577 41.1381C10.5467 41.7018 9.29146 42.0001 8.03621 42.0001H8.03293ZM8.03293 27.2419C4.3229 27.2419 1.30769 30.2604 1.30769 33.9672C1.30769 35.5305 1.85829 37.0545 2.8579 38.2606C3.46094 38.9849 4.18853 39.5617 5.01771 39.9779C5.95833 40.4531 6.97105 40.6924 8.03621 40.6924C9.10137 40.6924 10.137 40.4433 11.0711 39.9681C11.9036 39.5519 12.6246 38.9718 13.2276 38.2409C14.2174 37.0446 14.7647 35.5272 14.7647 33.9639C14.7647 30.2538 11.7462 27.2386 8.03948 27.2386L8.03293 27.2419Z" fill="black"/>
<path d="M22.683 29.861C20.5035 29.861 18.7305 28.0879 18.7305 25.9084V24.4991C18.7305 24.1386 19.0222 23.8469 19.3827 23.8469H25.9801C26.3406 23.8469 26.6323 24.1386 26.6323 24.4991V25.9084C26.6323 28.0879 24.8592 29.861 22.6797 29.861H22.683ZM20.0349 25.1513V25.9084C20.0349 27.3669 21.2213 28.5533 22.6797 28.5533C24.1382 28.5533 25.3246 27.3669 25.3246 25.9084V25.1513H20.0316H20.0349Z" fill="#2A21D9"/>
<path d="M24.7543 25.1513H20.6084C20.2479 25.1513 19.9562 24.8596 19.9562 24.4991V22.9915C19.9562 21.4871 21.1787 20.2646 22.683 20.2646C23.4106 20.2646 24.0956 20.5465 24.6101 21.0643C25.1247 21.5822 25.4098 22.2671 25.4098 22.9947V24.5023C25.4098 24.8629 25.1181 25.1545 24.7576 25.1545L24.7543 25.1513ZM21.2606 23.8436H24.1021V22.9882C24.1021 22.608 23.9547 22.2508 23.6859 21.982C23.4204 21.7133 23.0632 21.5658 22.683 21.5658C21.8997 21.5658 21.2606 22.2049 21.2606 22.9882V23.8436Z" fill="#2A21D9"/>
<path d="M34.6814 27.7365C34.4553 27.7365 34.2357 27.6185 34.1145 27.4087L26.5731 14.345C26.3929 14.0336 26.501 13.6338 26.8124 13.4535C27.127 13.2732 27.5236 13.3814 27.7038 13.6928L35.2484 26.7565C35.4287 27.0679 35.3205 27.4677 35.0092 27.648C34.9076 27.707 34.7929 27.7365 34.6847 27.7365H34.6814Z" fill="black"/>
<path d="M29.9522 35.2617H15.3809C15.0204 35.2617 14.7287 34.97 14.7287 34.6095C14.7287 34.249 15.0204 33.9573 15.3809 33.9573H29.9522C30.3128 33.9573 30.6044 34.249 30.6044 34.6095C30.6044 34.97 30.3128 35.2617 29.9522 35.2617Z" fill="black"/>
<path d="M10.681 27.7339C10.5696 27.7339 10.4582 27.7044 10.3566 27.6454C10.0452 27.4651 9.93707 27.0653 10.1173 26.7539L17.7471 13.5394C17.9274 13.2281 18.3272 13.1199 18.6386 13.3002C18.9499 13.4804 19.0581 13.8803 18.8778 14.1916L11.248 27.4062C11.1268 27.6159 10.9072 27.7339 10.681 27.7339Z" fill="black"/>
</g>
<defs>
<clipPath id="clip0_2248_728">
<rect width="45.3626" height="42" fill="white"/>
</clipPath>
</defs>
</svg>
