<svg viewBox="0 0 55 55" fill="none" xmlns="http://www.w3.org/2000/svg">
<rect width="55" height="55" rx="7" fill="#3773FF" fill-opacity="0.3"/>
<g filter="url(#filter0_f_2445_149)">
<path d="M36.3001 37.7667H33.3668V40.7001H36.3001V37.7667Z" fill="white"/>
<path d="M33.3668 37.7667H30.4334V40.7001H33.3668V37.7667Z" fill="white"/>
<path d="M24.5668 37.7667H21.6334V40.7001H24.5668V37.7667Z" fill="white"/>
<path d="M21.6334 37.7667H18.7001V40.7001H21.6334V37.7667Z" fill="white"/>
<path d="M33.3668 34.8334H30.4334V37.7667H33.3668L33.3668 34.8334Z" fill="white"/>
<path d="M24.5668 34.8334H21.6334V37.7667H24.5668V34.8334Z" fill="white"/>
<path d="M45.1001 31.9H42.1668V34.8334H45.1001V31.9Z" fill="white"/>
<path d="M36.3001 31.9H33.3668L33.3668 34.8334H36.3001V31.9Z" fill="white"/>
<path d="M33.3668 31.9H30.4334V34.8334H33.3668L33.3668 31.9Z" fill="white"/>
<path d="M30.4334 31.9H27.5001V34.8334H30.4334V31.9Z" fill="white"/>
<path d="M27.5001 31.9H24.5668L24.5668 34.8334H27.5001V31.9Z" fill="white"/>
<path d="M24.5668 31.9H21.6334V34.8334H24.5668L24.5668 31.9Z" fill="white"/>
<path d="M21.6334 31.9H18.7001V34.8334H21.6334V31.9Z" fill="white"/>
<path d="M12.8334 31.9H9.90012V34.8334H12.8334V31.9Z" fill="white"/>
<path d="M45.1001 28.9667H42.1668V31.9H45.1001V28.9667Z" fill="white"/>
<path d="M39.2334 28.9667H36.3001V31.9H39.2334V28.9667Z" fill="white"/>
<path d="M36.3001 28.9667H33.3668V31.9H36.3001V28.9667Z" fill="white"/>
<path d="M33.3668 28.9667H30.4334V31.9H33.3668V28.9667Z" fill="white"/>
<path d="M30.4334 28.9667H27.5001V31.9H30.4334V28.9667Z" fill="white"/>
<path d="M27.5001 28.9667H24.5668V31.9H27.5001V28.9667Z" fill="white"/>
<path d="M24.5668 28.9667H21.6334V31.9H24.5668V28.9667Z" fill="white"/>
<path d="M21.6334 28.9667H18.7001V31.9H21.6334V28.9667Z" fill="white"/>
<path d="M18.7001 28.9667H15.7668V31.9H18.7001V28.9667Z" fill="white"/>
<path d="M12.8334 28.9667H9.90012V31.9H12.8334V28.9667Z" fill="white"/>
<path d="M45.1001 26.0334H42.1668V28.9667H45.1001V26.0334Z" fill="white"/>
<path d="M42.1668 26.0334H39.2334V28.9667H42.1668V26.0334Z" fill="white"/>
<path d="M39.2334 26.0334H36.3001V28.9667H39.2334V26.0334Z" fill="white"/>
<path d="M36.3001 26.0334H33.3668V28.9667H36.3001V26.0334Z" fill="white"/>
<path d="M30.4334 26.0334H27.5001V28.9667H30.4334V26.0334Z" fill="white"/>
<path d="M27.5001 26.0334H24.5668V28.9667H27.5001V26.0334Z" fill="white"/>
<path d="M21.6334 26.0334H18.7001V28.9667H21.6334V26.0334Z" fill="white"/>
<path d="M18.7001 26.0334H15.7668V28.9667H18.7001V26.0334Z" fill="white"/>
<path d="M15.7668 26.0334H12.8334V28.9667H15.7668V26.0334Z" fill="white"/>
<path d="M12.8334 26.0334H9.90012V28.9667H12.8334V26.0334Z" fill="white"/>
<path d="M42.1668 23.1H39.2334V26.0334H42.1668V23.1Z" fill="white"/>
<path d="M39.2334 23.1H36.3001V26.0334H39.2334V23.1Z" fill="white"/>
<path d="M36.3001 23.1H33.3668V26.0334H36.3001V23.1Z" fill="white"/>
<path d="M33.3668 23.1H30.4334V26.0334H33.3668V23.1Z" fill="white"/>
<path d="M30.4334 23.1H27.5001V26.0334H30.4334V23.1Z" fill="white"/>
<path d="M27.5001 23.1H24.5668V26.0334H27.5001V23.1Z" fill="white"/>
<path d="M21.6334 23.1H18.7001V26.0334H21.6334V23.1Z" fill="white"/>
<path d="M18.7001 23.1H15.7668V26.0334H18.7001V23.1Z" fill="white"/>
<path d="M15.7668 23.1H12.8334V26.0334H15.7668V23.1Z" fill="white"/>
<path d="M39.2334 20.1667H36.3001V23.1H39.2334V20.1667Z" fill="white"/>
<path d="M36.3001 20.1667H33.3668V23.1H36.3001V20.1667Z" fill="white"/>
<path d="M33.3668 20.1667H30.4334V23.1H33.3668V20.1667Z" fill="white"/>
<path d="M30.4334 20.1667H27.5001V23.1H30.4334V20.1667Z" fill="white"/>
<path d="M27.5001 20.1667H24.5668V23.1H27.5001V20.1667Z" fill="white"/>
<path d="M24.5668 20.1667H21.6334V23.1H24.5668V20.1667Z" fill="white"/>
<path d="M21.6334 20.1667H18.7001V23.1H21.6334V20.1667Z" fill="white"/>
<path d="M18.7001 20.1667H15.7668V23.1H18.7001V20.1667Z" fill="white"/>
<path d="M36.3001 17.2334H33.3668V20.1667H36.3001V17.2334Z" fill="white"/>
<path d="M21.6334 17.2334H18.7001V20.1667H21.6334V17.2334Z" fill="white"/>
<path d="M36.3001 14.3H33.3668V17.2334H36.3001V14.3Z" fill="white"/>
<path d="M33.3668 14.3H30.4334V17.2334H33.3668V14.3Z" fill="white"/>
<path d="M24.5668 14.3H21.6334V17.2334H24.5668V14.3Z" fill="white"/>
<path d="M21.6334 14.3H18.7001V17.2334H21.6334V14.3Z" fill="white"/>
</g>
<defs>
<filter id="filter0_f_2445_149" x="5.90012" y="10.3" width="43.2" height="34.3999" filterUnits="userSpaceOnUse" color-interpolation-filters="sRGB">
<feFlood flood-opacity="0" result="BackgroundImageFix"/>
<feBlend mode="normal" in="SourceGraphic" in2="BackgroundImageFix" result="shape"/>
<feGaussianBlur stdDeviation="2" result="effect1_foregroundBlur_2445_149"/>
</filter>
</defs>
</svg>
