<svg viewBox="0 0 80 80" fill="none" xmlns="http://www.w3.org/2000/svg">
<g filter="url(#filter0_f_2248_201)">
<rect x="2" y="2" width="76" height="76" rx="7" fill="white"/>
<path d="M55.0358 20C57.6742 20 59.8252 21.376 61.4993 24.1171C63.1735 26.8583 64 31.0615 64 36.7266C64 38.9625 63.8622 41.0695 63.5762 43.0582C63.2901 45.0361 62.7709 47.0356 62.0185 49.035C61.2662 51.0345 60.3126 52.7437 59.1576 54.1734C58.0026 55.6031 56.4768 56.7533 54.5695 57.6563C52.6622 58.5485 50.4901 59 48.053 59C43.4437 59 39.9682 57.3445 37.6371 54.0229C35.8358 57.3123 32.6464 58.957 28.0689 58.957C24.3603 58.957 21.4252 57.5058 19.253 54.5819C17.0808 51.6687 16 48.0783 16 43.8106V21.8812C16 21.7845 16.0212 21.6985 16.053 21.6555C16.0848 21.6017 16.1377 21.5587 16.2013 21.5265H26.9775C27.2106 21.5587 27.3272 21.6985 27.3272 21.935V47.702C27.3272 50.0777 28.0477 51.5504 29.4781 52.1202C30.6755 52.6254 31.7775 52.3029 32.7841 51.1527C33.7166 50.0992 34.1828 48.6588 34.1828 46.8313V21.8812C34.1828 21.7845 34.204 21.6985 34.2358 21.6555C34.2675 21.6017 34.2993 21.5587 34.3311 21.5265H44.853C44.9907 21.591 45.0543 21.7307 45.0543 21.935V46.2293C45.0543 50.5292 46.1881 52.6792 48.4662 52.6792C49.8331 52.6792 50.9245 51.6579 51.751 49.6047C52.5669 47.5515 52.9801 44.5846 52.9801 40.6825C52.9801 38.339 52.8 36.2643 52.4503 34.4584C52.1007 32.6417 51.6662 31.2442 51.147 30.266C50.6278 29.2878 50.1086 28.46 49.5894 27.8043C49.0702 27.1378 48.6358 26.6326 48.2861 26.2563C47.9364 25.8801 47.7563 25.5791 47.7563 25.3426C47.7563 24.3966 48.4556 23.2679 49.8649 21.9672C51.2636 20.6665 52.9907 20.0107 55.0252 20.0107L55.0358 20Z" fill="url(#paint0_linear_2248_201)" fill-opacity="0.5"/>
</g>
<defs>
<filter id="filter0_f_2248_201" x="0" y="0" width="80" height="80" filterUnits="userSpaceOnUse" color-interpolation-filters="sRGB">
<feFlood flood-opacity="0" result="BackgroundImageFix"/>
<feBlend mode="normal" in="SourceGraphic" in2="BackgroundImageFix" result="shape"/>
<feGaussianBlur stdDeviation="1" result="effect1_foregroundBlur_2248_201"/>
</filter>
<linearGradient id="paint0_linear_2248_201" x1="40.0106" y1="58.9892" x2="40.0106" y2="20" gradientUnits="userSpaceOnUse">
<stop stop-color="#00AEEF"/>
<stop offset="1" stop-color="#93268F"/>
</linearGradient>
</defs>
</svg>
