<svg width="24" height="30" viewBox="0 0 24 30" fill="none" xmlns="http://www.w3.org/2000/svg">
<path d="M6.54137 0.107989C6.54137 0.107989 6.36922 0.107989 6.28315 0.107989C6.02494 0.28013 5.93887 0.624412 6.11101 0.882622L7.40207 2.77616C5.50852 3.80901 4.04533 5.53041 3.52891 7.51003H19.538C19.1076 5.44434 17.6444 3.80901 15.6648 2.77616L16.9559 0.882622C17.128 0.624412 17.0419 0.28013 16.7837 0.107989C16.5255 -0.0641513 16.1812 0.0219228 16.0091 0.280133L14.632 2.34581C13.6852 2.00153 12.6523 1.82939 11.5334 1.82939C10.4145 1.82939 9.38168 2.00153 8.43491 2.34581L7.05779 0.280133C6.88564 0.107993 6.71351 0.0219202 6.4553 0.0219202L6.54137 0.107989ZM8.34884 4.66971C8.86526 4.66971 9.20954 5.10006 9.20954 5.53042C9.20954 5.96077 8.77919 6.39112 8.34884 6.39112C7.91849 6.39112 7.48814 6.04684 7.48814 5.53042C7.48814 5.01399 7.83242 4.66971 8.34884 4.66971ZM14.718 4.66971C15.2344 4.66971 15.5787 5.10006 15.5787 5.53042C15.5787 5.96077 15.2344 6.39112 14.718 6.39112C14.2016 6.39112 13.8573 6.04684 13.8573 5.53042C13.8573 5.01399 14.2877 4.66971 14.718 4.66971ZM1.72143 8.71501C0.774662 8.71501 3.05176e-05 9.48964 3.05176e-05 10.4364V18.527C3.05176e-05 19.4738 0.774662 20.2484 1.72143 20.2484C2.66821 20.2484 2.15178 20.2484 2.32392 20.1623V8.80108C2.15178 8.80108 1.97965 8.71501 1.72143 8.71501ZM3.44284 8.71501V21.4534C3.44284 22.4002 4.21747 23.1748 5.16424 23.1748H17.9026C18.8494 23.1748 19.624 22.4002 19.624 21.4534V8.71501H3.44284ZM21.4315 8.71501C21.2594 8.71501 21.0012 8.71501 20.829 8.80108V20.1623C21.0012 20.1623 21.1733 20.2484 21.4315 20.2484C22.3783 20.2484 23.1529 19.4738 23.1529 18.527V10.4364C23.1529 9.48964 22.3783 8.71501 21.4315 8.71501ZM5.76673 24.3798V26.7037C5.76673 27.9947 6.79957 29.0276 8.09062 29.0276C9.38168 29.0276 10.4145 27.9947 10.4145 26.7037V24.3798H5.76673ZM12.7384 24.3798V26.7037C12.7384 27.9947 13.7713 29.0276 15.0623 29.0276C16.3534 29.0276 17.3862 27.9947 17.3862 26.7037V24.3798H12.7384Z" fill="#292929"/>
</svg>
