<svg width="21" height="13" viewBox="0 0 21 13" fill="none" xmlns="http://www.w3.org/2000/svg">
<path d="M20.4387 0.552518C20.1374 1.72452 19.7523 2.99698 19.2835 4.3699C18.8147 5.70933 18.3124 7.06551 17.7766 8.43843C17.2408 9.77786 16.6883 11.0671 16.1191 12.306H10.7446C10.979 11.3015 11.2134 10.2634 11.4478 9.19186C11.6822 8.12031 11.8999 7.04877 12.1008 5.97722C12.3352 4.87219 12.5361 3.81738 12.7035 2.81281C12.9044 1.80824 13.0719 0.870632 13.2058 0H20.0871L20.4387 0.552518Z" fill="#003CC9"/>
<path d="M0 11.7535C0.301372 10.548 0.68646 9.27557 1.15526 7.93614C1.62406 6.59671 2.12635 5.24053 2.66212 3.86761C3.23138 2.49469 3.7839 1.20549 4.31967 0H9.69415C9.39278 1.30595 9.07466 2.69561 8.7398 4.16899C8.43843 5.64236 8.1538 7.08225 7.88591 8.48866C7.61803 9.86158 7.40037 11.134 7.23294 12.306H0.351601L0 11.7535Z" fill="#003CC9"/>
</svg>
