<svg width="1229" height="261" viewBox="0 0 1229 261" fill="none" xmlns="http://www.w3.org/2000/svg">
<g filter="url(#filter0_b_3008_3)">
<rect width="494" height="191" rx="30" transform="matrix(-1 0 0 1 1229 35)" fill="#D9E9FB"/>
</g>
<path d="M1142.34 73.078C1142.57 72.5833 1142.92 72.21 1143.37 71.958C1143.84 71.706 1144.41 71.58 1145.1 71.58V72.546L1144.86 72.532C1144.08 72.532 1143.48 72.77 1143.04 73.246C1142.6 73.722 1142.38 74.3893 1142.38 75.248V79H1141.39V71.636H1142.34V73.078ZM1153.38 75.626H1147.22C1147.28 76.3913 1147.57 77.012 1148.1 77.488C1148.63 77.9547 1149.31 78.188 1150.12 78.188C1150.57 78.188 1150.99 78.1087 1151.38 77.95C1151.76 77.782 1152.09 77.5393 1152.37 77.222L1152.93 77.866C1152.6 78.258 1152.19 78.5567 1151.7 78.762C1151.21 78.9673 1150.68 79.07 1150.09 79.07C1149.33 79.07 1148.66 78.9113 1148.07 78.594C1147.49 78.2673 1147.04 77.8193 1146.72 77.25C1146.39 76.6807 1146.23 76.0367 1146.23 75.318C1146.23 74.5993 1146.38 73.9553 1146.69 73.386C1147 72.8167 1147.43 72.3733 1147.98 72.056C1148.53 71.7387 1149.14 71.58 1149.82 71.58C1150.5 71.58 1151.12 71.7387 1151.66 72.056C1152.2 72.3733 1152.62 72.8167 1152.93 73.386C1153.24 73.946 1153.39 74.59 1153.39 75.318L1153.38 75.626ZM1149.82 72.434C1149.11 72.434 1148.52 72.6627 1148.03 73.12C1147.56 73.568 1147.28 74.156 1147.22 74.884H1152.44C1152.38 74.156 1152.1 73.568 1151.62 73.12C1151.14 72.6627 1150.54 72.434 1149.82 72.434ZM1162.28 71.636V81.716H1161.28V77.614C1160.97 78.09 1160.58 78.454 1160.09 78.706C1159.62 78.9487 1159.08 79.07 1158.48 79.07C1157.78 79.07 1157.15 78.916 1156.59 78.608C1156.04 78.2907 1155.61 77.8473 1155.29 77.278C1154.97 76.7087 1154.81 76.0553 1154.81 75.318C1154.81 74.59 1154.97 73.9413 1155.29 73.372C1155.61 72.8027 1156.05 72.364 1156.61 72.056C1157.17 71.7387 1157.79 71.58 1158.48 71.58C1159.1 71.58 1159.65 71.7107 1160.13 71.972C1160.63 72.2333 1161.03 72.6067 1161.32 73.092V71.636H1162.28ZM1158.57 78.188C1159.08 78.188 1159.54 78.0713 1159.95 77.838C1160.37 77.5953 1160.7 77.2547 1160.93 76.816C1161.18 76.3773 1161.3 75.878 1161.3 75.318C1161.3 74.758 1161.18 74.2633 1160.93 73.834C1160.7 73.3953 1160.37 73.0547 1159.95 72.812C1159.54 72.5693 1159.08 72.448 1158.57 72.448C1158.04 72.448 1157.57 72.5693 1157.15 72.812C1156.74 73.0547 1156.42 73.3953 1156.17 73.834C1155.94 74.2633 1155.82 74.758 1155.82 75.318C1155.82 75.878 1155.94 76.3773 1156.17 76.816C1156.42 77.2547 1156.74 77.5953 1157.15 77.838C1157.57 78.0713 1158.04 78.188 1158.57 78.188ZM1171.82 71.636V79H1170.87V77.656C1170.61 78.104 1170.25 78.454 1169.79 78.706C1169.33 78.9487 1168.81 79.07 1168.22 79.07C1167.26 79.07 1166.5 78.804 1165.94 78.272C1165.39 77.7307 1165.11 76.942 1165.11 75.906V71.636H1166.11V75.808C1166.11 76.5827 1166.3 77.1707 1166.68 77.572C1167.07 77.9733 1167.61 78.174 1168.32 78.174C1169.1 78.174 1169.71 77.9407 1170.15 77.474C1170.6 76.998 1170.83 76.34 1170.83 75.5V71.636H1171.82ZM1181.16 75.626H1175C1175.05 76.3913 1175.35 77.012 1175.88 77.488C1176.41 77.9547 1177.08 78.188 1177.89 78.188C1178.35 78.188 1178.77 78.1087 1179.15 77.95C1179.54 77.782 1179.87 77.5393 1180.15 77.222L1180.71 77.866C1180.38 78.258 1179.97 78.5567 1179.48 78.762C1178.99 78.9673 1178.45 79.07 1177.87 79.07C1177.11 79.07 1176.44 78.9113 1175.85 78.594C1175.27 78.2673 1174.82 77.8193 1174.49 77.25C1174.17 76.6807 1174 76.0367 1174 75.318C1174 74.5993 1174.16 73.9553 1174.46 73.386C1174.78 72.8167 1175.21 72.3733 1175.75 72.056C1176.3 71.7387 1176.92 71.58 1177.6 71.58C1178.28 71.58 1178.89 71.7387 1179.43 72.056C1179.98 72.3733 1180.4 72.8167 1180.71 73.386C1181.02 73.946 1181.17 74.59 1181.17 75.318L1181.16 75.626ZM1177.6 72.434C1176.89 72.434 1176.29 72.6627 1175.81 73.12C1175.33 73.568 1175.06 74.156 1175 74.884H1180.22C1180.15 74.156 1179.88 73.568 1179.39 73.12C1178.92 72.6627 1178.32 72.434 1177.6 72.434ZM1185.31 79.07C1184.71 79.07 1184.14 78.986 1183.59 78.818C1183.04 78.6407 1182.62 78.4213 1182.31 78.16L1182.76 77.376C1183.07 77.6187 1183.46 77.8193 1183.92 77.978C1184.39 78.1273 1184.87 78.202 1185.38 78.202C1186.05 78.202 1186.54 78.0993 1186.86 77.894C1187.19 77.6793 1187.35 77.3807 1187.35 76.998C1187.35 76.7273 1187.26 76.5173 1187.09 76.368C1186.91 76.2093 1186.68 76.0927 1186.41 76.018C1186.14 75.934 1185.78 75.8547 1185.34 75.78C1184.74 75.668 1184.26 75.556 1183.89 75.444C1183.53 75.3227 1183.22 75.122 1182.96 74.842C1182.7 74.562 1182.58 74.1747 1182.58 73.68C1182.58 73.064 1182.83 72.56 1183.35 72.168C1183.86 71.776 1184.58 71.58 1185.49 71.58C1185.97 71.58 1186.44 71.6453 1186.92 71.776C1187.39 71.8973 1187.79 72.0607 1188.09 72.266L1187.66 73.064C1187.05 72.644 1186.33 72.434 1185.49 72.434C1184.86 72.434 1184.37 72.546 1184.05 72.77C1183.73 72.994 1183.57 73.288 1183.57 73.652C1183.57 73.932 1183.66 74.156 1183.84 74.324C1184.02 74.492 1184.25 74.618 1184.52 74.702C1184.79 74.7767 1185.17 74.856 1185.64 74.94C1186.23 75.052 1186.7 75.164 1187.06 75.276C1187.41 75.388 1187.72 75.5793 1187.97 75.85C1188.22 76.1207 1188.35 76.494 1188.35 76.97C1188.35 77.614 1188.08 78.1273 1187.53 78.51C1187 78.8833 1186.26 79.07 1185.31 79.07ZM1194.2 78.552C1194.01 78.72 1193.78 78.8507 1193.5 78.944C1193.23 79.028 1192.95 79.07 1192.65 79.07C1191.96 79.07 1191.42 78.8833 1191.05 78.51C1190.68 78.1367 1190.49 77.6093 1190.49 76.928V72.476H1189.18V71.636H1190.49V70.026H1191.49V71.636H1193.73V72.476H1191.49V76.872C1191.49 77.3107 1191.59 77.6467 1191.81 77.88C1192.03 78.104 1192.35 78.216 1192.76 78.216C1192.96 78.216 1193.16 78.1833 1193.35 78.118C1193.54 78.0527 1193.71 77.9593 1193.85 77.838L1194.2 78.552Z" fill="#2A21D9"/>
<path d="M1132.34 185.078C1132.57 184.583 1132.92 184.21 1133.37 183.958C1133.84 183.706 1134.41 183.58 1135.1 183.58V184.546L1134.86 184.532C1134.08 184.532 1133.48 184.77 1133.04 185.246C1132.6 185.722 1132.38 186.389 1132.38 187.248V191H1131.39V183.636H1132.34V185.078ZM1143.38 187.626H1137.22C1137.28 188.391 1137.57 189.012 1138.1 189.488C1138.63 189.955 1139.31 190.188 1140.12 190.188C1140.57 190.188 1140.99 190.109 1141.38 189.95C1141.76 189.782 1142.09 189.539 1142.37 189.222L1142.93 189.866C1142.6 190.258 1142.19 190.557 1141.7 190.762C1141.21 190.967 1140.68 191.07 1140.09 191.07C1139.33 191.07 1138.66 190.911 1138.07 190.594C1137.49 190.267 1137.04 189.819 1136.72 189.25C1136.39 188.681 1136.23 188.037 1136.23 187.318C1136.23 186.599 1136.38 185.955 1136.69 185.386C1137 184.817 1137.43 184.373 1137.98 184.056C1138.53 183.739 1139.14 183.58 1139.82 183.58C1140.5 183.58 1141.12 183.739 1141.66 184.056C1142.2 184.373 1142.62 184.817 1142.93 185.386C1143.24 185.946 1143.39 186.59 1143.39 187.318L1143.38 187.626ZM1139.82 184.434C1139.11 184.434 1138.52 184.663 1138.03 185.12C1137.56 185.568 1137.28 186.156 1137.22 186.884H1142.44C1142.38 186.156 1142.1 185.568 1141.62 185.12C1141.14 184.663 1140.54 184.434 1139.82 184.434ZM1147.53 191.07C1146.93 191.07 1146.36 190.986 1145.81 190.818C1145.27 190.641 1144.84 190.421 1144.53 190.16L1144.98 189.376C1145.29 189.619 1145.68 189.819 1146.14 189.978C1146.61 190.127 1147.1 190.202 1147.6 190.202C1148.27 190.202 1148.77 190.099 1149.08 189.894C1149.41 189.679 1149.57 189.381 1149.57 188.998C1149.57 188.727 1149.49 188.517 1149.31 188.368C1149.13 188.209 1148.91 188.093 1148.64 188.018C1148.37 187.934 1148.01 187.855 1147.56 187.78C1146.96 187.668 1146.48 187.556 1146.12 187.444C1145.75 187.323 1145.44 187.122 1145.18 186.842C1144.93 186.562 1144.8 186.175 1144.8 185.68C1144.8 185.064 1145.06 184.56 1145.57 184.168C1146.08 183.776 1146.8 183.58 1147.71 183.58C1148.19 183.58 1148.66 183.645 1149.14 183.776C1149.62 183.897 1150.01 184.061 1150.32 184.266L1149.88 185.064C1149.28 184.644 1148.55 184.434 1147.71 184.434C1147.08 184.434 1146.6 184.546 1146.27 184.77C1145.95 184.994 1145.79 185.288 1145.79 185.652C1145.79 185.932 1145.88 186.156 1146.06 186.324C1146.25 186.492 1146.48 186.618 1146.75 186.702C1147.02 186.777 1147.39 186.856 1147.87 186.94C1148.45 187.052 1148.93 187.164 1149.28 187.276C1149.64 187.388 1149.94 187.579 1150.19 187.85C1150.44 188.121 1150.57 188.494 1150.57 188.97C1150.57 189.614 1150.3 190.127 1149.76 190.51C1149.22 190.883 1148.48 191.07 1147.53 191.07ZM1156.34 183.58C1157.03 183.58 1157.66 183.739 1158.22 184.056C1158.78 184.364 1159.21 184.803 1159.53 185.372C1159.85 185.941 1160.01 186.59 1160.01 187.318C1160.01 188.055 1159.85 188.709 1159.53 189.278C1159.21 189.847 1158.78 190.291 1158.22 190.608C1157.67 190.916 1157.04 191.07 1156.34 191.07C1155.74 191.07 1155.2 190.949 1154.72 190.706C1154.24 190.454 1153.85 190.09 1153.54 189.614V193.716H1152.55V183.636H1153.5V185.092C1153.8 184.607 1154.19 184.233 1154.67 183.972C1155.17 183.711 1155.72 183.58 1156.34 183.58ZM1156.27 190.188C1156.78 190.188 1157.25 190.071 1157.67 189.838C1158.09 189.595 1158.42 189.255 1158.65 188.816C1158.89 188.377 1159.01 187.878 1159.01 187.318C1159.01 186.758 1158.89 186.263 1158.65 185.834C1158.42 185.395 1158.09 185.055 1157.67 184.812C1157.25 184.569 1156.78 184.448 1156.27 184.448C1155.75 184.448 1155.28 184.569 1154.86 184.812C1154.45 185.055 1154.12 185.395 1153.88 185.834C1153.64 186.263 1153.53 186.758 1153.53 187.318C1153.53 187.878 1153.64 188.377 1153.88 188.816C1154.12 189.255 1154.45 189.595 1154.86 189.838C1155.28 190.071 1155.75 190.188 1156.27 190.188ZM1165.18 191.07C1164.48 191.07 1163.84 190.911 1163.27 190.594C1162.7 190.267 1162.25 189.819 1161.92 189.25C1161.6 188.681 1161.43 188.037 1161.43 187.318C1161.43 186.599 1161.6 185.955 1161.92 185.386C1162.25 184.817 1162.7 184.373 1163.27 184.056C1163.84 183.739 1164.48 183.58 1165.18 183.58C1165.89 183.58 1166.53 183.739 1167.1 184.056C1167.67 184.373 1168.12 184.817 1168.43 185.386C1168.76 185.955 1168.92 186.599 1168.92 187.318C1168.92 188.037 1168.76 188.681 1168.43 189.25C1168.12 189.819 1167.67 190.267 1167.1 190.594C1166.53 190.911 1165.89 191.07 1165.18 191.07ZM1165.18 190.188C1165.71 190.188 1166.17 190.071 1166.58 189.838C1167 189.595 1167.33 189.255 1167.56 188.816C1167.8 188.377 1167.91 187.878 1167.91 187.318C1167.91 186.758 1167.8 186.259 1167.56 185.82C1167.33 185.381 1167 185.045 1166.58 184.812C1166.17 184.569 1165.71 184.448 1165.18 184.448C1164.66 184.448 1164.19 184.569 1163.77 184.812C1163.36 185.045 1163.03 185.381 1162.79 185.82C1162.56 186.259 1162.44 186.758 1162.44 187.318C1162.44 187.878 1162.56 188.377 1162.79 188.816C1163.03 189.255 1163.36 189.595 1163.77 189.838C1164.19 190.071 1164.66 190.188 1165.18 190.188ZM1174.84 183.58C1175.77 183.58 1176.5 183.851 1177.04 184.392C1177.59 184.924 1177.87 185.703 1177.87 186.73V191H1176.87V186.828C1176.87 186.063 1176.68 185.479 1176.3 185.078C1175.92 184.677 1175.37 184.476 1174.66 184.476C1173.87 184.476 1173.24 184.714 1172.77 185.19C1172.31 185.657 1172.09 186.305 1172.09 187.136V191H1171.09V183.636H1172.04V184.994C1172.31 184.546 1172.69 184.201 1173.16 183.958C1173.65 183.706 1174.21 183.58 1174.84 183.58ZM1182.68 191.07C1182.08 191.07 1181.51 190.986 1180.96 190.818C1180.42 190.641 1179.99 190.421 1179.68 190.16L1180.13 189.376C1180.44 189.619 1180.83 189.819 1181.29 189.978C1181.76 190.127 1182.25 190.202 1182.75 190.202C1183.42 190.202 1183.92 190.099 1184.23 189.894C1184.56 189.679 1184.72 189.381 1184.72 188.998C1184.72 188.727 1184.64 188.517 1184.46 188.368C1184.28 188.209 1184.06 188.093 1183.79 188.018C1183.52 187.934 1183.16 187.855 1182.71 187.78C1182.11 187.668 1181.63 187.556 1181.27 187.444C1180.9 187.323 1180.59 187.122 1180.33 186.842C1180.08 186.562 1179.95 186.175 1179.95 185.68C1179.95 185.064 1180.21 184.56 1180.72 184.168C1181.23 183.776 1181.95 183.58 1182.86 183.58C1183.34 183.58 1183.81 183.645 1184.29 183.776C1184.77 183.897 1185.16 184.061 1185.47 184.266L1185.03 185.064C1184.43 184.644 1183.7 184.434 1182.86 184.434C1182.23 184.434 1181.75 184.546 1181.42 184.77C1181.1 184.994 1180.94 185.288 1180.94 185.652C1180.94 185.932 1181.03 186.156 1181.21 186.324C1181.4 186.492 1181.63 186.618 1181.9 186.702C1182.17 186.777 1182.54 186.856 1183.02 186.94C1183.6 187.052 1184.08 187.164 1184.43 187.276C1184.79 187.388 1185.09 187.579 1185.34 187.85C1185.59 188.121 1185.72 188.494 1185.72 188.97C1185.72 189.614 1185.45 190.127 1184.91 190.51C1184.37 190.883 1183.63 191.07 1182.68 191.07ZM1194.11 187.626H1187.95C1188 188.391 1188.3 189.012 1188.83 189.488C1189.36 189.955 1190.03 190.188 1190.85 190.188C1191.3 190.188 1191.72 190.109 1192.11 189.95C1192.49 189.782 1192.82 189.539 1193.1 189.222L1193.66 189.866C1193.33 190.258 1192.92 190.557 1192.43 190.762C1191.94 190.967 1191.41 191.07 1190.82 191.07C1190.06 191.07 1189.39 190.911 1188.8 190.594C1188.22 190.267 1187.77 189.819 1187.44 189.25C1187.12 188.681 1186.95 188.037 1186.95 187.318C1186.95 186.599 1187.11 185.955 1187.42 185.386C1187.73 184.817 1188.16 184.373 1188.7 184.056C1189.25 183.739 1189.87 183.58 1190.55 183.58C1191.23 183.58 1191.84 183.739 1192.39 184.056C1192.93 184.373 1193.35 184.817 1193.66 185.386C1193.97 185.946 1194.12 186.59 1194.12 187.318L1194.11 187.626ZM1190.55 184.434C1189.84 184.434 1189.25 184.663 1188.76 185.12C1188.28 185.568 1188.01 186.156 1187.95 186.884H1193.17C1193.1 186.156 1192.83 185.568 1192.34 185.12C1191.87 184.663 1191.27 184.434 1190.55 184.434Z" fill="#8F8F8F"/>
<g filter="url(#filter1_b_3008_3)">
<rect width="495" height="191" rx="30" transform="matrix(-1 0 0 1 495 35)" fill="#D9E9FB"/>
</g>
<path d="M37.338 73.078C37.5713 72.5833 37.9167 72.21 38.374 71.958C38.8407 71.706 39.4147 71.58 40.096 71.58V72.546L39.858 72.532C39.0833 72.532 38.4767 72.77 38.038 73.246C37.5993 73.722 37.38 74.3893 37.38 75.248V79H36.386V71.636H37.338V73.078ZM48.3794 75.626H42.2194C42.2754 76.3913 42.5694 77.012 43.1014 77.488C43.6334 77.9547 44.3054 78.188 45.1174 78.188C45.5747 78.188 45.9947 78.1087 46.3774 77.95C46.7601 77.782 47.0914 77.5393 47.3714 77.222L47.9314 77.866C47.6047 78.258 47.1941 78.5567 46.6994 78.762C46.2141 78.9673 45.6774 79.07 45.0894 79.07C44.3334 79.07 43.6614 78.9113 43.0734 78.594C42.4947 78.2673 42.0421 77.8193 41.7154 77.25C41.3887 76.6807 41.2254 76.0367 41.2254 75.318C41.2254 74.5993 41.3794 73.9553 41.6874 73.386C42.0047 72.8167 42.4341 72.3733 42.9754 72.056C43.5261 71.7387 44.1421 71.58 44.8234 71.58C45.5047 71.58 46.1161 71.7387 46.6574 72.056C47.1987 72.3733 47.6234 72.8167 47.9314 73.386C48.2394 73.946 48.3934 74.59 48.3934 75.318L48.3794 75.626ZM44.8234 72.434C44.1141 72.434 43.5167 72.6627 43.0314 73.12C42.5554 73.568 42.2847 74.156 42.2194 74.884H47.4414C47.3761 74.156 47.1007 73.568 46.6154 73.12C46.1394 72.6627 45.5421 72.434 44.8234 72.434ZM57.2766 71.636V81.716H56.2826V77.614C55.9746 78.09 55.578 78.454 55.0926 78.706C54.6166 78.9487 54.08 79.07 53.4826 79.07C52.7826 79.07 52.1526 78.916 51.5926 78.608C51.042 78.2907 50.608 77.8473 50.2906 77.278C49.9733 76.7087 49.8146 76.0553 49.8146 75.318C49.8146 74.59 49.9733 73.9413 50.2906 73.372C50.608 72.8027 51.0466 72.364 51.6066 72.056C52.1666 71.7387 52.792 71.58 53.4826 71.58C54.0986 71.58 54.6493 71.7107 55.1346 71.972C55.6293 72.2333 56.026 72.6067 56.3246 73.092V71.636H57.2766ZM53.5666 78.188C54.08 78.188 54.542 78.0713 54.9526 77.838C55.3726 77.5953 55.6993 77.2547 55.9326 76.816C56.1753 76.3773 56.2966 75.878 56.2966 75.318C56.2966 74.758 56.1753 74.2633 55.9326 73.834C55.6993 73.3953 55.3726 73.0547 54.9526 72.812C54.542 72.5693 54.08 72.448 53.5666 72.448C53.044 72.448 52.5726 72.5693 52.1526 72.812C51.742 73.0547 51.4153 73.3953 51.1726 73.834C50.9393 74.2633 50.8226 74.758 50.8226 75.318C50.8226 75.878 50.9393 76.3773 51.1726 76.816C51.4153 77.2547 51.742 77.5953 52.1526 77.838C52.5726 78.0713 53.044 78.188 53.5666 78.188ZM66.8209 71.636V79H65.8689V77.656C65.6076 78.104 65.2482 78.454 64.7909 78.706C64.3336 78.9487 63.8109 79.07 63.2229 79.07C62.2616 79.07 61.5009 78.804 60.9409 78.272C60.3902 77.7307 60.1149 76.942 60.1149 75.906V71.636H61.1089V75.808C61.1089 76.5827 61.3002 77.1707 61.6829 77.572C62.0656 77.9733 62.6116 78.174 63.3209 78.174C64.0956 78.174 64.7069 77.9407 65.1549 77.474C65.6029 76.998 65.8269 76.34 65.8269 75.5V71.636H66.8209ZM76.1568 75.626H69.9968C70.0528 76.3913 70.3468 77.012 70.8788 77.488C71.4108 77.9547 72.0828 78.188 72.8948 78.188C73.3522 78.188 73.7722 78.1087 74.1548 77.95C74.5375 77.782 74.8688 77.5393 75.1488 77.222L75.7088 77.866C75.3822 78.258 74.9715 78.5567 74.4768 78.762C73.9915 78.9673 73.4548 79.07 72.8668 79.07C72.1108 79.07 71.4388 78.9113 70.8508 78.594C70.2722 78.2673 69.8195 77.8193 69.4928 77.25C69.1662 76.6807 69.0028 76.0367 69.0028 75.318C69.0028 74.5993 69.1568 73.9553 69.4648 73.386C69.7822 72.8167 70.2115 72.3733 70.7528 72.056C71.3035 71.7387 71.9195 71.58 72.6008 71.58C73.2822 71.58 73.8935 71.7387 74.4348 72.056C74.9762 72.3733 75.4008 72.8167 75.7088 73.386C76.0168 73.946 76.1708 74.59 76.1708 75.318L76.1568 75.626ZM72.6008 72.434C71.8915 72.434 71.2942 72.6627 70.8088 73.12C70.3328 73.568 70.0622 74.156 69.9968 74.884H75.2188C75.1535 74.156 74.8782 73.568 74.3928 73.12C73.9168 72.6627 73.3195 72.434 72.6008 72.434ZM80.308 79.07C79.7107 79.07 79.1367 78.986 78.586 78.818C78.0447 78.6407 77.62 78.4213 77.312 78.16L77.76 77.376C78.068 77.6187 78.4554 77.8193 78.922 77.978C79.3887 78.1273 79.874 78.202 80.378 78.202C81.05 78.202 81.5447 78.0993 81.862 77.894C82.1887 77.6793 82.352 77.3807 82.352 76.998C82.352 76.7273 82.2634 76.5173 82.086 76.368C81.9087 76.2093 81.6847 76.0927 81.414 76.018C81.1434 75.934 80.784 75.8547 80.336 75.78C79.7387 75.668 79.258 75.556 78.894 75.444C78.53 75.3227 78.2174 75.122 77.956 74.842C77.704 74.562 77.578 74.1747 77.578 73.68C77.578 73.064 77.8347 72.56 78.348 72.168C78.8614 71.776 79.5754 71.58 80.49 71.58C80.966 71.58 81.442 71.6453 81.918 71.776C82.394 71.8973 82.786 72.0607 83.094 72.266L82.66 73.064C82.0534 72.644 81.33 72.434 80.49 72.434C79.8554 72.434 79.3747 72.546 79.048 72.77C78.7307 72.994 78.572 73.288 78.572 73.652C78.572 73.932 78.6607 74.156 78.838 74.324C79.0247 74.492 79.2534 74.618 79.524 74.702C79.7947 74.7767 80.168 74.856 80.644 74.94C81.232 75.052 81.7034 75.164 82.058 75.276C82.4127 75.388 82.716 75.5793 82.968 75.85C83.22 76.1207 83.346 76.494 83.346 76.97C83.346 77.614 83.0754 78.1273 82.534 78.51C82.002 78.8833 81.26 79.07 80.308 79.07ZM89.2017 78.552C89.015 78.72 88.7817 78.8507 88.5017 78.944C88.231 79.028 87.9463 79.07 87.6477 79.07C86.957 79.07 86.425 78.8833 86.0517 78.51C85.6783 78.1367 85.4917 77.6093 85.4917 76.928V72.476H84.1757V71.636H85.4917V70.026H86.4857V71.636H88.7257V72.476H86.4857V76.872C86.4857 77.3107 86.593 77.6467 86.8077 77.88C87.0317 78.104 87.349 78.216 87.7597 78.216C87.965 78.216 88.161 78.1833 88.3477 78.118C88.5437 78.0527 88.7117 77.9593 88.8517 77.838L89.2017 78.552Z" fill="#2A21D9"/>
<path d="M37.338 185.078C37.5713 184.583 37.9167 184.21 38.374 183.958C38.8407 183.706 39.4147 183.58 40.096 183.58V184.546L39.858 184.532C39.0833 184.532 38.4767 184.77 38.038 185.246C37.5993 185.722 37.38 186.389 37.38 187.248V191H36.386V183.636H37.338V185.078ZM48.3794 187.626H42.2194C42.2754 188.391 42.5694 189.012 43.1014 189.488C43.6334 189.955 44.3054 190.188 45.1174 190.188C45.5747 190.188 45.9947 190.109 46.3774 189.95C46.7601 189.782 47.0914 189.539 47.3714 189.222L47.9314 189.866C47.6047 190.258 47.1941 190.557 46.6994 190.762C46.2141 190.967 45.6774 191.07 45.0894 191.07C44.3334 191.07 43.6614 190.911 43.0734 190.594C42.4947 190.267 42.0421 189.819 41.7154 189.25C41.3887 188.681 41.2254 188.037 41.2254 187.318C41.2254 186.599 41.3794 185.955 41.6874 185.386C42.0047 184.817 42.4341 184.373 42.9754 184.056C43.5261 183.739 44.1421 183.58 44.8234 183.58C45.5047 183.58 46.1161 183.739 46.6574 184.056C47.1987 184.373 47.6234 184.817 47.9314 185.386C48.2394 185.946 48.3934 186.59 48.3934 187.318L48.3794 187.626ZM44.8234 184.434C44.1141 184.434 43.5167 184.663 43.0314 185.12C42.5554 185.568 42.2847 186.156 42.2194 186.884H47.4414C47.3761 186.156 47.1007 185.568 46.6154 185.12C46.1394 184.663 45.5421 184.434 44.8234 184.434ZM52.5306 191.07C51.9333 191.07 51.3593 190.986 50.8086 190.818C50.2673 190.641 49.8426 190.421 49.5346 190.16L49.9826 189.376C50.2906 189.619 50.678 189.819 51.1446 189.978C51.6113 190.127 52.0966 190.202 52.6006 190.202C53.2726 190.202 53.7673 190.099 54.0846 189.894C54.4113 189.679 54.5746 189.381 54.5746 188.998C54.5746 188.727 54.486 188.517 54.3086 188.368C54.1313 188.209 53.9073 188.093 53.6366 188.018C53.366 187.934 53.0066 187.855 52.5586 187.78C51.9613 187.668 51.4806 187.556 51.1166 187.444C50.7526 187.323 50.44 187.122 50.1786 186.842C49.9266 186.562 49.8006 186.175 49.8006 185.68C49.8006 185.064 50.0573 184.56 50.5706 184.168C51.084 183.776 51.798 183.58 52.7126 183.58C53.1886 183.58 53.6646 183.645 54.1406 183.776C54.6166 183.897 55.0086 184.061 55.3166 184.266L54.8826 185.064C54.276 184.644 53.5526 184.434 52.7126 184.434C52.078 184.434 51.5973 184.546 51.2706 184.77C50.9533 184.994 50.7946 185.288 50.7946 185.652C50.7946 185.932 50.8833 186.156 51.0606 186.324C51.2473 186.492 51.476 186.618 51.7466 186.702C52.0173 186.777 52.3906 186.856 52.8666 186.94C53.4546 187.052 53.926 187.164 54.2806 187.276C54.6353 187.388 54.9386 187.579 55.1906 187.85C55.4426 188.121 55.5686 188.494 55.5686 188.97C55.5686 189.614 55.298 190.127 54.7566 190.51C54.2246 190.883 53.4826 191.07 52.5306 191.07ZM61.3402 183.58C62.0309 183.58 62.6562 183.739 63.2162 184.056C63.7762 184.364 64.2149 184.803 64.5322 185.372C64.8496 185.941 65.0082 186.59 65.0082 187.318C65.0082 188.055 64.8496 188.709 64.5322 189.278C64.2149 189.847 63.7762 190.291 63.2162 190.608C62.6656 190.916 62.0402 191.07 61.3402 191.07C60.7429 191.07 60.2016 190.949 59.7162 190.706C59.2402 190.454 58.8482 190.09 58.5402 189.614V193.716H57.5462V183.636H58.4982V185.092C58.7969 184.607 59.1889 184.233 59.6742 183.972C60.1689 183.711 60.7242 183.58 61.3402 183.58ZM61.2702 190.188C61.7836 190.188 62.2502 190.071 62.6702 189.838C63.0902 189.595 63.4169 189.255 63.6502 188.816C63.8929 188.377 64.0142 187.878 64.0142 187.318C64.0142 186.758 63.8929 186.263 63.6502 185.834C63.4169 185.395 63.0902 185.055 62.6702 184.812C62.2502 184.569 61.7836 184.448 61.2702 184.448C60.7476 184.448 60.2762 184.569 59.8562 184.812C59.4456 185.055 59.1189 185.395 58.8762 185.834C58.6429 186.263 58.5262 186.758 58.5262 187.318C58.5262 187.878 58.6429 188.377 58.8762 188.816C59.1189 189.255 59.4456 189.595 59.8562 189.838C60.2762 190.071 60.7476 190.188 61.2702 190.188ZM70.1845 191.07C69.4752 191.07 68.8358 190.911 68.2665 190.594C67.6972 190.267 67.2492 189.819 66.9225 189.25C66.5958 188.681 66.4325 188.037 66.4325 187.318C66.4325 186.599 66.5958 185.955 66.9225 185.386C67.2492 184.817 67.6972 184.373 68.2665 184.056C68.8358 183.739 69.4752 183.58 70.1845 183.58C70.8938 183.58 71.5332 183.739 72.1025 184.056C72.6718 184.373 73.1152 184.817 73.4325 185.386C73.7592 185.955 73.9225 186.599 73.9225 187.318C73.9225 188.037 73.7592 188.681 73.4325 189.25C73.1152 189.819 72.6718 190.267 72.1025 190.594C71.5332 190.911 70.8938 191.07 70.1845 191.07ZM70.1845 190.188C70.7072 190.188 71.1738 190.071 71.5845 189.838C72.0045 189.595 72.3312 189.255 72.5645 188.816C72.7978 188.377 72.9145 187.878 72.9145 187.318C72.9145 186.758 72.7978 186.259 72.5645 185.82C72.3312 185.381 72.0045 185.045 71.5845 184.812C71.1738 184.569 70.7072 184.448 70.1845 184.448C69.6618 184.448 69.1905 184.569 68.7705 184.812C68.3598 185.045 68.0332 185.381 67.7905 185.82C67.5572 186.259 67.4405 186.758 67.4405 187.318C67.4405 187.878 67.5572 188.377 67.7905 188.816C68.0332 189.255 68.3598 189.595 68.7705 189.838C69.1905 190.071 69.6618 190.188 70.1845 190.188ZM79.8439 183.58C80.7679 183.58 81.5005 183.851 82.0419 184.392C82.5925 184.924 82.8679 185.703 82.8679 186.73V191H81.8739V186.828C81.8739 186.063 81.6825 185.479 81.2999 185.078C80.9172 184.677 80.3712 184.476 79.6619 184.476C78.8685 184.476 78.2385 184.714 77.7719 185.19C77.3145 185.657 77.0859 186.305 77.0859 187.136V191H76.0919V183.636H77.0439V184.994C77.3145 184.546 77.6879 184.201 78.1639 183.958C78.6492 183.706 79.2092 183.58 79.8439 183.58ZM87.6805 191.07C87.0831 191.07 86.5091 190.986 85.9585 190.818C85.4171 190.641 84.9925 190.421 84.6845 190.16L85.1325 189.376C85.4405 189.619 85.8278 189.819 86.2945 189.978C86.7611 190.127 87.2465 190.202 87.7505 190.202C88.4225 190.202 88.9171 190.099 89.2345 189.894C89.5611 189.679 89.7245 189.381 89.7245 188.998C89.7245 188.727 89.6358 188.517 89.4585 188.368C89.2811 188.209 89.0571 188.093 88.7865 188.018C88.5158 187.934 88.1565 187.855 87.7085 187.78C87.1111 187.668 86.6305 187.556 86.2665 187.444C85.9025 187.323 85.5898 187.122 85.3285 186.842C85.0765 186.562 84.9505 186.175 84.9505 185.68C84.9505 185.064 85.2071 184.56 85.7205 184.168C86.2338 183.776 86.9478 183.58 87.8625 183.58C88.3385 183.58 88.8145 183.645 89.2905 183.776C89.7665 183.897 90.1585 184.061 90.4665 184.266L90.0325 185.064C89.4258 184.644 88.7025 184.434 87.8625 184.434C87.2278 184.434 86.7471 184.546 86.4205 184.77C86.1031 184.994 85.9445 185.288 85.9445 185.652C85.9445 185.932 86.0331 186.156 86.2105 186.324C86.3971 186.492 86.6258 186.618 86.8965 186.702C87.1671 186.777 87.5405 186.856 88.0165 186.94C88.6045 187.052 89.0758 187.164 89.4305 187.276C89.7851 187.388 90.0885 187.579 90.3405 187.85C90.5925 188.121 90.7185 188.494 90.7185 188.97C90.7185 189.614 90.4478 190.127 89.9065 190.51C89.3745 190.883 88.6325 191.07 87.6805 191.07ZM99.1081 187.626H92.9481C93.0041 188.391 93.2981 189.012 93.8301 189.488C94.3621 189.955 95.0341 190.188 95.8461 190.188C96.3034 190.188 96.7234 190.109 97.1061 189.95C97.4887 189.782 97.8201 189.539 98.1001 189.222L98.6601 189.866C98.3334 190.258 97.9227 190.557 97.4281 190.762C96.9427 190.967 96.4061 191.07 95.8181 191.07C95.0621 191.07 94.3901 190.911 93.8021 190.594C93.2234 190.267 92.7707 189.819 92.4441 189.25C92.1174 188.681 91.9541 188.037 91.9541 187.318C91.9541 186.599 92.1081 185.955 92.4161 185.386C92.7334 184.817 93.1627 184.373 93.7041 184.056C94.2547 183.739 94.8707 183.58 95.5521 183.58C96.2334 183.58 96.8447 183.739 97.3861 184.056C97.9274 184.373 98.3521 184.817 98.6601 185.386C98.9681 185.946 99.1221 186.59 99.1221 187.318L99.1081 187.626ZM95.5521 184.434C94.8427 184.434 94.2454 184.663 93.7601 185.12C93.2841 185.568 93.0134 186.156 92.9481 186.884H98.1701C98.1047 186.156 97.8294 185.568 97.3441 185.12C96.8681 184.663 96.2707 184.434 95.5521 184.434Z" fill="#8F8F8F"/>
<g filter="url(#filter2_b_3008_3)">
<rect x="420" width="389" height="261" rx="30" fill="#44B4FF"/>
</g>
<path d="M495 75.9999H161.937" stroke="white" stroke-width="0.84" stroke-miterlimit="10"/>
<path d="M495 81.9948H161.937" stroke="white" stroke-width="0.93" stroke-miterlimit="10"/>
<path d="M495 87.9897H161.937" stroke="white" stroke-width="1.03" stroke-miterlimit="10"/>
<path d="M495 93.9846H161.937" stroke="white" stroke-width="1.12" stroke-miterlimit="10"/>
<path d="M495 99.9794H161.937" stroke="white" stroke-width="1.21" stroke-miterlimit="10"/>
<path d="M495 105.964H161.937" stroke="white" stroke-width="1.31" stroke-miterlimit="10"/>
<path d="M495 111.959H161.937" stroke="white" stroke-width="1.4" stroke-miterlimit="10"/>
<path d="M495 117.954H161.937" stroke="white" stroke-width="1.49" stroke-miterlimit="10"/>
<path d="M495 123.949H161.937" stroke="white" stroke-width="1.59" stroke-miterlimit="10"/>
<path d="M495 129.944H161.937" stroke="white" stroke-width="1.68" stroke-miterlimit="10"/>
<path d="M161.937 183H495" stroke="white" stroke-width="0.84" stroke-miterlimit="10"/>
<path d="M161.937 177.105H495" stroke="white" stroke-width="0.93" stroke-miterlimit="10"/>
<path d="M161.937 171.21H495" stroke="white" stroke-width="1.03" stroke-miterlimit="10"/>
<path d="M161.937 165.315H495" stroke="white" stroke-width="1.12" stroke-miterlimit="10"/>
<path d="M161.937 159.419H495" stroke="white" stroke-width="1.21" stroke-miterlimit="10"/>
<path d="M161.937 153.524H495" stroke="white" stroke-width="1.31" stroke-miterlimit="10"/>
<path d="M161.937 147.629H495" stroke="white" stroke-width="1.4" stroke-miterlimit="10"/>
<path d="M161.937 141.734H495" stroke="white" stroke-width="1.49" stroke-miterlimit="10"/>
<path d="M161.937 135.839H495" stroke="white" stroke-width="1.59" stroke-miterlimit="10"/>
<path d="M161.937 129.944H495" stroke="white" stroke-width="1.68" stroke-miterlimit="10"/>
<rect x="105" y="68.9999" width="187.793" height="122" fill="url(#paint0_linear_3008_3)"/>
<path d="M735 75.9999H1068.06" stroke="white" stroke-width="0.84" stroke-miterlimit="10"/>
<path d="M735 81.9948H1068.06" stroke="white" stroke-width="0.93" stroke-miterlimit="10"/>
<path d="M735 87.9897H1068.06" stroke="white" stroke-width="1.03" stroke-miterlimit="10"/>
<path d="M735 93.9846H1068.06" stroke="white" stroke-width="1.12" stroke-miterlimit="10"/>
<path d="M735 99.9794H1068.06" stroke="white" stroke-width="1.21" stroke-miterlimit="10"/>
<path d="M735 105.964H1068.06" stroke="white" stroke-width="1.31" stroke-miterlimit="10"/>
<path d="M735 111.959H1068.06" stroke="white" stroke-width="1.4" stroke-miterlimit="10"/>
<path d="M735 117.954H1068.06" stroke="white" stroke-width="1.49" stroke-miterlimit="10"/>
<path d="M735 123.949H1068.06" stroke="white" stroke-width="1.59" stroke-miterlimit="10"/>
<path d="M735 129.944H1068.06" stroke="white" stroke-width="1.68" stroke-miterlimit="10"/>
<path d="M1068.06 183H735" stroke="white" stroke-width="0.84" stroke-miterlimit="10"/>
<path d="M1068.06 177.105H735" stroke="white" stroke-width="0.93" stroke-miterlimit="10"/>
<path d="M1068.06 171.21H735" stroke="white" stroke-width="1.03" stroke-miterlimit="10"/>
<path d="M1068.06 165.315H735" stroke="white" stroke-width="1.12" stroke-miterlimit="10"/>
<path d="M1068.06 159.419H735" stroke="white" stroke-width="1.21" stroke-miterlimit="10"/>
<path d="M1068.06 153.524H735" stroke="white" stroke-width="1.31" stroke-miterlimit="10"/>
<path d="M1068.06 147.629H735" stroke="white" stroke-width="1.4" stroke-miterlimit="10"/>
<path d="M1068.06 141.734H735" stroke="white" stroke-width="1.49" stroke-miterlimit="10"/>
<path d="M1068.06 135.839H735" stroke="white" stroke-width="1.59" stroke-miterlimit="10"/>
<path d="M1068.06 129.944H735" stroke="white" stroke-width="1.68" stroke-miterlimit="10"/>
<rect width="187.793" height="122" transform="matrix(-1 0 0 1 1125 68.9999)" fill="url(#paint1_linear_3008_3)"/>
<g filter="url(#filter3_d_3008_3)">
<rect x="461" y="75.9999" width="307" height="107" rx="13" fill="#44B4FF"/>
<rect x="461" y="75.9999" width="307" height="107" rx="13" stroke="white"/>
</g>
<path d="M508.264 145.114C508.264 147.556 507.538 150.02 506.482 151.384L503.798 150.174C504.744 148.876 505.404 146.94 505.404 145.092C505.404 142.98 504.7 142.122 503.754 142.122C500.872 142.122 502.852 151.076 497.132 151.076C494.514 151.076 492.336 148.964 492.336 144.586C492.336 142.65 492.798 140.67 493.7 139.24L496.406 140.34C495.592 141.77 495.196 143.244 495.196 144.608C495.196 146.72 495.988 147.534 496.956 147.534C499.794 147.534 497.836 138.58 503.49 138.58C506.064 138.58 508.264 140.714 508.264 145.114ZM508 136.145L492.6 136.145L492.6 129.149C492.6 124.111 495.636 120.657 500.3 120.657C504.964 120.657 508 124.111 508 129.149L508 136.145ZM505.074 132.581L505.074 129.325C505.074 126.267 503.248 124.265 500.3 124.265C497.352 124.265 495.526 126.267 495.526 129.325L495.526 132.581L505.074 132.581ZM508 107.431L501.95 112.359L504.106 114.427L508 114.427L508 117.969L492.6 117.969L492.6 114.427L499.794 114.427L492.6 107.607L492.6 103.647L499.464 110.027L508 103.273L508 107.431Z" fill="white"/>
<g filter="url(#filter4_b_3008_3)">
<rect x="531" y="46" width="167" height="168" rx="30" fill="white" fill-opacity="0.7"/>
<rect x="531.5" y="46.5" width="166" height="167" rx="29.5" stroke="white"/>
</g>
<g filter="url(#filter5_d_3008_3)">
<rect x="546" y="61" width="137" height="137" rx="18" fill="#003CC9"/>
</g>
<path d="M600.616 94.8651C605.52 94.8651 608.48 98.1611 608.48 105.339V117.796H602.053V107.236C602.053 103.311 600.346 101.37 597.775 101.37C595.658 101.37 592.741 103.268 592.741 109.09V117.796H586.314V107.236C586.314 103.127 584.78 101.37 582.263 101.37C580.286 101.37 577.046 103.224 577.046 109.09V117.796H570.629V95.2229H577.056V100.102C577.056 101.143 576.873 102.455 576.657 103.485H576.743C576.97 102.444 577.197 101.132 577.683 100.189C579.26 96.5348 582.047 94.8651 584.791 94.8651C589.425 94.8651 591.315 97.7491 592.169 100.373C592.525 101.414 592.439 102.715 592.396 103.756H592.482C592.525 102.715 592.795 101.403 593.206 100.46C594.642 97.3046 596.803 94.8651 600.627 94.8651H600.616Z" fill="white"/>
<path d="M629.134 95.2229H636.144L625.169 120.994C623.236 126.047 619.325 127.088 616.711 127.088H609.917V122.35H613.287C614.454 122.35 617.878 121.992 618.591 120.095L619.444 117.482L609.884 95.2229H616.895L622.339 108.266C622.836 109.209 623.009 110.521 623.009 111.562H623.095C623.095 110.521 623.279 109.209 623.679 108.266L629.134 95.2229Z" fill="white"/>
<path d="M595.085 142.017V149.552C595.085 150.68 595.539 150.994 596.663 150.994H597.289V155.873H593.152C590.721 155.873 588.658 153.976 588.658 151.905V150.095C588.161 153.347 585.828 154.876 583.624 155.559C582.501 155.917 581.291 156.101 579.941 156.101C579.401 156.101 577.24 156.231 574.81 155.104C572.379 154.019 570.629 152.035 570.629 149.466C570.629 144.587 575.166 143.188 579.714 142.971C584.251 142.787 588.658 143.058 588.658 141.529V141.486C588.615 138.96 586.595 137.962 582.857 137.962C579.757 137.962 577.057 138.504 576.786 141.388L571.029 141.074C571.256 135.479 577.456 133.181 582.857 133.181C589.015 133.181 595.085 135.349 595.085 142.028V142.017ZM581.647 151.992C582.501 151.992 584.035 151.905 585.741 151.179C587.448 150.507 588.669 149.325 588.669 147.883V145.4C585.968 147.384 577.294 144.814 577.294 149.281C577.294 151.678 580.394 151.992 581.658 151.992H581.647Z" fill="white"/>
<path d="M615.955 133.04C623.376 133.04 627.514 136.791 627.514 144.598C627.514 152.404 623.376 156.101 615.955 156.155C613.028 156.155 609.485 154.8 607.454 152.675C606.73 151.949 606.287 150.647 605.974 149.693H605.888C606.201 150.734 606.471 151.992 606.471 153.033V164.905H600.044L600 133.311H606.471V136.152C606.471 137.192 606.201 138.494 605.888 139.448L605.974 139.491C606.287 138.548 606.741 137.236 607.454 136.509C609.474 134.341 612.985 133.029 615.955 133.029V133.04ZM621.13 144.587C621.13 140.662 619.466 138.222 614.205 138.222C609.841 138.222 606.471 140.749 606.471 144.587C606.471 148.425 609.841 151.265 614.205 151.265C619.466 151.265 621.13 148.512 621.13 144.587Z" fill="white"/>
<path d="M646.18 133.04C653.601 133.04 657.738 136.791 657.738 144.598C657.738 152.404 653.601 156.101 646.18 156.155C643.253 156.155 639.709 154.8 637.679 152.675C636.955 151.949 636.512 150.647 636.199 149.693H636.112C636.426 150.734 636.696 151.992 636.696 153.033V164.905H630.268L630.225 133.311H636.696V136.152C636.696 137.192 636.426 138.494 636.112 139.448L636.199 139.491C636.512 138.548 636.966 137.236 637.679 136.509C639.699 134.341 643.209 133.029 646.18 133.029V133.04ZM651.354 144.587C651.354 140.662 649.691 138.222 644.43 138.222C640.066 138.222 636.696 140.749 636.696 144.587C636.696 148.425 640.066 151.265 644.43 151.265C649.691 151.265 651.354 148.512 651.354 144.587Z" fill="white"/>
<path d="M142.166 133.109C142.075 133.109 141.985 133.09 141.9 133.048L122.356 123.615C122.137 123.51 122 123.286 122 123.04C122 122.794 122.141 122.57 122.356 122.465L141.897 113.038C142.066 112.958 142.26 112.958 142.428 113.038L161.97 122.465C162.188 122.57 162.326 122.794 162.326 123.04C162.326 123.286 162.188 123.51 161.97 123.615L142.425 133.048C142.341 133.09 142.25 133.109 142.16 133.109H142.166ZM124.083 123.04L142.166 131.77L160.249 123.04L142.166 114.316L124.083 123.04Z" fill="black"/>
<path d="M142.166 141.554C142.075 141.554 141.985 141.535 141.9 141.494L122.356 132.061C122.137 131.955 122 131.732 122 131.485C122 131.239 122.141 131.016 122.356 130.91L131.104 126.692C131.273 126.612 131.466 126.612 131.635 126.692L142.166 131.773L152.697 126.692C152.866 126.612 153.059 126.612 153.228 126.692L161.973 130.91C162.191 131.016 162.329 131.239 162.329 131.485C162.329 131.732 162.188 131.955 161.973 132.061L142.431 141.494C142.347 141.535 142.256 141.554 142.166 141.554ZM124.083 131.482L142.166 140.212L160.249 131.482L152.963 127.967L142.431 133.048C142.263 133.128 142.069 133.128 141.9 133.048L131.369 127.967L124.083 131.482Z" fill="black"/>
<path d="M142.166 150C142.075 150 141.985 149.981 141.9 149.939L122.356 140.513C122.137 140.407 122 140.184 122 139.937C122 139.691 122.141 139.468 122.356 139.362L131.11 135.135C131.279 135.055 131.472 135.055 131.641 135.135L142.163 140.215L152.685 135.135C152.853 135.055 153.047 135.055 153.215 135.135L161.97 139.362C162.188 139.468 162.326 139.691 162.326 139.937C162.326 140.184 162.185 140.407 161.97 140.513L142.428 149.939C142.344 149.981 142.253 150 142.163 150H142.166ZM124.083 139.934L142.166 148.658L160.249 139.934L152.953 136.413L142.431 141.494C142.263 141.574 142.069 141.574 141.9 141.494L131.379 136.413L124.083 139.934Z" fill="black"/>
<path d="M138.125 124.353C137.781 124.353 137.503 124.069 137.503 123.717V106.842C137.503 106.491 137.781 106.206 138.125 106.206C138.468 106.206 138.746 106.491 138.746 106.842V123.717C138.746 124.069 138.468 124.353 138.125 124.353Z" fill="#2A21D9"/>
<path d="M138.125 124.353C137.965 124.353 137.806 124.293 137.684 124.168C137.441 123.919 137.441 123.516 137.684 123.267L140.636 120.247C140.879 119.998 141.273 119.998 141.516 120.247C141.76 120.496 141.76 120.899 141.516 121.148L138.565 124.168C138.443 124.293 138.284 124.353 138.125 124.353Z" fill="#2A21D9"/>
<path d="M138.125 124.353C137.965 124.353 137.806 124.293 137.684 124.168L134.733 121.148C134.489 120.899 134.489 120.496 134.733 120.247C134.977 119.998 135.37 119.998 135.614 120.247L138.565 123.267C138.809 123.516 138.809 123.919 138.565 124.168C138.443 124.293 138.284 124.353 138.125 124.353Z" fill="#2A21D9"/>
<path d="M145.945 124.152C145.601 124.152 145.323 123.867 145.323 123.516V106.637C145.323 106.286 145.601 106.002 145.945 106.002C146.288 106.002 146.566 106.286 146.566 106.637V123.513C146.566 123.864 146.288 124.149 145.945 124.149V124.152Z" fill="#2A21D9"/>
<path d="M142.994 110.296C142.834 110.296 142.675 110.236 142.553 110.111C142.31 109.862 142.31 109.459 142.553 109.21L145.505 106.187C145.748 105.938 146.142 105.938 146.385 106.187C146.629 106.436 146.629 106.839 146.385 107.088L143.434 110.108C143.312 110.232 143.153 110.293 142.994 110.293V110.296Z" fill="#2A21D9"/>
<path d="M148.896 110.296C148.737 110.296 148.578 110.236 148.456 110.111L145.505 107.091C145.261 106.842 145.261 106.439 145.505 106.19C145.748 105.941 146.142 105.941 146.385 106.19L149.337 109.21C149.58 109.459 149.58 109.862 149.337 110.111C149.215 110.236 149.056 110.296 148.896 110.296Z" fill="#2A21D9"/>
<path d="M195.448 117.6C200.568 117.6 203.64 120.192 203.64 124.992C203.64 128.576 200.568 132.416 195.448 132.416H188.536V140H183.96V117.6H195.448ZM188.536 128.832H194.808C197.016 128.832 199.064 127.136 199.064 125.088C199.064 122.592 197.08 121.376 194.808 121.376H188.536V128.832ZM213.133 123.904C217.517 123.904 221.837 125.44 221.837 130.176V135.52C221.837 136.32 222.157 136.544 222.957 136.544H223.405V140H220.461C218.733 140 217.261 138.656 217.261 137.184V135.904C216.909 138.208 215.245 139.296 213.677 139.776C212.877 140.032 212.013 140.16 211.053 140.16C210.669 140.16 209.133 140.256 207.405 139.456C205.677 138.688 204.429 137.28 204.429 135.456C204.429 132 207.661 131.008 210.893 130.848C214.125 130.72 217.261 130.912 217.261 129.824V129.792C217.229 128 215.789 127.296 213.133 127.296C210.925 127.296 209.005 127.68 208.813 129.728L204.717 129.504C204.877 125.536 209.293 123.904 213.133 123.904ZM209.165 135.328C209.165 137.024 211.373 137.248 212.269 137.248C212.877 137.248 213.965 137.184 215.181 136.672C216.397 136.192 217.261 135.36 217.261 134.336V132.576C215.341 133.984 209.165 132.16 209.165 135.328ZM233.566 133.248L237.438 124H242.43L234.622 142.272C233.246 145.856 230.462 146.592 228.606 146.592H223.774V143.232H226.174C227.006 143.232 229.438 142.976 229.95 141.632L230.558 139.776L223.742 124H228.734L232.606 133.248C232.958 133.92 233.086 134.848 233.086 135.584H233.15C233.15 134.848 233.278 133.92 233.566 133.248ZM242.929 135.104L247.409 134.56C247.633 136.32 249.233 136.992 251.889 136.992C254.609 136.992 256.113 136.224 256.113 134.784C256.113 132.352 243.217 135.008 243.217 128.832C243.217 124.256 249.681 123.776 251.921 123.776C255.281 123.776 260.081 125.088 260.241 128.608L256.209 129.056C255.985 127.552 254.545 127.008 251.825 127.008C249.233 127.008 247.793 127.456 247.793 129.024C247.793 131.424 260.689 128.768 260.689 134.88C260.689 139.776 254.065 140.192 251.729 140.192C249.585 140.192 243.185 139.488 242.929 135.104ZM262.616 140V116.64H267.192V140H262.616ZM273.724 121.312H269.116V117.6H273.724V121.312ZM269.18 124H273.66V140H269.18V124ZM280.607 127.904C281.887 124.992 284.511 123.744 286.687 123.744C291.103 123.744 292.959 127.264 292.959 132.704V140H288.415V132.672C288.415 129.856 286.975 128.32 284.991 128.32C283.103 128.32 280.223 129.408 280.223 134.016V140H275.647V124H280.223V127.808C280.223 128.48 280.095 129.344 279.967 129.984H280.031C280.159 129.344 280.319 128.448 280.607 127.904ZM313.906 132C313.906 132.48 313.874 132.48 313.842 132.896H299.122C299.346 134.144 299.954 135.104 300.882 135.744C301.778 136.416 303.186 136.736 304.466 136.736H304.722C305.97 136.736 306.994 136.608 307.794 136.224C308.562 135.84 309.33 135.2 309.714 134.144L313.906 134.368C313.49 136.704 312.114 138.144 310.45 139.008C308.786 139.904 306.802 140.192 304.594 140.192C299.346 140.192 294.866 137.536 294.866 132C294.866 126.464 299.346 123.808 304.594 123.808C309.842 123.808 313.906 126.496 313.906 132ZM304.722 127.072H304.53C303.346 127.072 301.746 127.456 300.722 128.352C299.698 129.28 299.122 130.72 299.122 132.512V132.896C299.154 131.744 299.474 131.328 299.954 130.912C300.434 130.496 301.234 130.336 301.906 130.336H309.682C309.33 129.184 308.85 128.448 308.05 127.904C307.25 127.36 306.002 127.072 304.722 127.072Z" fill="black"/>
<path d="M1210.15 132.65C1210.34 132.457 1210.66 132.457 1210.85 132.65L1214 135.8C1214.19 135.993 1214.19 136.307 1214 136.5C1213.81 136.693 1213.49 136.693 1213.3 136.5L1210.5 133.7L1207.7 136.5C1207.51 136.693 1207.19 136.693 1207 136.5C1206.81 136.307 1206.81 135.993 1207 135.8L1210.15 132.65ZM1211 133V190.076H1210V133H1211ZM1211 190.076C1211 199.154 1203.55 206.495 1194.36 206.495V205.505C1203.01 205.505 1210 198.595 1210 190.076H1211ZM1194.36 206.495H688V205.505H1194.36V206.495Z" fill="url(#paint2_linear_3008_3)"/>
<path d="M19.35 132.65C19.1567 132.457 18.8433 132.457 18.65 132.65L15.4998 135.8C15.3065 135.993 15.3065 136.307 15.4998 136.5C15.6931 136.693 16.0065 136.693 16.1999 136.5L19 133.7L21.8001 136.5C21.9935 136.693 22.3069 136.693 22.5002 136.5C22.6935 136.307 22.6935 135.993 22.5002 135.8L19.35 132.65ZM18.505 133V190.076H19.495V133H18.505ZM18.505 190.076C18.505 199.154 25.9542 206.495 35.137 206.495V205.505C26.4885 205.505 19.495 198.595 19.495 190.076H18.505ZM35.137 206.495H541V205.505H35.137V206.495Z" fill="url(#paint3_linear_3008_3)"/>
<path d="M960.783 133.984L966.319 117.6H971.183L963.535 140H957.775L954.383 125.824V125.632V125.472H954.319V125.824L950.895 140H945.167L937.487 117.6H942.319L947.791 133.952C947.887 134.304 947.919 134.72 947.951 135.072H948.015C947.983 134.976 947.983 134.848 947.983 134.72C947.983 134.592 947.983 134.304 948.079 133.952L951.983 117.6H956.591L960.463 133.984C960.559 134.272 960.527 134.688 960.527 135.04H960.591C960.591 134.688 960.655 134.272 960.783 133.984ZM988.964 132C988.964 132.48 988.932 132.48 988.9 132.896H974.18C974.404 134.144 975.012 135.104 975.94 135.744C976.836 136.416 978.244 136.736 979.524 136.736H979.78C981.028 136.736 982.052 136.608 982.852 136.224C983.62 135.84 984.388 135.2 984.772 134.144L988.964 134.368C988.548 136.704 987.172 138.144 985.508 139.008C983.844 139.904 981.86 140.192 979.652 140.192C974.404 140.192 969.924 137.536 969.924 132C969.924 126.464 974.404 123.808 979.652 123.808C984.9 123.808 988.964 126.496 988.964 132ZM979.78 127.072H979.588C978.404 127.072 976.804 127.456 975.78 128.352C974.756 129.28 974.18 130.72 974.18 132.512V132.896C974.212 131.744 974.532 131.328 975.012 130.912C975.492 130.496 976.292 130.336 976.964 130.336H984.74C984.388 129.184 983.908 128.448 983.108 127.904C982.308 127.36 981.06 127.072 979.78 127.072ZM996.329 126.336C997.769 124.8 1000.27 123.808 1002.38 123.808C1007.72 123.84 1010.63 126.464 1010.63 132C1010.63 137.536 1007.72 140.192 1002.38 140.192C1000.3 140.192 997.769 139.296 996.329 137.792C995.817 137.28 995.497 136.352 995.273 135.68L995.209 135.712C995.433 136.384 995.625 137.312 995.625 138.048V140H991.049V117.6H995.625V126.08C995.625 126.816 995.433 127.712 995.209 128.448H995.273C995.497 127.776 995.817 126.848 996.329 126.336ZM1001.16 136.512C1004.84 136.512 1006.09 134.784 1006.09 132C1006.09 129.312 1004.84 127.264 1001.16 127.264C998.057 127.264 995.625 129.344 995.625 132C995.625 134.656 998.057 136.512 1001.16 136.512ZM1045.78 140H1040.72L1038.99 135.392H1029.52L1027.76 140H1022.8L1031.25 117.6H1037.33L1045.78 140ZM1038.38 133.568L1034.22 122.496L1030.77 131.584C1032.05 131.584 1033.04 131.584 1033.84 131.616C1034.61 131.648 1035.89 131.68 1036.94 131.84C1037.42 131.968 1037.9 132.544 1038.38 133.568ZM1045.8 132C1045.8 126.464 1050.28 123.808 1055.5 123.808C1059.46 123.808 1063.98 125.92 1064.49 130.208L1060.26 130.496C1059.75 128.672 1058.06 127.36 1055.5 127.36C1052.42 127.36 1050.38 129.12 1050.38 132C1050.38 134.848 1052.42 136.608 1055.34 136.608H1055.53C1058.06 136.512 1059.56 135.552 1060.23 133.632L1064.49 133.888C1063.98 138.08 1059.46 140.192 1055.5 140.192C1050.28 140.192 1045.8 137.536 1045.8 132ZM1071.6 123.904H1078.16V127.648H1073.36V134.56C1073.36 135.968 1074.09 136.256 1075.08 136.256H1078.96V140H1074.44C1070 140 1068.81 137.824 1068.81 133.536V127.648H1065.58V123.904H1066.54C1068.2 123.904 1069.87 120.928 1069.87 118.432H1074.44C1074.41 118.784 1074.38 119.168 1074.32 119.552C1074.16 120.224 1073.93 121.088 1073.42 121.888C1072.94 122.56 1072.17 123.168 1071.53 123.552C1070.92 123.84 1070.06 123.968 1069.42 124.064V124.128C1070.06 124.032 1070.92 123.904 1071.6 123.904ZM1085.47 121.312H1080.86V117.6H1085.47V121.312ZM1080.93 124H1085.41V140H1080.93V124ZM1097.12 134.976L1100.96 124H1105.86L1099.87 140H1093.38L1087.39 124H1092.32L1096.29 134.976C1096.58 135.648 1096.71 136.608 1096.71 137.344H1096.77C1096.77 136.608 1096.87 135.648 1097.12 134.976ZM1112.38 121.312H1107.77V117.6H1112.38V121.312ZM1107.83 124H1112.31V140H1107.83V124ZM1120.32 123.904H1126.88V127.648H1122.08V134.56C1122.08 135.968 1122.81 136.256 1123.8 136.256H1127.68V140H1123.16C1118.72 140 1117.53 137.824 1117.53 133.536V127.648H1114.3V123.904H1115.26C1116.92 123.904 1118.59 120.928 1118.59 118.432H1123.16C1123.13 118.784 1123.1 119.168 1123.04 119.552C1122.88 120.224 1122.65 121.088 1122.14 121.888C1121.66 122.56 1120.89 123.168 1120.25 123.552C1119.64 123.84 1118.78 123.968 1118.14 124.064V124.128C1118.78 124.032 1119.64 123.904 1120.32 123.904ZM1139 133.248L1142.87 124H1147.86L1140.06 142.272C1138.68 145.856 1135.9 146.592 1134.04 146.592H1129.21V143.232H1131.61C1132.44 143.232 1134.87 142.976 1135.38 141.632L1135.99 139.776L1129.18 124H1134.17L1138.04 133.248C1138.39 133.92 1138.52 134.848 1138.52 135.584H1138.58C1138.58 134.848 1138.71 133.92 1139 133.248Z" fill="black"/>
<g clip-path="url(#clip0_3008_3)">
<path d="M910.206 136.753H880.794C875.392 136.753 871 132.366 871 126.97C871 121.573 875.275 117.306 880.574 117.189V115.299C880.574 110.171 884.749 106 889.882 106C893.646 106 896.975 108.224 898.431 111.62C899.612 110.933 900.941 110.575 902.32 110.575C906.183 110.575 909.444 113.429 910.011 117.186H910.206C915.608 117.186 920 121.577 920 126.97C920 132.362 915.605 136.753 910.206 136.753ZM880.794 118.595C876.172 118.595 872.414 122.352 872.414 126.966C872.414 131.58 876.175 135.337 880.794 135.337H910.206C914.828 135.337 918.586 131.58 918.586 126.966C918.586 122.352 914.825 118.595 910.206 118.595H909.377C909.005 118.595 908.696 118.305 908.672 117.937C908.455 114.601 905.662 111.988 902.32 111.988C900.937 111.988 899.619 112.43 898.506 113.263C898.321 113.401 898.08 113.44 897.868 113.369C897.648 113.298 897.478 113.128 897.411 112.908C896.365 109.619 893.341 107.409 889.885 107.409C885.533 107.409 881.992 110.947 881.992 115.295V117.887C881.992 118.277 881.676 118.592 881.286 118.592H880.801L880.794 118.595Z" fill="black"/>
<path d="M907.796 131.658H883.998C883.608 131.658 883.293 131.343 883.293 130.953V122.979C883.293 122.589 883.608 122.274 883.998 122.274H907.796C908.186 122.274 908.501 122.589 908.501 122.979V130.953C908.501 131.343 908.186 131.658 907.796 131.658ZM884.707 130.245H907.091V123.68H884.707V130.245Z" fill="black"/>
<path d="M907.796 150H883.998C883.608 150 883.293 149.685 883.293 149.295V141.321C883.293 140.932 883.608 140.616 883.998 140.616H907.796C908.186 140.616 908.501 140.932 908.501 141.321V149.295C908.501 149.685 908.186 150 907.796 150ZM884.707 148.587H907.091V142.022H884.707V148.587Z" fill="black"/>
<path d="M888.673 144.912C888.283 144.912 887.968 144.596 887.968 144.207V128.223C887.968 127.834 888.283 127.518 888.673 127.518C889.063 127.518 889.379 127.834 889.379 128.223V144.207C889.379 144.596 889.063 144.912 888.673 144.912Z" fill="#2A21D9"/>
<path d="M903.121 144.912C902.731 144.912 902.415 144.596 902.415 144.207V128.223C902.415 127.834 902.731 127.518 903.121 127.518C903.511 127.518 903.826 127.834 903.826 128.223V144.207C903.826 144.596 903.511 144.912 903.121 144.912Z" fill="#2A21D9"/>
<path d="M888.673 128.928C887.631 128.928 886.787 128.081 886.787 127.044C886.787 126.006 887.635 125.16 888.673 125.16C889.712 125.16 890.559 126.006 890.559 127.044C890.559 128.081 889.712 128.928 888.673 128.928ZM888.673 126.569C888.411 126.569 888.198 126.782 888.198 127.044C888.198 127.306 888.411 127.518 888.673 127.518C888.935 127.518 889.148 127.306 889.148 127.044C889.148 126.782 888.935 126.569 888.673 126.569Z" fill="#2A21D9"/>
<path d="M903.121 128.928C902.079 128.928 901.235 128.081 901.235 127.044C901.235 126.006 902.082 125.16 903.121 125.16C904.159 125.16 905.007 126.006 905.007 127.044C905.007 128.081 904.159 128.928 903.121 128.928ZM903.121 126.569C902.859 126.569 902.646 126.782 902.646 127.044C902.646 127.306 902.859 127.518 903.121 127.518C903.383 127.518 903.596 127.306 903.596 127.044C903.596 126.782 903.383 126.569 903.121 126.569Z" fill="#2A21D9"/>
<path d="M888.673 147.27C887.631 147.27 886.787 146.424 886.787 145.386C886.787 144.349 887.635 143.502 888.673 143.502C889.712 143.502 890.559 144.349 890.559 145.386C890.559 146.424 889.712 147.27 888.673 147.27ZM888.673 144.912C888.411 144.912 888.198 145.124 888.198 145.386C888.198 145.648 888.411 145.861 888.673 145.861C888.935 145.861 889.148 145.648 889.148 145.386C889.148 145.124 888.935 144.912 888.673 144.912Z" fill="#2A21D9"/>
<path d="M903.121 147.27C902.079 147.27 901.235 146.424 901.235 145.386C901.235 144.349 902.082 143.502 903.121 143.502C904.159 143.502 905.007 144.349 905.007 145.386C905.007 146.424 904.159 147.27 903.121 147.27ZM903.121 144.912C902.859 144.912 902.646 145.124 902.646 145.386C902.646 145.648 902.859 145.861 903.121 145.861C903.383 145.861 903.596 145.648 903.596 145.386C903.596 145.124 903.383 144.912 903.121 144.912Z" fill="#2A21D9"/>
</g>
<path d="M719.65 54.85C719.457 54.6567 719.457 54.3433 719.65 54.15L722.8 50.9998C722.993 50.8065 723.307 50.8065 723.5 50.9998C723.693 51.1931 723.693 51.5065 723.5 51.6999L720.7 54.5L723.5 57.3001C723.693 57.4935 723.693 57.8069 723.5 58.0002C723.307 58.1935 722.993 58.1935 722.8 58.0002L719.65 54.85ZM1210 127.85V70.5H1211V127.85H1210ZM1210 70.5C1210 61.9334 1203.07 54.995 1194.5 54.995V54.005C1203.61 54.005 1211 61.3866 1211 70.5H1210ZM1194.5 54.995H720V54.005H1194.5V54.995Z" fill="#2A21D9"/>
<path d="M508.85 54.85C509.043 54.6567 509.043 54.3433 508.85 54.15L505.7 50.9998C505.507 50.8065 505.193 50.8065 505 50.9998C504.807 51.1931 504.807 51.5065 505 51.6999L507.8 54.5L505 57.3001C504.807 57.4935 504.807 57.8069 505 58.0002C505.193 58.1935 505.507 58.1935 505.7 58.0002L508.85 54.85ZM19.495 127.85V70.5H18.505V127.85H19.495ZM19.495 70.5C19.495 61.9334 26.4334 54.995 35 54.995V54.005C25.8866 54.005 18.505 61.3866 18.505 70.5H19.495ZM35 54.995H508.5V54.005H35V54.995Z" fill="#2A21D9"/>
<defs>
<filter id="filter0_b_3008_3" x="725" y="25" width="514" height="211" filterUnits="userSpaceOnUse" color-interpolation-filters="sRGB">
<feFlood flood-opacity="0" result="BackgroundImageFix"/>
<feGaussianBlur in="BackgroundImageFix" stdDeviation="5"/>
<feComposite in2="SourceAlpha" operator="in" result="effect1_backgroundBlur_3008_3"/>
<feBlend mode="normal" in="SourceGraphic" in2="effect1_backgroundBlur_3008_3" result="shape"/>
</filter>
<filter id="filter1_b_3008_3" x="-10" y="25" width="515" height="211" filterUnits="userSpaceOnUse" color-interpolation-filters="sRGB">
<feFlood flood-opacity="0" result="BackgroundImageFix"/>
<feGaussianBlur in="BackgroundImageFix" stdDeviation="5"/>
<feComposite in2="SourceAlpha" operator="in" result="effect1_backgroundBlur_3008_3"/>
<feBlend mode="normal" in="SourceGraphic" in2="effect1_backgroundBlur_3008_3" result="shape"/>
</filter>
<filter id="filter2_b_3008_3" x="416" y="-4" width="397" height="269" filterUnits="userSpaceOnUse" color-interpolation-filters="sRGB">
<feFlood flood-opacity="0" result="BackgroundImageFix"/>
<feGaussianBlur in="BackgroundImageFix" stdDeviation="2"/>
<feComposite in2="SourceAlpha" operator="in" result="effect1_backgroundBlur_3008_3"/>
<feBlend mode="normal" in="SourceGraphic" in2="effect1_backgroundBlur_3008_3" result="shape"/>
</filter>
<filter id="filter3_d_3008_3" x="430.5" y="49.4999" width="368" height="168" filterUnits="userSpaceOnUse" color-interpolation-filters="sRGB">
<feFlood flood-opacity="0" result="BackgroundImageFix"/>
<feColorMatrix in="SourceAlpha" type="matrix" values="0 0 0 0 0 0 0 0 0 0 0 0 0 0 0 0 0 0 127 0" result="hardAlpha"/>
<feOffset dy="4"/>
<feGaussianBlur stdDeviation="15"/>
<feComposite in2="hardAlpha" operator="out"/>
<feColorMatrix type="matrix" values="0 0 0 0 0.0651253 0 0 0 0 0.0901955 0 0 0 0 0.201872 0 0 0 0.1 0"/>
<feBlend mode="normal" in2="BackgroundImageFix" result="effect1_dropShadow_3008_3"/>
<feBlend mode="normal" in="SourceGraphic" in2="effect1_dropShadow_3008_3" result="shape"/>
</filter>
<filter id="filter4_b_3008_3" x="527" y="42" width="175" height="176" filterUnits="userSpaceOnUse" color-interpolation-filters="sRGB">
<feFlood flood-opacity="0" result="BackgroundImageFix"/>
<feGaussianBlur in="BackgroundImageFix" stdDeviation="2"/>
<feComposite in2="SourceAlpha" operator="in" result="effect1_backgroundBlur_3008_3"/>
<feBlend mode="normal" in="SourceGraphic" in2="effect1_backgroundBlur_3008_3" result="shape"/>
</filter>
<filter id="filter5_d_3008_3" x="516" y="35" width="197" height="197" filterUnits="userSpaceOnUse" color-interpolation-filters="sRGB">
<feFlood flood-opacity="0" result="BackgroundImageFix"/>
<feColorMatrix in="SourceAlpha" type="matrix" values="0 0 0 0 0 0 0 0 0 0 0 0 0 0 0 0 0 0 127 0" result="hardAlpha"/>
<feOffset dy="4"/>
<feGaussianBlur stdDeviation="15"/>
<feComposite in2="hardAlpha" operator="out"/>
<feColorMatrix type="matrix" values="0 0 0 0 0.0651253 0 0 0 0 0.0901955 0 0 0 0 0.201872 0 0 0 0.1 0"/>
<feBlend mode="normal" in2="BackgroundImageFix" result="effect1_dropShadow_3008_3"/>
<feBlend mode="normal" in="SourceGraphic" in2="effect1_dropShadow_3008_3" result="shape"/>
</filter>
<linearGradient id="paint0_linear_3008_3" x1="333.327" y1="191" x2="198.896" y2="191" gradientUnits="userSpaceOnUse">
<stop offset="0.191707" stop-color="#D9E7FB" stop-opacity="0"/>
<stop offset="1" stop-color="#D9E7FB"/>
</linearGradient>
<linearGradient id="paint1_linear_3008_3" x1="228.328" y1="122" x2="93.8965" y2="122" gradientUnits="userSpaceOnUse">
<stop offset="0.191707" stop-color="#D9E7FB" stop-opacity="0"/>
<stop offset="1" stop-color="#D9E7FB"/>
</linearGradient>
<linearGradient id="paint2_linear_3008_3" x1="1210.5" y1="169.5" x2="698" y2="169.5" gradientUnits="userSpaceOnUse">
<stop offset="0.711596" stop-color="#8F8F8F"/>
<stop offset="0.835516" stop-color="white"/>
</linearGradient>
<linearGradient id="paint3_linear_3008_3" x1="19" y1="169.5" x2="531.5" y2="169.5" gradientUnits="userSpaceOnUse">
<stop offset="0.59249" stop-color="#8F8F8F"/>
<stop offset="0.866663" stop-color="white"/>
</linearGradient>
<clipPath id="clip0_3008_3">
<rect width="49" height="44" fill="white" transform="translate(871 106)"/>
</clipPath>
</defs>
</svg>
