<?xml version="1.0" encoding="UTF-8"?><!DOCTYPE svg PUBLIC "-//W3C//DTD SVG 1.1//EN" "http://www.w3.org/Graphics/SVG/1.1/DTD/svg11.dtd"><svg xmlns="http://www.w3.org/2000/svg" xmlns:xlink="http://www.w3.org/1999/xlink"><symbol id="android"><path d="M6.541.108h-.258a.56.56 0 0 0-.172.775l1.291 1.893C5.51 3.81 4.045 5.53 3.53 7.51h16.009c-.43-2.066-1.894-3.701-3.873-4.734l1.29-1.893a.56.56 0 0 0-.171-.775.56.56 0 0 0-.775.172l-1.377 2.066c-.947-.344-1.98-.517-3.099-.517-1.118 0-2.151.173-3.098.517L7.058.28a.781.781 0 0 0-.603-.258l.086.086ZM8.35 4.67c.516 0 .86.43.86.86s-.43.861-.86.861a.862.862 0 0 1-.86-.86c0-.517.343-.861.86-.861Zm6.369 0c.516 0 .86.43.86.86s-.344.861-.86.861-.86-.344-.86-.86c0-.517.43-.861.86-.861ZM1.721 8.715C.775 8.715 0 9.49 0 10.436v8.091c0 .947.775 1.721 1.721 1.721.947 0 .43 0 .603-.086V8.802c-.172 0-.344-.087-.603-.087Zm1.722 0v12.738c0 .947.774 1.722 1.721 1.722h12.739c.946 0 1.721-.775 1.721-1.722V8.715H3.443Zm17.988 0c-.172 0-.43 0-.602.086v11.361c.172 0 .344.086.602.086.947 0 1.722-.774 1.722-1.721v-8.09c0-.947-.775-1.722-1.721-1.722ZM5.768 24.38v2.324a2.314 2.314 0 0 0 2.324 2.324 2.314 2.314 0 0 0 2.324-2.324V24.38H5.767Zm6.971 0v2.324a2.314 2.314 0 0 0 2.324 2.324 2.314 2.314 0 0 0 2.324-2.324V24.38h-4.648Z"/></symbol><symbol id="apple"><path d="M22.895 9.92c-.086 0-3.185 1.807-3.185 5.594.172 4.304 3.873 5.853 3.96 5.853 0 0-.603 2.066-2.066 4.131-1.205 1.808-2.496 3.615-4.476 3.615s-2.582-1.204-4.734-1.204-3.012 1.204-4.734 1.204c-1.721 0-3.356-1.893-4.648-3.7C1.377 23.087 0 19.472 0 15.944c0-1.808.344-3.701 1.205-5.165C2.496 8.63 4.734 7.167 7.23 7.08c1.893 0 3.615 1.29 4.734 1.29 1.119 0 3.184-1.29 5.508-1.29 1.033 0 3.701.344 5.423 2.84ZM11.878 6.65c-.345-1.722.602-3.358 1.463-4.477C14.46.883 16.18.022 17.73.022a6.227 6.227 0 0 1-1.636 4.561c-.947 1.292-2.668 2.324-4.217 2.066Z"/></symbol><symbol id="microsoft"><path d="M13.169 13.19H-.001V.023h13.17V13.19ZM28.919.023H15.752V13.19h13.168V.023ZM13.17 15.859H-.001v13.168h13.17V15.86Zm15.75 0H15.752v13.168h13.168V15.86Z"/></symbol><symbol id="unity"><path d="m27.134 14.654 1.893-3.185v-.516l-3.7-10.5c-.087-.345-.431-.517-.776-.431L13.708 2.69c-.173 0-.345.172-.43.43l-1.12 2.84H8.63c-.173 0-.345 0-.517.173l-7.918 8.52a.675.675 0 0 0 0 .948l8.262 7.918a.657.657 0 0 0 .43.172h3.788l1.119 2.84c0 .173.258.345.516.43l11.534 1.98h.086c.344 0 .602-.172.602-.516l2.324-10.673v-.516l-1.807-2.668.086.086ZM12.157 5.96l9.296-1.722-4.906 9.64H5.444l6.713-7.918Zm.603 17.816-7.316-7.23h11.103l5.767 8.694-9.468-1.464h-.086Zm11.878-.086-5.509-8.52 4.82-9.64 3.099 9.037-2.41 9.037v.086Z"/></symbol></svg>