<svg width="24" height="30" viewBox="0 0 24 30" fill="none" xmlns="http://www.w3.org/2000/svg">
<path d="M22.8947 9.9198C22.8086 9.9198 19.7101 11.7273 19.7101 15.5144C19.8822 19.8179 23.5832 21.3671 23.6693 21.3671C23.6693 21.3671 23.0668 23.4328 21.6036 25.4985C20.3986 27.306 19.1076 29.1135 17.128 29.1135C15.1484 29.1135 14.5459 27.9085 12.3941 27.9085C10.2424 27.9085 9.38165 29.1135 7.66025 29.1135C5.93885 29.1135 4.30351 27.2199 3.01246 25.4124C1.37712 23.0885 0 19.4736 0 15.9447C0 14.1372 0.344282 12.2437 1.20498 10.7805C2.49604 8.62875 4.73386 7.16555 7.2299 7.07948C9.12344 7.07948 10.8448 8.37054 11.9638 8.37054C13.0827 8.37054 15.1484 7.07948 17.4723 7.07948C18.5051 7.07948 21.1733 7.42377 22.8947 9.9198ZM11.8777 6.64913C11.5334 4.92773 12.4802 3.2924 13.3409 2.17348C14.4598 0.882431 16.1812 0.0217285 17.7305 0.0217285C17.8165 1.74313 17.214 3.37847 16.0951 4.58345C15.1484 5.87451 13.427 6.90734 11.8777 6.64913Z" fill="#292929"/>
</svg>
