<svg width="30" height="29" viewBox="0 0 30 29" fill="none" xmlns="http://www.w3.org/2000/svg">
<path d="M27.1336 14.6539L29.0272 11.4693C29.0272 11.2971 29.0272 11.125 29.0272 10.9528L25.3262 0.452285C25.2401 0.108004 24.8958 -0.0641366 24.5515 0.0219336L13.7067 2.69011C13.5345 2.69011 13.3624 2.86225 13.2763 3.12046L12.1574 5.96078H8.62853C8.45639 5.96078 8.28426 5.96078 8.11211 6.13292L0.193658 14.6539C-0.0645527 14.9121 -0.0645527 15.3424 0.193658 15.6006L8.45639 23.5191C8.54246 23.6052 8.7146 23.6912 8.88674 23.6912H12.6738L13.7927 26.5316C13.7927 26.7037 14.051 26.8758 14.3092 26.9619L25.8426 28.9415C25.8426 28.9415 25.8426 28.9415 25.9286 28.9415C26.2729 28.9415 26.5311 28.7694 26.5311 28.4251L28.855 17.7524C28.855 17.5803 28.855 17.4081 28.855 17.236L27.0476 14.5678L27.1336 14.6539ZM12.1574 5.96078L21.453 4.23938L16.547 13.8792H5.44393L12.1574 5.96078ZM12.7599 23.7773L5.44393 16.5474H16.547L22.3137 25.2405L12.846 23.7773H12.7599ZM24.6376 23.6912L19.1291 15.1703L23.949 5.53043L27.0476 14.5678L24.6376 23.6052V23.6912Z" fill="#292929"/>
</svg>
